<svg xmlns="http://www.w3.org/2000/svg" viewBox="0 0 1068 598"><defs><style>.cls-1{fill:#fff}.cls-1,.cls-2,.cls-4{fill-rule:evenodd}.cls-2,.cls-3{fill:#0073a5}.cls-4{fill:#d15978}</style></defs><title>american_express</title><path class="cls-1" d="M981.09 376.49c-1.5-.5 12.91 0 12.91 0V319h-21v1h-45.73c-13.61 0-24.27 3.49-31.27 8.54V320h-67.84c-11.27 0-24.16 2.69-31.16 8.54V320H676v8.54c-10-7.4-25.85-8.54-34-8.54h-80v8.54c-8-7.4-24.93-8.54-35.43-8.54h-90.16l-21 22.59L396.37 320H262v146h132l21.38-22.58L434.85 466H517v-34h7.23c11.27 0 23.77-.26 34.77-5.7V466h67v-38h3.95c3.89 0 5.05-.15 5.05 4.54V466h203.66c12.43 0 26.34-3.09 33.34-8.93V466h65c12.92 0 26-2.22 35-6.32v-.32s26.93-12.88 27.43-40.88-16.84-41.48-18.34-41.99zM569 140v8.22c-7-6.22-17.16-8.22-28.43-8.22H298.82l-16.7 37L265 140h-76v17.17L180.28 140h-64.9L53.3 286h74.9l9.73-24h21.37l8.94 24H253v-17.83l6.94 17.83h43.93l7.13-18.61V286h209v-39h3.47c3.1 0 3.53.92 3.53 5.59V286h108v-8.87c9 4.67 22.55 8.87 40.41 8.87h45.48l9.72-24H752l9.7 24H849v-22.11L862.37 286H932V140h-69v17.17L852.64 140H782v17.17L773 140h-96c-16.32 0-31 2-42 8.22V140z" id="Camada_2" data-name="Camada 2"/><g id="Layer_1" data-name="Layer 1"><path class="cls-2" d="M457 244h-59v-21h58v-22h-58v-19h59v-21h-84v104h84v-21zm42-17h26.79c8.94 0 14.8.92 18.69 4.42 4.27 5.46 3.52 14.55 3.52 20.39V265h26v-20.58c0-9-1-13.63-4.86-18.69a30.87 30.87 0 0 0-12.14-8.96c7-3.13 17.84-11.3 17.84-27.66 0-12.08-5.09-18.53-13.25-23.59-8.17-4.68-17.12-4.52-30-4.52H474v104h25zm0-45h30.67c4.3 0 9.33.25 12.44 1.8 3.11 2 4.67 5.19 4.67 9.85 0 4.3-1.56 8-4.67 9.19-3.88 2.33-7.38 2.16-12.44 2.16H499zm177.2 83h29.15l9.72-23h52.07l9.73 23H827v-78.22L874.42 265H910V161h-25v72.12L840.61 161H802v98.21L760.15 161h-36.91l-35.77 82H676.2c-6.6 0-13.6-1.63-17.11-5.13-4.65-5.46-6.6-13.67-6.6-25 0-10.9 2-19.24 6.6-23.91 5.06-4.28 10.51-6 19.45-6H702V161h-23.46c-17.11 0-30.7 3.74-38.09 11.91-11.27 11.3-13.22 25.24-13.62 40.81 0 18.69 4.67 30.7 12.84 39.66 8.94 8.96 24.49 11.62 36.53 11.62zm64.9-86.29L758.2 220H724z"/><path class="cls-3" d="M589 161h25v104h-25z"/><path class="cls-2" d="M527.34 341h-79.66l-32.26 34.28L385.1 341H284v104h99.55l31.88-34.28 30.7 34.28H494v-35h31.79c21.38 0 43.15-5.68 43.15-34.89 0-28.43-22.16-34.11-41.6-34.11zm-156.62 83H309v-21h55v-21h-55v-20h62.5l27.6 30.8zM470 436l-38.48-43.2L470 351.91zm57.34-47H494v-27h33.34c9 0 14.76 3.77 14.76 12.72S536.3 389 527.34 389zM696 445h83v-21h-59v-21h58v-21h-58v-20h59v-21h-83v104zM329 265h25V161h-40.4l-30.72 70.88L250.24 161H210v98.21L167.45 161h-36.91l-44.7 104h26.81l9.35-23h52.47l9.32 23H235v-81.73L271.23 265h21.37l36.4-81.73zm-198.08-45l17.49-41.29L165.5 220zm550.33 149c0-12.08-4.27-18.5-12.43-23.18-8.16-4.28-17.88-4.87-30.72-4.87H581V445h25v-38h27.07c8.94 0 13.88.69 17.77 4.58 4.27 5.06 4.16 13.93 4.16 21V445h25v-20.27c0-9.35-.73-14-3.84-19.08a25.75 25.75 0 0 0-12.8-9c6.98-2.29 17.89-11.24 17.89-27.65zm-32.64 14.79c-3.89 1.57-7.52 1.57-12.18 1.57l-30.44.78V362h30.56c4.65 0 8.94.21 12 2.15 3.11 1.57 5 4.79 5 9.07a12.75 12.75 0 0 1-4.94 10.62zM845.27 382h-13.6c-3.51 0-6.62-1-9.72-1.8a7.93 7.93 0 0 1-5.06-7.53c0-3.49.79-5.81 3.89-8.14 1.94-1.56 5-1.52 9.72-1.52H876V341h-49.39c-26.81 0-35.75 16.17-35.75 31 0 33.1 29.15 31.45 52.09 32.23 4.65 0 7.38.73 8.94 2.29 1.54 1.17 3.11 4.26 3.11 7.37a10 10 0 0 1-3.11 6.72c-2.35 1.56-5.06 2.43-9.72 2.43H794v22h48.16c25.26 0 39.64-10.52 39.64-32.71 0-10.52-3.13-16.9-7.38-22.35-6.22-5.1-15.16-7.98-29.15-7.98zm97.54 0h-13.59c-3.49 0-6.61-1-9.73-1.8a7.93 7.93 0 0 1-5-7.53c0-3.49 1.56-5.81 3.89-8.14 1.89-1.53 5-1.53 9.62-1.53h46v-22h-49.84c-26 0-35.75 16.17-35.75 31 0 33.1 29.16 31.45 52.09 32.23 4.65 0 7.38.73 8.94 2.29 1.56 1.17 3.1 4.26 3.1 7.37a9.93 9.93 0 0 1-3.1 6.72c-1.56 1.56-5.06 2.43-9.72 2.43H892v22h47.72c25.25 0 39.64-10.52 39.64-32.71 0-10.52-3.11-16.9-7.38-22.35-6.23-5.1-15.17-7.98-29.17-7.98z"/><path class="cls-4" d="M53 286.01l.3-.01H53v.01z"/><path class="cls-2" d="M0 0v598h1068V0zm53 286h.3l62.08-146h64.9l8.72 17.17V140h76l17.11 37 16.7-37h241.76c11.27 0 21.43 2 28.43 8.22V140h66v8.22c11-6.22 25.66-8.22 42-8.22h96l9 17.17V140h70.64L863 157.17V140h69v146h-69.63L849 263.89V286h-87.31L752 262h-21.39l-9.72 24h-45.48c-17.86 0-31.41-4.2-40.41-8.87V286H527v-33.41c0-4.67-.43-5.59-3.53-5.59H520v39H311v-18.61L303.87 286h-43.93L253 268.17V286h-84.77l-8.94-24h-21.37l-9.73 24H53m919 173.35v.32c-9 4.11-22.09 6.32-35 6.32h-65v-8.93c-7 5.84-20.91 8.93-33.34 8.93H635v-33.45c0-4.68-1.16-4.54-5.05-4.54H626v38h-67v-39.7c-11 5.45-23.5 5.7-34.77 5.7H517v34h-82.15l-19.43-22.58L394 466H262V320h134.37l19.05 22.59 21-22.59h90.16c10.51 0 27.43 1.14 35.43 8.54V320h80c8.15 0 24 1.14 34 8.54V320H797v8.54c7-5.84 19.89-8.54 31.16-8.54H896v8.54c7-5.05 17.67-8.54 31.27-8.54H973v-1h21v57.5s-14.41-.51-12.91 0 18.84 14 18.34 42S972 459.35 972 459.35z"/></g></svg>