<svg xmlns="http://www.w3.org/2000/svg" width="84.26" height="53.87" viewBox="0 0 84.26 53.87"><path d="M38.365 35.811h-4.618l2.886-17.74h4.619zm-8.504-17.74l-4.403 12.201-.521-2.628v.001l-1.554-7.977s-.188-1.598-2.191-1.598h-7.278l-.086.3s2.227.463 4.831 2.028l4.013 15.412h4.812l7.348-17.74h-4.971zm36.326 17.74h4.242l-3.698-17.74h-3.713c-1.714 0-2.132 1.322-2.132 1.322l-6.889 16.418h4.814l.963-2.636h5.871l.542 2.636zm-5.081-6.275l2.426-6.639 1.365 6.639h-3.791zm-6.747-7.199l.659-3.81s-2.034-.773-4.154-.773c-2.291 0-7.734 1.003-7.734 5.873 0 4.583 6.388 4.641 6.388 7.046 0 2.406-5.729 1.977-7.619.459l-.688 3.982s2.062 1.002 5.213 1.002c3.151 0 7.905-1.633 7.905-6.073 0-4.612-6.444-5.042-6.444-7.047s4.498-1.748 6.474-.659z" fill="#0066B3"/><path fill="#FAA634" d="M24.938 27.646l-1.554-7.977s-.188-1.598-2.191-1.598h-7.278l-.086.3s3.499.725 6.855 3.441c3.208 2.597 4.254 5.834 4.254 5.834z"/></svg>