
<svg xmlns="http://www.w3.org/2000/svg" version="1.1" xmlns:xlink="http://www.w3.org/1999/xlink" preserveAspectRatio="none" x="0px" y="0px" width="786px" height="280px" viewBox="0 0 786 280">
<defs>
<image id="pacman10_hp_sprite_png" x="0" y="0" width="786" height="280" xlink:href="./images/pacman10_hp_sprite_png.png"/>

<g id="Layer1_0_FILL">
<path fill="#FFE100" stroke="none" d="
M 32.55 36.5
L 30.15 30 32.55 23.5
Q 29.95 22.55 27.4 23.7 24.85 24.85 23.8 27.4 22.75 30 23.8 32.55 24.85 35.15 27.4 36.3 29.95 37.45 32.55 36.5 Z"/>
</g>

<g id="Layer1_1_MEMBER_0_FILL">
<path fill="#FFE100" stroke="none" d="
M 165.65 228.95
Q 163.95 230.65 163.95 232.95 163.95 235.25 165.65 236.95 167.35 238.65 169.65 238.65 171.35 238.65 172.75 237.75 174.1 236.85 174.8 235.35
L 170.15 232.95 174.3 229.65
Q 172.6 227.25 169.65 227.25 167.35 227.25 165.65 228.95 Z"/>
</g>

<g id="Layer0_0_MEMBER_0_FILL">
<path fill="#1F307C" stroke="none" d="
M 499.9 37.55
Q 499.9 36.15 498.9 35.1 497.9 34.1 496.45 34.1
L 404.7 34.1
Q 403.3 34.1 402.25 35.1 401.25 36.15 401.25 37.55
L 401.25 61.6
Q 401.25 63.05 402.25 64.05 403.3 65.05 404.7 65.05
L 496.45 65.05
Q 497.9 65.05 498.9 64.05 499.9 63.05 499.9 61.6
L 499.9 37.55 Z"/>
</g>

<g id="Layer0_0_MEMBER_1_FILL">
<path fill="#1F307C" stroke="none" d="
M 404.7 374
Q 403.3 374 402.25 375 401.25 376.05 401.25 377.45
L 401.25 401.5
Q 401.25 402.95 402.25 404 403.25 405 404.7 405
L 496.45 405
Q 497.9 405 498.9 404 499.9 402.95 499.9 401.5
L 499.9 377.45
Q 499.9 376.05 498.9 375 497.9 374 496.45 374
L 404.7 374 Z"/>
</g>

<g id="Layer0_0_MEMBER_2_FILL">
<path fill="#1F307C" stroke="none" d="
M 725.3 2.3
Q 722.55 0 717.85 0
L 5.6 0
Q 3.85 0 2 2.3 0 4.8 0 7.8
L 0 431.25
Q 0 434.5 2.25 436.75 4.55 439.05 7.8 439.05
L 720.05 439.05
Q 723.3 439.05 725.55 436.75 727.85 434.5 727.85 431.25
L 727.85 7.8
Q 727.85 4.45 725.3 2.3
M 720.55 7.3
Q 722.85 9.6 722.85 12.8
L 722.85 426.25
Q 722.85 429.5 720.55 431.75 718.25 434.05 715 434.05
L 549.05 434.05
Q 545.8 434.05 543.5 431.75 541.2 429.5 541.2 426.25
L 541.2 381.85
Q 541.2 378.6 538.9 376.3 536.6 374 533.35 374 530.1 374 527.85 376.3 525.55 378.6 525.55 381.85
L 525.55 426.2
Q 525.55 429.45 523.25 431.75 520.95 434.05 517.7 434.05
L 379.8 434.05
Q 376.55 434.05 374.3 431.75 372 429.45 372 426.2
L 372 381.85
Q 372 378.6 369.7 376.3 367.4 374 364.15 374 360.9 374 358.6 376.3 356.3 378.6 356.3 381.85
L 356.3 426.2
Q 356.3 429.45 354 431.75 351.75 434.05 348.5 434.05
L 208.55 434.05
Q 205.3 434.05 203.05 431.75 200.75 429.45 200.75 426.2
L 200.75 381.85
Q 200.75 378.6 198.45 376.3 196.15 374 192.9 374 189.7 373.95 187.35 376.25 185.05 378.55 185.05 381.75
L 185.05 426.2
Q 185.05 429.45 182.75 431.75 180.45 434.05 177.2 434.05
L 12.8 434.05
Q 9.55 434.05 7.3 431.75 5 429.45 5 426.2
L 5 12.85
Q 5 9.6 7.3 7.3 9.55 5 12.8 5
L 177.1 5
Q 180.35 5 182.6 7.3 184.9 9.6 184.9 12.85
L 184.9 57.25
Q 184.9 60.45 187.2 62.75 189.5 65.05 192.75 65.05 196 65.05 198.3 62.75 200.6 60.5 200.6 57.25
L 200.6 12.85
Q 200.6 9.6 202.9 7.3 205.15 5 208.4 5
L 348.4 5
Q 351.65 5 353.95 7.3 356.25 9.6 356.25 12.85
L 356.25 57.25
Q 356.25 60.5 358.55 62.75 360.85 65.05 364.1 65.05 367.35 65.05 369.6 62.75 371.9 60.5 371.9 57.25
L 371.9 12.85
Q 371.9 9.6 374.2 7.3 376.5 5 379.75 5
L 517.7 5
Q 520.95 5 523.2 7.3 525.5 9.6 525.5 12.85
L 525.5 57.25
Q 525.5 60.5 527.8 62.75 530.1 65.05 533.35 65.05 536.6 65.05 538.85 62.75 541.15 60.5 541.15 57.25
L 541.15 12.85
Q 541.15 9.6 543.45 7.3 545.75 5 549 5
L 715.05 5
Q 718.3 5 720.55 7.3 Z"/>
</g>

<g id="Layer0_0_MEMBER_3_FILL">
<path fill="#1F307C" stroke="none" d="
M 162.6 61.6
L 162.6 37.55
Q 162.6 36.1 161.6 35.1 160.55 34.1 159.1 34.1
L 38.7 34.1
Q 37.3 34.1 36.25 35.1 35.25 36.15 35.25 37.55
L 35.25 61.6
Q 35.25 63.05 36.25 64.05 37.3 65.05 38.7 65.05
L 159.1 65.05
Q 160.55 65.05 161.6 64.05 162.6 63.05 162.6 61.6 Z"/>
</g>

<g id="Layer0_0_MEMBER_4_FILL">
<path fill="#1F307C" stroke="none" d="
M 329.75 37.55
Q 329.7 36.05 328.6 35.05 327.5 34 326.05 34.05
L 228.45 34.05
Q 226.95 34 225.85 35.05 224.8 36.05 224.75 37.55
L 224.75 61.55
Q 224.8 63 225.85 64.05 226.95 65.05 228.45 65
L 326.05 65
Q 327.5 65.05 328.6 64.05 329.7 63 329.75 61.55
L 329.75 37.55 Z"/>
</g>

<g id="Layer0_0_MEMBER_5_FILL">
<path fill="#1F307C" stroke="none" d="
M 38.7 90.8
Q 37.25 90.8 36.25 91.8 35.25 92.85 35.25 94.3
L 35.25 184.15
Q 35.25 185.6 36.25 186.6 37.3 187.6 38.7 187.6
L 44.1 187.6
Q 45.55 187.6 46.55 186.6 47.55 185.6 47.55 184.15
L 47.55 94.3
Q 47.55 92.85 46.55 91.8 45.55 90.8 44.1 90.8
L 38.7 90.8 Z"/>
</g>

<g id="Layer0_0_MEMBER_6_FILL">
<path fill="#1F307C" stroke="none" d="
M 162.25 184.15
L 162.25 140.8
Q 162.25 139.35 161.25 138.35 160.2 137.3 158.75 137.3
L 81.75 137.3
Q 80.35 137.3 79.3 138.35 78.3 139.35 78.3 140.8
L 78.3 184.15
Q 78.3 185.6 79.3 186.6 80.35 187.6 81.75 187.6
L 158.75 187.6
Q 160.2 187.6 161.25 186.6 162.25 185.6 162.25 184.15 Z"/>
</g>

<g id="Layer0_0_MEMBER_7_FILL">
<path fill="#1F307C" stroke="none" d="
M 38.7 374
Q 37.3 374 36.25 375 35.25 376.05 35.25 377.45
L 35.25 401.5
Q 35.25 402.95 36.25 404 37.25 405 38.7 405
L 159.1 405
Q 160.55 405 161.6 404 162.6 402.95 162.6 401.5
L 162.6 377.45
Q 162.6 376 161.6 375 160.55 374 159.1 374
L 38.7 374 Z"/>
</g>

<g id="Layer0_0_MEMBER_8_FILL">
<path fill="#1F307C" stroke="none" d="
M 229.65 374
Q 228.25 374 227.2 375 226.2 376.05 226.2 377.45
L 226.2 401.5
Q 226.2 402.95 227.2 404 228.2 405 229.65 405
L 321.35 405
Q 322.8 405 323.85 404 324.85 402.95 324.85 401.5
L 324.85 377.45
Q 324.85 376 323.85 375 322.8 374 321.35 374
L 229.65 374 Z"/>
</g>

<g id="Layer0_0_MEMBER_9_FILL">
<path fill="#1F307C" stroke="none" d="
M 80.05 325.95
Q 79.05 327 79.05 328.45
L 79.05 344.75
Q 79.05 346.2 80.05 347.2 81.1 348.2 82.55 348.2
L 195.6 348.2
Q 197.6 348.2 199.15 346.45 200.75 344.7 200.75 342.3
L 200.75 254.9
Q 200.75 253.45 199.75 252.4 198.7 251.4 197.25 251.4
L 188.55 251.4
Q 187.1 251.4 186.1 252.4 185.1 253.45 185.1 254.9
L 185.1 321.5
Q 185.1 322.95 184.1 323.95 183.05 324.95 181.6 324.95
L 82.5 324.95
Q 81.05 324.95 80.05 325.95 Z"/>
</g>

<g id="Layer0_0_MEMBER_10_FILL">
<path fill="#1F307C" stroke="none" d="
M 199.15 92.55
Q 197.6 90.8 195.6 90.8
L 82.55 90.8
Q 81.1 90.8 80.05 91.8 79.05 92.8 79.05 94.25
L 79.05 110.6
Q 79.05 112.05 80.05 113.1 81.05 114.1 82.5 114.1
L 181.6 114.1
Q 183.05 114.1 184.1 115.1 185.1 116.1 185.1 117.55
L 185.1 184.1
Q 185.1 185.5 186.1 186.55 187.1 187.55 188.55 187.6
L 197.25 187.6
Q 198.7 187.55 199.75 186.55 200.75 185.55 200.75 184.1
L 200.75 96.7
Q 200.75 94.3 199.15 92.55 Z"/>
</g>

<g id="Layer0_0_MEMBER_11_FILL">
<path fill="#1F307C" stroke="none" d="
M 38.7 251.45
Q 37.25 251.45 36.25 252.45 35.25 253.5 35.25 254.95
L 35.25 344.75
Q 35.25 346.2 36.25 347.25 37.25 348.25 38.7 348.25
L 44.1 348.25
Q 45.55 348.25 46.55 347.25 47.55 346.2 47.55 344.75
L 47.55 254.95
Q 47.55 253.5 46.55 252.45 45.55 251.45 44.1 251.45
L 38.7 251.45 Z"/>
</g>

<g id="Layer0_0_MEMBER_12_FILL">
<path fill="#1F307C" stroke="none" d="
M 161.25 252.45
Q 160.2 251.45 158.75 251.45
L 81.75 251.45
Q 80.3 251.45 79.3 252.45 78.3 253.5 78.3 254.95
L 78.3 298.25
Q 78.3 299.7 79.3 300.75 80.3 301.75 81.75 301.75
L 158.75 301.75
Q 160.2 301.75 161.25 300.75 162.25 299.7 162.25 298.25
L 162.25 254.95
Q 162.25 253.5 161.25 252.45 Z"/>
</g>

<g id="Layer0_0_MEMBER_13_FILL">
<path fill="#1F307C" stroke="none" d="
M 38.7 215.55
Q 37.3 215.55 36.25 216.55 35.25 217.6 35.25 219
L 35.25 220.05
Q 35.25 221.5 36.25 222.5 37.3 223.5 38.7 223.5
L 235.45 223.5
Q 236.9 223.5 237.9 222.5 238.9 221.5 238.9 220.05
L 238.9 219
Q 238.9 217.6 237.9 216.55 236.9 215.55 235.45 215.55
L 38.7 215.55 Z"/>
</g>

<g id="Layer0_0_MEMBER_14_FILL">
<path fill="#1F307C" stroke="none" d="
M 691.2 37.55
Q 691.2 36.1 690.2 35.1 689.15 34.1 687.7 34.1
L 567.3 34.1
Q 565.85 34.1 564.8 35.1 563.8 36.1 563.8 37.55
L 563.8 61.6
Q 563.8 63.05 564.8 64.05 565.85 65.05 567.3 65.05
L 687.7 65.05
Q 689.15 65.05 690.2 64.05 691.2 63.05 691.2 61.6
L 691.2 37.55 Z"/>
</g>

<g id="Layer0_0_MEMBER_15_FILL">
<path fill="#1F307C" stroke="none" d="
M 682.3 90.8
Q 680.85 90.8 679.85 91.8 678.85 92.85 678.85 94.3
L 678.85 184.15
Q 678.85 185.6 679.85 186.6 680.9 187.6 682.3 187.6
L 687.7 187.6
Q 689.15 187.6 690.2 186.6 691.2 185.6 691.2 184.15
L 691.2 94.3
Q 691.2 92.85 690.2 91.8 689.15 90.8 687.7 90.8
L 682.3 90.8 Z"/>
</g>

<g id="Layer0_0_MEMBER_16_FILL">
<path fill="#1F307C" stroke="none" d="
M 648.1 184.15
L 648.1 140.8
Q 648.1 139.35 647.1 138.35 646.05 137.3 644.65 137.3
L 567.65 137.3
Q 566.25 137.3 565.2 138.35 564.2 139.35 564.2 140.8
L 564.2 184.15
Q 564.2 185.6 565.2 186.6 566.25 187.6 567.65 187.6
L 644.65 187.6
Q 646.1 187.6 647.1 186.6 648.1 185.6 648.1 184.15 Z"/>
</g>

<g id="Layer0_0_MEMBER_17_FILL">
<path fill="#1F307C" stroke="none" d="
M 691.2 377.45
Q 691.2 376 690.2 375 689.15 374 687.7 374
L 567.3 374
Q 565.85 374 564.8 375 563.8 376 563.8 377.45
L 563.8 401.5
Q 563.8 402.95 564.8 404 565.85 405 567.3 405
L 687.7 405
Q 689.15 405 690.2 404 691.2 402.95 691.2 401.5
L 691.2 377.45 Z"/>
</g>

<g id="Layer0_0_MEMBER_18_FILL">
<path fill="#1F307C" stroke="none" d="
M 529.15 251.4
Q 527.7 251.4 526.65 252.4 525.65 253.45 525.65 254.9
L 525.65 342.3
Q 525.65 344.7 527.3 346.45 528.85 348.2 530.85 348.2
L 643.85 348.2
Q 645.25 348.2 646.3 347.2 647.3 346.2 647.35 344.75
L 647.35 328.45
Q 647.35 327 646.35 325.95 645.3 324.95 643.85 324.95
L 544.8 324.95
Q 543.4 324.95 542.35 323.95 541.35 322.95 541.35 321.5
L 541.35 254.9
Q 541.3 253.45 540.3 252.4 539.3 251.4 537.85 251.4
L 529.15 251.4 Z"/>
</g>

<g id="Layer0_0_MEMBER_19_FILL">
<path fill="#1F307C" stroke="none" d="
M 647.35 94.3
Q 647.35 92.85 646.35 91.85 645.3 90.8 643.85 90.8
L 530.85 90.8
Q 528.85 90.8 527.3 92.55 525.65 94.3 525.65 96.7
L 525.65 184.1
Q 525.65 185.55 526.65 186.55 527.7 187.55 529.15 187.6
L 537.85 187.6
Q 539.3 187.55 540.3 186.55 541.3 185.55 541.35 184.1
L 541.35 117.55
Q 541.35 116.15 542.35 115.1 543.4 114.1 544.8 114.1
L 643.85 114.1
Q 645.3 114.1 646.35 113.1 647.35 112.05 647.35 110.6
L 647.35 94.3 Z"/>
</g>

<g id="Layer0_0_MEMBER_20_FILL">
<path fill="#1F307C" stroke="none" d="
M 682.3 251.45
Q 680.85 251.45 679.85 252.45 678.85 253.5 678.85 254.95
L 678.85 344.75
Q 678.85 346.2 679.85 347.25 680.85 348.25 682.3 348.25
L 687.7 348.25
Q 689.15 348.25 690.2 347.25 691.2 346.2 691.2 344.75
L 691.2 254.95
Q 691.2 253.5 690.2 252.45 689.15 251.45 687.7 251.45
L 682.3 251.45 Z"/>
</g>

<g id="Layer0_0_MEMBER_21_FILL">
<path fill="#1F307C" stroke="none" d="
M 648.1 298.25
L 648.1 254.95
Q 648.1 253.5 647.1 252.45 646.1 251.45 644.65 251.45
L 567.65 251.45
Q 566.2 251.45 565.2 252.45 564.2 253.5 564.2 254.95
L 564.2 298.25
Q 564.2 299.7 565.2 300.75 566.2 301.75 567.65 301.75
L 644.65 301.75
Q 646.1 301.75 647.1 300.75 648.1 299.7 648.1 298.25 Z"/>
</g>

<g id="Layer0_0_MEMBER_22_FILL">
<path fill="#1F307C" stroke="none" d="
M 690.2 222.5
Q 691.2 221.5 691.2 220.05
L 691.2 219
Q 691.2 217.6 690.2 216.55 689.2 215.55 687.75 215.55
L 491 215.55
Q 489.55 215.55 488.5 216.55 487.5 217.55 487.5 219
L 487.5 220.05
Q 487.5 221.5 488.5 222.5 489.55 223.5 491 223.5
L 687.75 223.5
Q 689.2 223.5 690.2 222.5 Z"/>
</g>

<g id="Layer0_0_MEMBER_23_FILL">
<path fill="#1F307C" stroke="none" d="
M 500.75 93.6
Q 497.95 90.85 494.05 90.8
L 232.4 90.8
Q 228.5 90.85 225.75 93.6 222.95 96.4 222.95 100.3
L 222.95 338.75
Q 222.95 342.7 225.75 345.45 228.5 348.2 232.4 348.25
L 344.05 348.25 344.05 330.35 250.3 330.35
Q 246.4 330.35 243.6 327.6 240.85 324.8 240.8 320.9
L 240.8 118.2
Q 240.85 114.25 243.6 111.5 246.35 108.7 250.3 108.7
L 476.1 108.7
Q 480.05 108.7 482.8 111.5 485.55 114.25 485.6 118.2
L 485.6 320.9
Q 485.55 324.8 482.8 327.6 480.05 330.35 476.1 330.35
L 383.05 330.35 383.05 348.25 494.05 348.25
Q 497.95 348.25 500.75 345.45 503.5 342.7 503.5 338.75
L 503.5 100.3
Q 503.5 96.4 500.75 93.6 Z"/>
</g>
</defs>

<g transform="matrix( 1, 0, 0, 1, 0,0) ">
<use xlink:href="#pacman10_hp_sprite_png"/>
</g>

<g transform="matrix( 1, 0, 0, 1, 0,0) ">
<use xlink:href="#Layer1_0_FILL"/>
</g>

<g transform="matrix( 1.127197265625, 0, 0, 1.127197265625, -181.8,-232.5) ">
<use xlink:href="#Layer1_1_MEMBER_0_FILL"/>
</g>

<g transform="matrix( 0.3733673095703125, 0, 0, 0.3733673095703125, 325.8,5.55) ">
<use xlink:href="#Layer0_0_MEMBER_0_FILL"/>
</g>

<g transform="matrix( 0.3733673095703125, 0, 0, 0.3733673095703125, 325.8,5.55) ">
<use xlink:href="#Layer0_0_MEMBER_1_FILL"/>
</g>

<g transform="matrix( 0.3733673095703125, 0, 0, 0.3733673095703125, 325.8,5.55) ">
<use xlink:href="#Layer0_0_MEMBER_2_FILL"/>
</g>

<g transform="matrix( 0.3733673095703125, 0, 0, 0.3733673095703125, 325.8,5.55) ">
<use xlink:href="#Layer0_0_MEMBER_3_FILL"/>
</g>

<g transform="matrix( 0.3733673095703125, 0, 0, 0.3733673095703125, 325.8,5.55) ">
<use xlink:href="#Layer0_0_MEMBER_4_FILL"/>
</g>

<g transform="matrix( 0.3733673095703125, 0, 0, 0.3733673095703125, 325.8,5.55) ">
<use xlink:href="#Layer0_0_MEMBER_5_FILL"/>
</g>

<g transform="matrix( 0.3733673095703125, 0, 0, 0.3733673095703125, 325.8,5.55) ">
<use xlink:href="#Layer0_0_MEMBER_6_FILL"/>
</g>

<g transform="matrix( 0.3733673095703125, 0, 0, 0.3733673095703125, 325.8,5.55) ">
<use xlink:href="#Layer0_0_MEMBER_7_FILL"/>
</g>

<g transform="matrix( 0.3733673095703125, 0, 0, 0.3733673095703125, 325.8,5.55) ">
<use xlink:href="#Layer0_0_MEMBER_8_FILL"/>
</g>

<g transform="matrix( 0.3733673095703125, 0, 0, 0.3733673095703125, 325.8,5.55) ">
<use xlink:href="#Layer0_0_MEMBER_9_FILL"/>
</g>

<g transform="matrix( 0.3733673095703125, 0, 0, 0.3733673095703125, 325.8,5.55) ">
<use xlink:href="#Layer0_0_MEMBER_10_FILL"/>
</g>

<g transform="matrix( 0.3733673095703125, 0, 0, 0.3733673095703125, 325.8,5.55) ">
<use xlink:href="#Layer0_0_MEMBER_11_FILL"/>
</g>

<g transform="matrix( 0.3733673095703125, 0, 0, 0.3733673095703125, 325.8,5.55) ">
<use xlink:href="#Layer0_0_MEMBER_12_FILL"/>
</g>

<g transform="matrix( 0.3733673095703125, 0, 0, 0.3733673095703125, 325.8,5.55) ">
<use xlink:href="#Layer0_0_MEMBER_13_FILL"/>
</g>

<g transform="matrix( 0.3733673095703125, 0, 0, 0.3733673095703125, 325.8,5.55) ">
<use xlink:href="#Layer0_0_MEMBER_14_FILL"/>
</g>

<g transform="matrix( 0.3733673095703125, 0, 0, 0.3733673095703125, 325.8,5.55) ">
<use xlink:href="#Layer0_0_MEMBER_15_FILL"/>
</g>

<g transform="matrix( 0.3733673095703125, 0, 0, 0.3733673095703125, 325.8,5.55) ">
<use xlink:href="#Layer0_0_MEMBER_16_FILL"/>
</g>

<g transform="matrix( 0.3733673095703125, 0, 0, 0.3733673095703125, 325.8,5.55) ">
<use xlink:href="#Layer0_0_MEMBER_17_FILL"/>
</g>

<g transform="matrix( 0.3733673095703125, 0, 0, 0.3733673095703125, 325.8,5.55) ">
<use xlink:href="#Layer0_0_MEMBER_18_FILL"/>
</g>

<g transform="matrix( 0.3733673095703125, 0, 0, 0.3733673095703125, 325.8,5.55) ">
<use xlink:href="#Layer0_0_MEMBER_19_FILL"/>
</g>

<g transform="matrix( 0.3733673095703125, 0, 0, 0.3733673095703125, 325.8,5.55) ">
<use xlink:href="#Layer0_0_MEMBER_20_FILL"/>
</g>

<g transform="matrix( 0.3733673095703125, 0, 0, 0.3733673095703125, 325.8,5.55) ">
<use xlink:href="#Layer0_0_MEMBER_21_FILL"/>
</g>

<g transform="matrix( 0.3733673095703125, 0, 0, 0.3733673095703125, 325.8,5.55) ">
<use xlink:href="#Layer0_0_MEMBER_22_FILL"/>
</g>

<g transform="matrix( 0.3733673095703125, 0, 0, 0.3733673095703125, 325.8,5.55) ">
<use xlink:href="#Layer0_0_MEMBER_23_FILL"/>
</g>
</svg>
