
<svg xmlns="http://www.w3.org/2000/svg" version="1.1" xmlns:xlink="http://www.w3.org/1999/xlink" preserveAspectRatio="none" x="0px" y="0px" width="786px" height="280px" viewBox="0 0 786 280">
<defs>
<image id="pacman10_hp_sprite_png" x="0" y="0" width="786" height="280" xlink:href="./images/pacman10_hp_sprite_png.png"/>

<g id="Mask_3_MASK_0_FILL">
<path fill="#FFFFFF" stroke="none" d="
M -40 -110
L -40 360 320 360 320 -110 -40 -110 Z"/>
</g>

<g id="Layer1_0_FILL">
<path fill="#1F307C" stroke="none" d="
M 589.15 206.25
Q 588.6 205.7 587.85 205.7
L 549.3 205.7 546.15 205.7 543.45 205.7
Q 542.7 205.7 542.15 206.25 541.6 206.8 541.6 207.55
L 541.6 219.45
Q 541.6 220.25 542.15 220.75 542.7 221.3 543.45 221.3
L 587.85 221.3
Q 588.6 221.3 589.15 220.75 589.7 220.25 589.7 219.45
L 589.7 207.55
Q 589.7 206.8 589.15 206.25
M 405.75 207.85
Q 405.75 207.1 405.2 206.55 404.7 206 403.9 206
L 343.8 206
Q 343 206 342.5 206.55 341.95 207.1 341.95 207.85
L 341.95 219.6
Q 341.95 220.4 342.5 220.9 343 221.45 343.8 221.45
L 403.9 221.45
Q 404.7 221.45 405.2 220.9 405.75 220.4 405.75 219.6
L 405.75 207.85
M 446.5 220.8
Q 447.05 221.35 447.8 221.35
L 492.25 221.35
Q 493.05 221.35 493.6 220.8 494.15 220.3 494.15 219.5
L 494.15 207.25
Q 494.15 206.5 493.6 205.95 493.05 205.4 492.25 205.4
L 447.8 205.4
Q 447.05 205.4 446.5 205.95 445.95 206.5 445.95 207.25
L 445.95 219.5
Q 445.95 220.3 446.5 220.8
M 365.45 187.9
Q 365.45 188.7 366 189.25 366.55 189.75 367.35 189.75
L 427.45 189.75
Q 428.5 189.75 429.35 188.85 430.2 187.9 430.2 186.6
L 430.2 143.85
Q 430.2 143.05 429.65 142.55 429.1 142 428.3 142
L 423.65 142
Q 422.9 142 422.35 142.55 421.8 143.05 421.8 143.85
L 421.8 179.95
Q 421.8 180.7 421.25 181.25 420.7 181.8 419.9 181.8
L 367.3 181.8
Q 366.55 181.8 366 182.35 365.45 182.85 365.45 183.65
L 365.45 187.9
M 343.8 142
Q 343 142 342.5 142.55 341.95 143.1 341.95 143.9
L 341.95 187.9
Q 341.95 188.7 342.45 189.25 343 189.8 343.8 189.8
L 348.2 189.8
Q 348.95 189.8 349.5 189.25 350.05 188.7 350.05 187.9
L 350.05 143.9
Q 350.05 143.1 349.5 142.55 348.95 142 348.2 142
L 343.8 142
M 399.05 142
L 366.9 142
Q 366.15 142 365.6 142.55 365.05 143.1 365.05 143.9
L 365.05 162.95
Q 365.05 163.7 365.6 164.3 366.1 164.8 366.9 164.8
L 403.7 164.8
Q 404.5 164.8 405.05 164.25 405.6 163.75 405.6 162.95
L 405.6 143.9
Q 405.6 143.1 405.05 142.55 404.5 142 403.7 142
L 399.05 142
M 343.8 53.55
Q 343 53.55 342.5 54.1 341.95 54.65 341.95 55.45
L 341.95 99.9
Q 341.95 100.65 342.5 101.2 343 101.75 343.8 101.75
L 348.2 101.75
Q 348.95 101.75 349.5 101.2 350.05 100.65 350.05 99.9
L 350.05 55.45
Q 350.05 54.65 349.5 54.1 348.95 53.55 348.2 53.55
L 343.8 53.55
M 419.9 64.05
Q 420.7 64.05 421.25 64.6 421.8 65.15 421.8 65.9
L 421.8 99.85
Q 421.8 100.6 422.35 101.15 422.9 101.7 423.65 101.75
L 428.3 101.75
Q 429.1 101.7 429.65 101.15 430.2 100.6 430.2 99.85
L 430.2 56.7
Q 430.2 55.45 429.35 54.5 428.5 53.55 427.45 53.55
L 367.35 53.55
Q 366.55 53.55 366 54.1 365.45 54.65 365.45 55.4
L 365.45 62.2
Q 365.45 62.95 366 63.55 366.5 64.05 367.3 64.05
L 419.9 64.05
M 406.25 79.6
Q 406.25 78.85 405.7 78.3 405.15 77.7 404.35 77.7
L 367.8 77.7
Q 367.05 77.7 366.5 78.3 365.95 78.85 365.95 79.6
L 365.95 99.9
Q 365.95 100.65 366.5 101.2 367.05 101.75 367.8 101.75
L 404.35 101.75
Q 405.15 101.75 405.7 101.2 406.25 100.65 406.25 99.9
L 406.25 79.6
M 406.1 23.75
Q 406.1 23 405.55 22.45 405.05 21.9 404.25 21.9
L 343.8 21.9
Q 343 21.9 342.5 22.45 341.95 23 341.95 23.75
L 341.95 35.9
Q 341.95 36.65 342.5 37.2 343 37.75 343.8 37.75
L 404.25 37.75
Q 405.05 37.75 405.55 37.2 406.1 36.65 406.1 35.9
L 406.1 23.75
M 494.05 23.75
Q 494 22.95 493.45 22.4 492.9 21.85 492.1 21.9
L 447.85 21.9
Q 447.05 21.85 446.5 22.4 445.9 22.95 445.9 23.75
L 445.9 35.85
Q 445.9 36.65 446.5 37.2 447.05 37.75 447.85 37.7
L 492.1 37.7
Q 492.9 37.75 493.45 37.2 494 36.65 494.05 35.85
L 494.05 23.75
M 589.5 22.45
Q 588.95 21.9 588.2 21.9
L 543.7 21.9
Q 542.95 21.9 542.4 22.45 541.85 23 541.85 23.75
L 541.85 35.9
Q 541.85 36.65 542.4 37.2 542.95 37.75 543.7 37.75
L 588.2 37.75
Q 588.95 37.75 589.5 37.2 590.05 36.65 590.05 35.9
L 590.05 23.75
Q 590.05 23 589.5 22.45
M 692.3 221.3
Q 693.1 221.3 693.6 220.75 694.15 220.25 694.15 219.45
L 694.15 207.2
Q 694.15 206.45 693.6 205.9 693.1 205.35 692.3 205.35
L 631.5 205.35
Q 630.7 205.35 630.15 205.9 629.6 206.45 629.6 207.2
L 629.6 219.45
Q 629.6 220.25 630.15 220.75 630.7 221.3 631.5 221.3
L 692.3 221.3
M 668.75 189.75
Q 669.5 189.75 670.05 189.25 670.6 188.7 670.6 187.9
L 670.6 184.15
Q 670.6 183.35 670.05 182.85 669.55 182.3 668.75 182.3
L 615.55 182.3
Q 614.8 182.3 614.25 181.75 613.7 181.2 613.7 180.45
L 613.7 143.15
Q 613.65 142.35 613.15 141.85 612.6 141.3 611.8 141.3
L 607.5 141.3
Q 606.7 141.3 606.15 141.85 605.6 142.35 605.6 143.15
L 605.6 186.6
Q 605.6 187.9 606.5 188.85 607.3 189.75 608.4 189.75
L 668.75 189.75
M 670 143.2
Q 670 142.4 669.45 141.85 668.95 141.3 668.15 141.3
L 631.8 141.3
Q 631.05 141.3 630.5 141.85 629.95 142.4 629.95 143.2
L 629.95 163.95
Q 629.95 164.75 630.5 165.25 631.05 165.8 631.8 165.8
L 668.15 165.8
Q 668.95 165.8 669.45 165.25 670 164.75 670 163.95
L 670 143.2
M 693.6 141.85
Q 693.1 141.3 692.3 141.3
L 687.9 141.3
Q 687.1 141.3 686.6 141.85 686.05 142.4 686.05 143.2
L 686.05 187.9
Q 686.05 188.7 686.6 189.25 687.1 189.8 687.9 189.8
L 692.3 189.8
Q 693.05 189.8 693.65 189.25 694.15 188.7 694.15 187.9
L 694.15 143.2
Q 694.15 142.4 693.6 141.85
M 693.6 120.1
Q 693.1 119.55 692.3 119.55
L 590.35 119.55 590.35 58.65
Q 590.35 56.55 588.9 55.05 587.4 53.6 585.3 53.55
L 526 53.55 526 62.15 577.15 62.15
Q 579.3 62.15 580.75 63.65 582.25 65.15 582.25 67.25
L 582.25 177.1
Q 582.25 179.2 580.75 180.7 579.3 182.2 577.15 182.2
L 528.75 182.2 528.7 182.2 459 182.2
Q 456.9 182.2 455.4 180.7 453.95 179.2 453.9 177.1
L 453.9 67.25
Q 453.95 65.15 455.4 63.65 456.9 62.15 459 62.15
L 510 62.15 510 53.55 451.4 53.55
Q 449.3 53.6 447.8 55.05 446.3 56.55 446.3 58.65
L 446.3 119.75 343.8 119.75
Q 343 119.75 342.5 120.3 341.95 120.8 341.95 121.6
L 341.95 122.15
Q 341.95 122.9 342.5 123.45 343 124 343.8 124
L 446.3 124 446.3 184.7
Q 446.3 186.8 447.8 188.3 449.3 189.75 451.4 189.8
L 528.7 189.8 528.75 189.8 585.3 189.8
Q 587.4 189.8 588.9 188.3 590.35 186.8 590.35 184.7
L 590.35 123.8 692.3 123.8
Q 693.1 123.8 693.6 123.25 694.15 122.7 694.15 121.95
L 694.15 121.4
Q 694.15 120.6 693.6 120.1
M 712.75 117.8
L 710.05 117.8 710.05 233.65
Q 710.05 235.4 708.85 236.65 707.6 237.85 705.85 237.85
L 618.55 237.85
Q 616.8 237.85 615.55 236.65 614.3 235.4 614.3 233.65
L 614.3 209.95
Q 614.3 208.2 613.1 206.95 611.85 205.7 610.1 205.7 608.35 205.7 607.15 206.95 605.9 208.2 605.9 209.95
L 605.9 233.65
Q 605.9 235.4 604.7 236.65 603.45 237.85 601.7 237.85
L 530.15 237.85
Q 528.4 237.85 527.2 236.65 525.95 235.4 525.95 233.65
L 525.95 209.85
Q 525.95 208.1 524.75 206.85 524 206.1 523.1 205.8 522.45 205.6 521.75 205.6
L 521.7 205.6 521.7 205.8 514 205.8 514 205.6
Q 513.35 205.6 512.75 205.8 511.8 206.1 511.05 206.85 509.85 208.1 509.85 209.85
L 509.85 233.65
Q 509.85 235.4 508.6 236.65 507.4 237.85 505.65 237.85
L 434.4 237.85
Q 432.65 237.85 431.45 236.65 430.2 235.4 430.2 233.65
L 430.2 210.25
Q 430.2 208.5 428.95 207.25 427.75 206 426 206 424.25 206 423 207.2 421.75 208.45 421.75 210.2
L 421.75 233.65
Q 421.75 235.4 420.55 236.65 419.3 237.85 417.55 237.85
L 329.85 237.85
Q 328.1 237.85 326.9 236.65 325.7 235.4 325.7 233.65
L 325.7 117.8 323 117.8 323 236.35
Q 323 238.1 324.2 239.3 324.85 239.95 325.6 240.25 325.9 240.4 326.55 240.5
L 327.2 240.55 708.55 240.55 709.25 240.5
Q 709.85 240.4 710.15 240.25 710.95 239.95 711.5 239.3 712.75 238.1 712.75 236.35
L 712.75 117.8
M 670 79.9
Q 670 79.15 669.45 78.6 668.95 78 668.15 78
L 631.8 78
Q 631.05 78 630.5 78.6 629.95 79.15 629.95 79.9
L 629.95 100.2
Q 629.95 100.95 630.5 101.5 631.05 102.05 631.8 102.05
L 668.15 102.05
Q 668.95 102.05 669.45 101.5 670 100.95 670 100.2
L 670 79.9
M 670.6 55.45
Q 670.6 54.65 670.05 54.1 669.55 53.55 668.75 53.55
L 608.75 53.55
Q 607.7 53.55 606.85 54.5 605.95 55.45 605.95 56.7
L 605.95 99.8
Q 605.95 100.55 606.5 101.1 607.05 101.65 607.85 101.7
L 611.8 101.7
Q 612.6 101.65 613.15 101.1 613.65 100.55 613.7 99.8
L 613.7 63.9
Q 613.7 63.15 614.25 62.6 614.8 62.05 615.55 62.05
L 668.75 62.05
Q 669.55 62.05 670.05 61.5 670.6 61 670.6 60.2
L 670.6 55.45
M 686.6 54.1
Q 686.05 54.65 686.05 55.45
L 686.05 99.7
Q 686.05 100.45 686.6 101 687.1 101.55 687.9 101.55
L 692.3 101.55
Q 693.1 101.55 693.6 101 694.15 100.45 694.15 99.7
L 694.15 55.45
Q 694.15 54.65 693.6 54.1 693.1 53.55 692.3 53.55
L 687.9 53.55
Q 687.1 53.55 686.6 54.1
M 693.6 22.45
Q 693.1 21.9 692.3 21.9
L 631.85 21.9
Q 631.05 21.9 630.5 22.45 629.95 23 629.95 23.75
L 629.95 35.9
Q 629.95 36.65 630.5 37.2 631.05 37.75 631.85 37.75
L 692.3 37.75
Q 693.05 37.75 693.65 37.2 694.15 36.65 694.15 35.9
L 694.15 23.75
Q 694.15 23 693.6 22.45
M 712.75 7.2
Q 712.75 5.4 711.35 4.25 709.9 3 707.4 3
L 326 3
Q 325.1 3 324.1 4.25 323 5.6 323 7.2
L 323 101.8 325.7 101.8 325.7 9.9
Q 325.7 8.15 326.9 6.9 328.1 5.7 329.85 5.7
L 417.5 5.7
Q 419.25 5.7 420.45 6.9 421.7 8.15 421.7 9.9
L 421.7 33.55
Q 421.7 35.3 422.95 36.5 424.2 37.75 425.9 37.75 427.65 37.75 428.9 36.5 430.1 35.3 430.1 33.55
L 430.1 9.9
Q 430.1 8.2 431.65 6.9 433.1 5.7 434.9 5.7
L 505.9 5.7
Q 507.65 5.7 508.85 6.9 510.1 8.15 510.1 9.9
L 510.1 33.55
Q 510.1 35.3 511.35 36.5 512.4 37.55 513.8 37.75
L 513.8 37.8 521.2 37.8 521.2 37.75 521.7 37.75
Q 523.45 37.75 524.7 36.5 525.9 35.3 525.9 33.55
L 525.9 9.9
Q 525.9 8.3 526.95 7.15
L 527.15 6.9
Q 528.45 5.7 530.1 5.7
L 601.6 5.7
Q 603.35 5.7 604.55 6.9 605.8 8.15 605.8 9.9
L 605.8 33.55
Q 605.8 35.3 607 36.5 608.25 37.75 610 37.75 611.75 37.75 612.95 36.5 614.2 35.3 614.2 33.55
L 614.2 9.9
Q 614.2 8.05 615 6.9 615.9 5.7 617.6 5.7
L 705.85 5.7
Q 707.6 5.7 708.85 6.9 710.05 8.1 710.05 9.85
L 710.05 101.8 712.75 101.8 712.75 7.2 Z"/>

<path fill="#FFFFFF" stroke="none" d="
M 477.4 108.95
L 477.45 107.35 484.75 107.35 484.75 102 471 102 471 119.95 477.4 119.95 477.4 114.05 483.7 114.05 483.7 108.95 477.4 108.95
M 485.75 72.15
L 471 72.15 471 91.5 485.75 91.5 485.75 85.7 477.9 85.7 477.9 84.3 484.4 84.3 484.4 79.35 477.9 79.35 477.9 77.95 485.75 77.95 485.75 72.15
M 542.35 156.9
L 542.35 148.55 532.3 148.55 532.3 130.35 522.8 130.35 522.8 156.9 542.35 156.9
M 518.3 130.35
L 508.8 130.35 508.8 156.9 518.3 156.9 518.3 130.35
M 488.6 139.2
Q 487.9 140.7 487.8 142.55
L 487.45 142.55
Q 487.4 140.85 486.65 139.2
L 482.35 130.5 471 130.5 471 156.95 480.45 156.95 480.45 146.75
Q 480.4 145.1 480.05 143.3
L 480.45 143.3
Q 480.95 144.95 481.75 146.75
L 484.6 152.35 490.65 152.35 493.45 146.75
Q 494.35 145 494.8 143.3
L 495.15 143.3
Q 494.8 145.1 494.8 146.75
L 494.8 156.95 504.25 156.95 504.25 130.5 492.9 130.5 488.6 139.2
M 497.8 107.35
L 496.75 103.95 493.95 104.8 493.95 102 489.85 102 489.85 104.8 487.05 103.95 486 107.35 488.6 108.15 487.15 110.6 490.5 112.35 491.9 109.95 493.3 112.35 496.65 110.6 495.25 108.15 497.8 107.35
M 510.2 109.05
L 516.35 109.05
Q 516.75 108.2 516.75 107.25 516.75 104.8 514.85 103.3 512.7 101.6 508.95 101.6 504.35 101.6 501.85 104.1 499.35 106.55 499.35 110.95 499.35 115.4 501.85 117.85 504.35 120.35 508.95 120.35 513.45 120.35 516.75 117.4
L 513.7 113.3
Q 513.3 113.75 512.6 114.2 511.15 115.05 509.75 115.05 507.95 115.05 507 114 506 112.85 506 110.7 506 108.75 506.8 107.75 507.5 106.85 508.7 106.85 509.45 106.85 509.95 107.3 510.35 107.65 510.35 108.3 510.4 108.65 510.2 109.05
M 563.8 140.2
L 554.9 140.2 554.9 138.3 565.7 138.3 565.7 130.35 545.4 130.35 545.4 156.9 565.7 156.9 565.7 148.95 554.9 148.95 554.9 147 563.8 147 563.8 140.2
M 531.4 110.7
L 531.4 110.45 536.65 102 529.35 102 526 108 525.45 108 525.45 102 519.1 102 519.1 119.95 525.45 119.95 525.45 113.65 526.1 113.65 529.7 119.95 537.3 119.95 531.4 110.7
M 544.7 102
L 538.3 102 538.3 119.95 544.7 119.95 544.7 102
M 565.75 102
L 559.35 102 559.35 107.9
Q 559.35 109.05 559.55 110.2
L 559.35 110.2
Q 559 109 558.3 107.9
L 554.2 102 547.8 102 547.8 119.95 554.15 119.95 554.15 114.05
Q 554.15 112.85 553.95 111.7
L 554.15 111.7
Q 554.45 112.95 555.2 114.05
L 559.3 119.95 565.75 119.95 565.75 102
M 535.9 72.15
L 527.5 72.15 527.5 91.45 534.4 91.45 534.4 86.2 534.9 86.2
Q 535.9 86.2 536.45 87.1 536.75 87.65 537.35 89.05 538.75 91.9 542.65 91.9 544.1 91.8 545.4 91.45
L 545.4 86.2
Q 543.9 86.2 543.15 85.25 542.15 84.05 541.3 83.75
L 541.3 83.5 543.05 82.45
Q 544.75 81 544.75 78.65 544.75 72.15 535.9 72.15
M 535.9 80.6
L 534.4 80.6 534.4 77.8 535.9 77.8
Q 537.6 77.8 537.6 79.2 537.6 80.6 535.9 80.6
M 565.8 72.15
L 558.35 72.15 556.15 77.15
Q 555.7 78.25 555.6 79.6
L 555.35 79.6
Q 555.35 78.35 554.8 77.15
L 552.6 72.15 545.15 72.15 552.05 84.85 552.05 91.5 558.95 91.5 558.95 84.85 565.8 72.15
M 494.75 72.15
L 487.15 72.15 494.15 91.5 501.05 91.5 508.05 72.15 500.5 72.15 498.15 81
Q 497.8 82.3 497.75 83.75
L 497.45 83.75
Q 497.45 82.35 497.05 81
L 494.75 72.15
M 524.5 72.15
L 509.75 72.15 509.75 91.5 524.5 91.5 524.5 85.7 516.65 85.7 516.65 84.3 523.1 84.3 523.1 79.35 516.65 79.35 516.65 77.95 524.5 77.95 524.5 72.15 Z"/>

<path fill="#67BD17" stroke="none" d="
M 535.55 165.35
Q 534.55 166.4 534.55 167.8 534.55 169.25 535.55 170.25 536.55 171.25 538 171.25 539.4 171.25 540.45 170.25 541.45 169.25 541.45 167.8 541.45 166.4 540.45 165.35 539.4 164.35 538 164.35 536.55 164.35 535.55 165.35 Z"/>

<path fill="#008D38" stroke="none" d="
M 548.65 165.35
Q 547.65 166.4 547.65 167.8 547.65 169.25 548.65 170.25 549.65 171.25 551.1 171.25 552.5 171.25 553.55 170.25 554.55 169.25 554.55 167.8 554.55 166.4 553.55 165.35 552.5 164.35 551.1 164.35 549.65 164.35 548.65 165.35 Z"/>

<path fill="#CF2023" stroke="none" d="
M 498.75 164.35
Q 497.3 164.35 496.3 165.35 495.25 166.4 495.25 167.8 495.25 169.25 496.3 170.25 497.3 171.25 498.75 171.25 500.15 171.25 501.15 170.25 502.15 169.25 502.15 167.8 502.15 166.4 501.15 165.35 500.15 164.35 498.75 164.35 Z"/>

<path fill="#FC2E27" stroke="none" d="
M 489.1 167.8
Q 489.1 166.4 488.05 165.35 487.05 164.35 485.65 164.35 484.2 164.35 483.2 165.35 482.2 166.4 482.2 167.8 482.2 169.25 483.2 170.25 484.2 171.25 485.65 171.25 487.05 171.25 488.05 170.25 489.1 169.25 489.1 167.8 Z"/>

<path fill="#FF8E00" stroke="none" d="
M 522.45 165.35
Q 521.45 166.4 521.45 167.8 521.45 169.25 522.45 170.25 523.5 171.25 524.9 171.25 526.35 171.25 527.35 170.25 528.35 169.25 528.35 167.8 528.35 166.4 527.35 165.35 526.35 164.35 524.9 164.35 523.5 164.35 522.45 165.35
M 565.7 126.85
L 565.7 123.5 471 123.5 471 126.85 565.7 126.85
M 565.7 98.45
L 565.7 95.05 471 95.05 471 98.45 565.7 98.45 Z"/>

<path fill="#FFA80D" stroke="none" d="
M 511.8 171.25
Q 513.25 171.25 514.25 170.25 515.25 169.25 515.25 167.8 515.25 166.4 514.25 165.35 513.25 164.35 511.8 164.35 510.4 164.35 509.35 165.35 508.35 166.4 508.35 167.8 508.35 169.25 509.35 170.25 510.4 171.25 511.8 171.25 Z"/>
</g>
</defs>

<mask id="Mask_Mask_1">
<g transform="matrix( 1, 0, 0, 1, 0,0) ">
<use xlink:href="#Mask_3_MASK_0_FILL"/>
</g>
</mask>

<g mask="url(#Mask_Mask_1)">
<g transform="matrix( 1, 0, 0, 1, 0,0) ">
<use xlink:href="#pacman10_hp_sprite_png"/>
</g>
</g>

<g transform="matrix( 1, 0, 0, 1, 0,0) ">
<use xlink:href="#Layer1_0_FILL"/>
</g>
</svg>
