<svg xmlns="http://www.w3.org/2000/svg" xmlns:xlink="http://www.w3.org/1999/xlink" preserveAspectRatio="none" width="505" height="62" viewBox="0 0 505 62"><defs><path fill="#1F307C" d="M264.05 19.7v-8.4q0-4.7-3.25-8.05Q257.35 0 252.7 0q-4.65 0-7.95 3.4-3.25 3.25-3.25 7.9v8.4q0 4.7-3.35 8.05-3.25 3.15-7.65 3.25 4.4.1 7.65 3.25 3.35 3.35 3.35 8.05v8.4q0 4.65 3.25 7.9 3.3 3.4 7.95 3.4t8.1-3.25q3.25-3.35 3.25-8.05v-8.4q0-4.65 3.3-8.05 3.2-3.15 7.7-3.25-4.5-.1-7.7-3.25-3.3-3.4-3.3-8.05m-230.5-8.4q0-4.7-3.25-8.05Q26.9 0 22.25 0t-8 3.4Q11 6.65 11 11.3v8.4q0 4.7-3.35 8.05Q4.4 30.9 0 31q4.4.1 7.65 3.25Q11 37.6 11 42.3v8.4q0 4.65 3.25 7.9 3.35 3.4 8 3.4t8.05-3.25q3.25-3.35 3.25-8.05v-8.4q0-4.65 3.35-8.05 3.15-3.15 7.65-3.25-4.5-.1-7.65-3.25-3.35-3.4-3.35-8.05v-8.4m460.95 8.4v-8.4q0-4.7-3.25-8.05-3.4-3.25-8-3.25-4.65 0-7.9 3.4-3.4 3.25-3.4 7.9v8.4q0 4.7-3.25 8.05-3.35 3.15-7.75 3.25 4.4.1 7.75 3.25 3.25 3.35 3.25 8.05v8.4q0 4.65 3.4 7.9 3.25 3.4 7.9 3.4 4.6 0 8-3.25 3.25-3.35 3.25-8.05v-8.4q0-4.7 3.15-8.05 3.2-3.15 7.85-3.25-4.65-.1-7.85-3.25-3.15-3.35-3.15-8.05z" id="a"/></defs><use xlink:href="#a"/></svg>