<svg width="229" height="1383.8" xmlns="http://www.w3.org/2000/svg"><style>.st0{fill:#dededf}.st1{fill:#ffe006}.st2{fill:#293379}</style><title>Layer 1</title><g id="pac_man"><g id="svg_1"><circle class="st0" cx="213.9" cy="64.1" r="2.2" id="svg_2"/><circle class="st0" cx="213.9" cy="132.2" r="2.2" id="svg_3"/><circle class="st0" cx="213.9" cy="98.2" r="2.2" id="svg_4"/><circle class="st0" cx="213.9" cy="115.2" r="2.2" id="svg_5"/><circle class="st0" cx="213.9" cy="81.1" r="2.2" id="svg_6"/><circle class="st0" cx="213.9" cy="149.3" r="2.2" id="svg_7"/><circle class="st0" cx="213.9" cy="183.4" r="2.2" id="svg_8"/><circle class="st0" cx="213.9" cy="166.3" r="2.2" id="svg_9"/><circle class="st0" cx="213.9" cy="200.4" r="2.2" id="svg_10"/><circle class="st0" cx="213.9" cy="217.4" r="2.2" id="svg_11"/><circle class="st0" cx="213.9" cy="234.5" r="2.2" id="svg_12"/><circle class="st0" cx="213.9" cy="302.6" r="2.2" id="svg_13"/><circle class="st0" cx="213.9" cy="268.6" r="2.2" id="svg_14"/><circle class="st0" cx="213.9" cy="285.6" r="2.2" id="svg_15"/><circle class="st0" cx="213.9" cy="251.5" r="2.2" id="svg_16"/><circle class="st0" cx="213.9" cy="319.7" r="2.2" id="svg_17"/><circle class="st0" cx="213.9" cy="353.8" r="2.2" id="svg_18"/><circle class="st0" cx="213.9" cy="336.7" r="2.2" id="svg_19"/><circle class="st0" cx="213.9" cy="473" r="2.2" id="svg_20"/><circle class="st0" cx="213.9" cy="490.1" r="2.2" id="svg_21"/><circle class="st0" cx="213.9" cy="524.2" r="2.2" id="svg_22"/><circle class="st0" cx="213.9" cy="507.1" r="2.2" id="svg_23"/><circle class="st0" cx="213.9" cy="541.2" r="2.2" id="svg_24"/><circle class="st0" cx="213.9" cy="558.2" r="2.2" id="svg_25"/><circle class="st0" cx="213.9" cy="575.3" r="2.2" id="svg_26"/><circle class="st0" cx="213.9" cy="643.4" r="2.2" id="svg_27"/><circle class="st0" cx="213.9" cy="609.4" r="2.2" id="svg_28"/><circle class="st0" cx="213.9" cy="626.4" r="2.2" id="svg_29"/><circle class="st0" cx="213.9" cy="592.3" r="2.2" id="svg_30"/><circle class="st0" cx="213.9" cy="660.5" r="2.2" id="svg_31"/><circle class="st0" cx="213.9" cy="677.5" r="2.2" id="svg_32"/><circle class="st0" cx="213.9" cy="745.7" r="2.2" id="svg_33"/><circle class="st0" cx="213.9" cy="779.8" r="2.2" id="svg_34"/><circle class="st0" cx="213.9" cy="796.8" r="2.2" id="svg_35"/><circle class="st0" cx="213.9" cy="762.7" r="2.2" id="svg_36"/><circle class="st0" cx="213.9" cy="916.1" r="2.2" id="svg_37"/><circle class="st0" cx="213.9" cy="984.2" r="2.2" id="svg_38"/><circle class="st0" cx="213.9" cy="950.1" r="2.2" id="svg_39"/><circle class="st0" cx="213.9" cy="967.2" r="2.2" id="svg_40"/><circle class="st0" cx="213.9" cy="933.1" r="2.2" id="svg_41"/><circle class="st0" cx="213.9" cy="1001.3" r="2.2" id="svg_42"/><circle class="st0" cx="213.9" cy="1035.3" r="2.2" id="svg_43"/><circle class="st0" cx="213.9" cy="1018.3" r="2.2" id="svg_44"/><circle class="st0" cx="213.9" cy="1052.4" r="2.2" id="svg_45"/><circle class="st0" cx="213.9" cy="1069.4" r="2.2" id="svg_46"/><circle class="st0" cx="213.9" cy="1086.5" r="2.2" id="svg_47"/><circle class="st0" cx="213.9" cy="1154.6" r="2.2" id="svg_48"/><circle class="st0" cx="213.9" cy="1137.6" r="2.2" id="svg_49"/><circle class="st0" cx="213.9" cy="1103.5" r="2.2" id="svg_50"/><circle class="st0" cx="213.9" cy="1171.7" r="2.2" id="svg_51"/><circle class="st0" cx="213.9" cy="1205.7" r="2.2" id="svg_52"/><circle class="st0" cx="213.9" cy="1188.7" r="2.2" id="svg_53"/><circle class="st0" cx="213.9" cy="1222.8" r="2.2" id="svg_54"/><circle class="st0" cx="213.9" cy="1239.8" r="2.2" id="svg_55"/><circle class="st0" cx="213.9" cy="1256.9" r="2.2" id="svg_56"/><circle class="st0" cx="213.9" cy="1325" r="2.2" id="svg_57"/><circle class="st0" cx="213.9" cy="1290.9" r="2.2" id="svg_58"/><circle class="st0" cx="213.9" cy="1308" r="2.2" id="svg_59"/><circle class="st0" cx="213.9" cy="1273.9" r="2.2" id="svg_60"/><circle class="st0" cx="213.9" cy="1342.1" r="2.2" id="svg_61"/><circle class="st0" cx="13.7" cy="64.1" r="2.2" id="svg_62"/><circle class="st0" cx="13.7" cy="132.2" r="2.2" id="svg_63"/><circle class="st0" cx="13.7" cy="98.2" r="2.2" id="svg_64"/><circle class="st0" cx="13.7" cy="115.2" r="2.2" id="svg_65"/><circle class="st0" cx="13.7" cy="81.1" r="2.2" id="svg_66"/><circle class="st0" cx="13.7" cy="149.3" r="2.2" id="svg_67"/><circle class="st0" cx="13.7" cy="183.4" r="2.2" id="svg_68"/><circle class="st0" cx="13.7" cy="166.3" r="2.2" id="svg_69"/><circle class="st0" cx="13.7" cy="200.4" r="2.2" id="svg_70"/><circle class="st0" cx="13.7" cy="217.4" r="2.2" id="svg_71"/><circle class="st0" cx="78.5" cy="234.5" r="2.2" id="svg_72"/><circle class="st0" cx="44.5" cy="234.5" r="2.2" id="svg_73"/><circle class="st0" cx="61.5" cy="234.5" r="2.2" id="svg_74"/><circle class="st0" cx="27.4" cy="234.5" r="2.2" id="svg_75"/><circle class="st0" cx="95.6" cy="234.5" r="2.2" id="svg_76"/><circle class="st0" cx="197.4" cy="234.5" r="2.2" id="svg_77"/><circle class="st0" cx="78.5" cy="274.6" r="2.2" id="svg_78"/><circle class="st0" cx="44.5" cy="274.6" r="2.2" id="svg_79"/><circle class="st0" cx="61.5" cy="274.6" r="2.2" id="svg_80"/><circle class="st0" cx="95.6" cy="274.6" r="2.2" id="svg_81"/><circle class="st0" cx="129.7" cy="274.6" r="2.2" id="svg_82"/><circle class="st0" cx="112.6" cy="274.6" r="2.2" id="svg_83"/><circle class="st0" cx="146.7" cy="274.6" r="2.2" id="svg_84"/><circle class="st0" cx="163.7" cy="274.6" r="2.2" id="svg_85"/><circle class="st0" cx="180.3" cy="274.6" r="2.2" id="svg_86"/><circle class="st0" cx="197.4" cy="274.6" r="2.2" id="svg_87"/><circle class="st0" cx="78.5" cy="458.2" r="2.2" id="svg_88"/><circle class="st0" cx="44.5" cy="458.2" r="2.2" id="svg_89"/><circle class="st0" cx="61.5" cy="458.2" r="2.2" id="svg_90"/><circle class="st0" cx="27.4" cy="458.2" r="2.2" id="svg_91"/><circle class="st0" cx="95.6" cy="458.2" r="2.2" id="svg_92"/><circle class="st0" cx="129.7" cy="458.2" r="2.2" id="svg_93"/><circle class="st0" cx="112.6" cy="458.2" r="2.2" id="svg_94"/><circle class="st0" cx="112.6" cy="478.4" r="2.2" id="svg_95"/><circle class="st0" cx="146.7" cy="458.2" r="2.2" id="svg_96"/><circle class="st0" cx="163.7" cy="458.2" r="2.2" id="svg_97"/><circle class="st0" cx="180.3" cy="458.2" r="2.2" id="svg_98"/><circle class="st0" cx="129.7" cy="498.6" r="2.2" id="svg_99"/><circle class="st0" cx="112.6" cy="498.6" r="2.2" id="svg_100"/><circle class="st0" cx="146.7" cy="498.6" r="2.2" id="svg_101"/><circle class="st0" cx="163.7" cy="498.6" r="2.2" id="svg_102"/><circle class="st0" cx="180.3" cy="498.6" r="2.2" id="svg_103"/><circle class="st0" cx="197.4" cy="498.6" r="2.2" id="svg_104"/><circle class="st0" cx="78.5" cy="682" r="2.2" id="svg_105"/><circle class="st0" cx="44.5" cy="682" r="2.2" id="svg_106"/><circle class="st0" cx="61.5" cy="682" r="2.2" id="svg_107"/><circle class="st0" cx="27.4" cy="682" r="2.2" id="svg_108"/><circle class="st0" cx="95.6" cy="682" r="2.2" id="svg_109"/><circle class="st0" cx="129.7" cy="682" r="2.2" id="svg_110"/><circle class="st0" cx="112.6" cy="682" r="2.2" id="svg_111"/><circle class="st0" cx="146.7" cy="682" r="2.2" id="svg_112"/><circle class="st0" cx="163.7" cy="682" r="2.2" id="svg_113"/><circle class="st0" cx="180.3" cy="682" r="2.2" id="svg_114"/><circle class="st0" cx="197.4" cy="682" r="2.2" id="svg_115"/><circle class="st0" cx="78.5" cy="722.6" r="2.2" id="svg_116"/><circle class="st0" cx="44.5" cy="722.6" r="2.2" id="svg_117"/><circle class="st0" cx="61.5" cy="722.6" r="2.2" id="svg_118"/><circle class="st0" cx="27.4" cy="722.6" r="2.2" id="svg_119"/><circle class="st0" cx="95.6" cy="722.6" r="2.2" id="svg_120"/><circle class="st0" cx="112.6" cy="722.6" r="2.2" id="svg_121"/><circle class="st0" cx="78.5" cy="905.9" r="2.2" id="svg_122"/><circle class="st0" cx="95.6" cy="905.9" r="2.2" id="svg_123"/><circle class="st0" cx="129.7" cy="905.9" r="2.2" id="svg_124"/><circle class="st0" cx="112.6" cy="905.9" r="2.2" id="svg_125"/><circle class="st0" cx="112.6" cy="928.3" r="2.2" id="svg_126"/><circle class="st0" cx="146.7" cy="905.9" r="2.2" id="svg_127"/><circle class="st0" cx="163.7" cy="905.9" r="2.2" id="svg_128"/><circle class="st0" cx="180.3" cy="905.9" r="2.2" id="svg_129"/><circle class="st0" cx="197.4" cy="905.9" r="2.2" id="svg_130"/><circle class="st0" cx="78.5" cy="946.5" r="2.2" id="svg_131"/><circle class="st0" cx="44.5" cy="946.5" r="2.2" id="svg_132"/><circle class="st0" cx="61.5" cy="946.5" r="2.2" id="svg_133"/><circle class="st0" cx="27.4" cy="946.5" r="2.2" id="svg_134"/><circle class="st0" cx="95.6" cy="946.5" r="2.2" id="svg_135"/><circle class="st0" cx="129.7" cy="946.5" r="2.2" id="svg_136"/><circle class="st0" cx="112.6" cy="946.5" r="2.2" id="svg_137"/><circle class="st0" cx="146.7" cy="946.5" r="2.2" id="svg_138"/><circle class="st0" cx="163.7" cy="946.5" r="2.2" id="svg_139"/><circle class="st0" cx="180.3" cy="946.5" r="2.2" id="svg_140"/><circle class="st0" cx="197.4" cy="946.5" r="2.2" id="svg_141"/><circle class="st0" cx="78.5" cy="1129.8" r="2.2" id="svg_142"/><circle class="st0" cx="44.5" cy="1129.8" r="2.2" id="svg_143"/><circle class="st0" cx="61.5" cy="1129.8" r="2.2" id="svg_144"/><circle class="st0" cx="27.4" cy="1129.8" r="2.2" id="svg_145"/><circle class="st0" cx="78.5" cy="1170.4" r="2.2" id="svg_146"/><circle class="st0" cx="44.5" cy="1170.4" r="2.2" id="svg_147"/><circle class="st0" cx="61.5" cy="1170.4" r="2.2" id="svg_148"/><circle class="st0" cx="27.4" cy="1170.4" r="2.2" id="svg_149"/><circle class="st0" cx="95.6" cy="1170.4" r="2.2" id="svg_150"/><circle class="st0" cx="129.7" cy="1356.9" r="2.2" id="svg_151"/><circle class="st0" cx="112.6" cy="1356.9" r="2.2" id="svg_152"/><circle class="st0" cx="146.7" cy="1356.9" r="2.2" id="svg_153"/><circle class="st0" cx="163.7" cy="1356.9" r="2.2" id="svg_154"/><circle class="st0" cx="180.3" cy="1356.9" r="2.2" id="svg_155"/><circle class="st0" cx="197.4" cy="1356.9" r="2.2" id="svg_156"/><circle class="st0" cx="27.4" cy="366.4" r="2.2" id="svg_157"/><circle class="st0" cx="13.7" cy="234.5" r="2.2" id="svg_158"/><circle class="st0" cx="13.7" cy="268.6" r="2.2" id="svg_159"/><circle class="st0" cx="13.7" cy="251.5" r="2.2" id="svg_160"/><circle class="st0" cx="13.7" cy="353.8" r="2.2" id="svg_161"/><circle class="st0" cx="13.7" cy="370.8" r="2.2" id="svg_162"/><circle class="st0" cx="13.7" cy="387.8" r="2.2" id="svg_163"/><circle class="st0" cx="13.7" cy="404.9" r="2.2" id="svg_164"/><circle class="st0" cx="13.7" cy="473" r="2.2" id="svg_165"/><circle class="st0" cx="13.7" cy="439" r="2.2" id="svg_166"/><circle class="st0" cx="13.7" cy="456" r="2.2" id="svg_167"/><circle class="st0" cx="13.7" cy="421.9" r="2.2" id="svg_168"/><circle class="st0" cx="13.7" cy="490.1" r="2.2" id="svg_169"/><circle class="st0" cx="13.7" cy="541.2" r="2.2" id="svg_170"/><circle class="st0" cx="13.7" cy="558.2" r="2.2" id="svg_171"/><circle class="st0" cx="13.7" cy="575.3" r="2.2" id="svg_172"/><circle class="st0" cx="13.7" cy="643.4" r="2.2" id="svg_173"/><circle class="st0" cx="13.7" cy="609.4" r="2.2" id="svg_174"/><circle class="st0" cx="13.7" cy="626.4" r="2.2" id="svg_175"/><circle class="st0" cx="13.7" cy="592.3" r="2.2" id="svg_176"/><circle class="st0" cx="13.7" cy="660.5" r="2.2" id="svg_177"/><circle class="st0" cx="13.7" cy="694.6" r="2.2" id="svg_178"/><circle class="st0" cx="13.7" cy="677.5" r="2.2" id="svg_179"/><circle class="st0" cx="13.7" cy="711.6" r="2.2" id="svg_180"/><circle class="st0" cx="13.7" cy="728.6" r="2.2" id="svg_181"/><circle class="st0" cx="13.7" cy="745.7" r="2.2" id="svg_182"/><circle class="st0" cx="13.7" cy="813.8" r="2.2" id="svg_183"/><circle class="st0" cx="13.7" cy="779.8" r="2.2" id="svg_184"/><circle class="st0" cx="13.7" cy="796.8" r="2.2" id="svg_185"/><circle class="st0" cx="13.7" cy="762.7" r="2.2" id="svg_186"/><circle class="st0" cx="13.7" cy="830.9" r="2.2" id="svg_187"/><circle class="st0" cx="13.7" cy="865" r="2.2" id="svg_188"/><circle class="st0" cx="13.7" cy="847.9" r="2.2" id="svg_189"/><circle class="st0" cx="13.7" cy="882" r="2.2" id="svg_190"/><circle class="st0" cx="13.7" cy="899" r="2.2" id="svg_191"/><circle class="st0" cx="13.7" cy="1001.3" r="2.2" id="svg_192"/><circle class="st0" cx="13.7" cy="1035.3" r="2.2" id="svg_193"/><circle class="st0" cx="13.7" cy="1018.3" r="2.2" id="svg_194"/><circle class="st0" cx="13.7" cy="1052.4" r="2.2" id="svg_195"/><circle class="st0" cx="13.7" cy="1069.4" r="2.2" id="svg_196"/><circle class="st0" cx="13.7" cy="1086.5" r="2.2" id="svg_197"/><circle class="st0" cx="13.7" cy="1154.6" r="2.2" id="svg_198"/><circle class="st0" cx="13.7" cy="1120.5" r="2.2" id="svg_199"/><circle class="st0" cx="13.7" cy="1137.6" r="2.2" id="svg_200"/><circle class="st0" cx="13.7" cy="1103.5" r="2.2" id="svg_201"/><circle class="st0" cx="13.7" cy="1171.7" r="2.2" id="svg_202"/><circle class="st0" cx="13.7" cy="1205.7" r="2.2" id="svg_203"/><circle class="st0" cx="13.7" cy="1188.7" r="2.2" id="svg_204"/><circle class="st0" cx="13.7" cy="1222.8" r="2.2" id="svg_205"/><circle class="st0" cx="13.7" cy="1239.8" r="2.2" id="svg_206"/><circle class="st0" cx="13.7" cy="1256.9" r="2.2" id="svg_207"/><circle class="st0" cx="13.7" cy="1290.9" r="2.2" id="svg_208"/><circle class="st0" cx="13.7" cy="1273.9" r="2.2" id="svg_209"/><g id="svg_210"><path class="st1" d="M10.4 989.1c-1.4-1-2.4-2.7-2.4-4.6 0-3.1 2.6-5.7 5.7-5.7s5.7 2.6 5.7 5.7c0 2.3-1.3 4.2-3.3 5.1l-2.4-4.6-3.3 4.1z" id="svg_211"/></g><g id="svg_212"><path class="st1" d="M90.7 1126.6c1-1.4 2.7-2.4 4.6-2.4 3.1 0 5.7 2.6 5.7 5.7s-2.6 5.7-5.7 5.7c-2.3 0-4.2-1.3-5.1-3.3l4.6-2.4-4.1-3.3z" id="svg_213"/></g><g id="svg_214"><path class="st1" d="M203.3 1174.6c-1 1.4-2.7 2.4-4.6 2.4-3.1 0-5.7-2.6-5.7-5.7s2.6-5.7 5.7-5.7c2.3 0 4.2 1.3 5.1 3.3l-4.6 2.4 4.1 3.3z" id="svg_215"/></g><g id="svg_216"><path class="st1" d="M17.1 1303.1c1.4 1 2.4 2.7 2.4 4.6 0 3.2-2.6 5.7-5.7 5.7s-5.7-2.6-5.7-5.7c0-2.3 1.3-4.2 3.3-5.1l2.4 4.6 3.3-4.1z" id="svg_217"/></g><path class="st2" d="M223.5 0H5.5C2.4 0 0 2.5 0 5.5v1372.8c0 3.1 2.5 5.5 5.5 5.5h218c3.1 0 5.5-2.5 5.5-5.5V5.5c0-3-2.5-5.5-5.5-5.5zm1.9 1374.7c0 3.1-2.5 5.5-5.5 5.5h-26.4c-3.1 0-5.5-2.5-5.5-5.5v-4.1c0-3.1-2.5-5.5-5.5-5.5s-5.5 2.5-5.5 5.5v4.1c0 3.1-2.5 5.5-5.5 5.5h-46.1c-3.1 0-5.5-2.5-5.5-5.5v-4.1c0-3.1-2.5-5.5-5.5-5.5-3.1 0-5.5 2.5-5.5 5.5v4.1c0 3.1-2.5 5.5-5.5 5.5H57c-3.1 0-5.5-2.5-5.5-5.5v-4.1c0-3.1-2.5-5.5-5.5-5.5-3.1 0-5.5 2.5-5.5 5.5v4.1c0 3.1-2.5 5.5-5.5 5.5H9.1c-3.1 0-5.5-2.5-5.5-5.5V9.1c0-3.1 2.5-5.5 5.5-5.5h9.7c3.1 0 5.5 2.5 5.5 5.5v5.1c0 3.1 2.5 5.5 5.5 5.5 3.1 0 5.5-2.5 5.5-5.5V9.1c0-3.1 2.5-5.5 5.5-5.5h144.3c3.1 0 5.5 2.5 5.5 5.5v5.1c0 3.1 2.5 5.5 5.5 5.5 3.1 0 5.5-2.5 5.5-5.5V9.1c0-3.1 2.5-5.5 5.5-5.5h12.4c3.1 0 5.5 2.5 5.5 5.5v1365.6h.4z" id="svg_218"/><g id="svg_219"><path class="st2" d="M196.1 60.7H30.4c-3.3 0-6 2.7-6 6v151c0 3.3 2.7 6 6 6h70.7v-11.3H41.7c-3.3 0-6-2.7-6-6V78c0-3.3 2.7-6 6-6h143c3.3 0 6 2.7 6 6v128.4c0 3.3-2.7 6-6 6h-59v11.3H196c3.3 0 6-2.7 6-6v-151c.1-3.3-2.6-6-5.9-6z" id="svg_220"/></g><path class="st2" d="M199.1 712.2H27.9c-1.5 0-2.7-1-2.7-2.2v-15.4c0-1.2 1.2-2.2 2.7-2.2h171.2c1.5 0 2.7 1 2.7 2.2V710c-.1 1.2-1.3 2.2-2.7 2.2z" id="svg_221"/><path class="st2" d="M199.1 1160.2H27.9c-1.5 0-2.7-1-2.7-2.2v-15.4c0-1.2 1.2-2.2 2.7-2.2h171.2c1.5 0 2.7 1 2.7 2.2v15.4c-.1 1.2-1.3 2.2-2.7 2.2z" id="svg_222"/><g id="svg_223"><path class="st2" d="M190.4 430.3c0 3.3-2.7 6-6 6H42c-3.3 0-6-2.7-6-6v-52H24.7v63.3c0 3.3 2.7 6 6 6h165c3.3 0 6-2.7 6-6V378h-11.3v52.3z" id="svg_224"/><path class="st2" d="M201.7 290.9c0-3.3-2.7-6-6-6h-165c-3.3 0-6 2.7-6 6v62.7H36v-51.4c0-3.3 2.7-6 6-6h142.4c3.3 0 6 2.7 6 6v51.4h11.3v-62.7z" id="svg_225"/></g><g id="svg_226"><path class="st2" d="M190.4 654.3c0 3.3-2.7 6-6 6H42c-3.3 0-6-2.7-6-6v-52H24.7v63.3c0 3.3 2.7 6 6 6h165c3.3 0 6-2.7 6-6V602h-11.3v52.3z" id="svg_227"/><path class="st2" d="M201.7 514.9c0-3.3-2.7-6-6-6h-165c-3.3 0-6 2.7-6 6v62.7H36v-51.4c0-3.3 2.7-6 6-6h142.4c3.3 0 6 2.7 6 6v51.4h11.3v-62.7z" id="svg_228"/></g><g id="svg_229"><path class="st2" d="M190.4 878.3c0 3.3-2.7 6-6 6H42c-3.3 0-6-2.7-6-6v-52H24.7v63.3c0 3.3 2.7 6 6 6h165c3.3 0 6-2.7 6-6V826h-11.3v52.3z" id="svg_230"/><path class="st2" d="M201.7 738.9c0-3.3-2.7-6-6-6h-165c-3.3 0-6 2.7-6 6v62.7H36v-51.4c0-3.3 2.7-6 6-6h142.4c3.3 0 6 2.7 6 6v51.4h11.3v-62.7z" id="svg_231"/></g><g id="svg_232"><path class="st2" d="M190.4 1102.2c0 3.3-2.7 6-6 6H42c-3.3 0-6-2.7-6-6v-52H24.7v63.3c0 3.3 2.7 6 6 6h165c3.3 0 6-2.7 6-6V1050h-11.3v52.2z" id="svg_233"/><path class="st2" d="M201.7 962.9c0-3.3-2.7-6-6-6h-165c-3.3 0-6 2.7-6 6v62.7H36v-51.4c0-3.3 2.7-6 6-6h142.4c3.3 0 6 2.7 6 6v51.4h11.3v-62.7z" id="svg_234"/></g><g id="svg_235"><path class="st2" d="M190.4 1327.7c0 3.3-2.7 6-6 6H42c-3.3 0-6-2.7-6-6v-57H24.7v68.3c0 3.3 2.7 6 6 6h165c3.3 0 6-2.7 6-6v-103.6h-11.3v92.3z" id="svg_236"/><path class="st2" d="M201.7 1188.3c0-3.3-2.7-6-6-6h-165c-3.3 0-6 2.7-6 6v62.7H36v-51.4c0-3.3 2.7-6 6-6h142.4c3.3 0 6 2.7 6 6v51.4h11.3v-62.7z" id="svg_237"/></g><path class="st2" d="M199.8 264.2H27.9c-1.5 0-2.7-1-2.7-2.2v-15.4c0-1.2 1.2-2.2 2.7-2.2h171.9c1.5 0 2.7 1 2.7 2.2V262c-.1 1.2-1.3 2.2-2.7 2.2z" id="svg_238"/><path class="st2" d="M102.6 488.2H26.4c-.6 0-1.2-1-1.2-2.2v-15.4c0-1.2.5-2.2 1.2-2.2h76.1c.6 0 1.2 1 1.2 2.2V486c0 1.2-.5 2.2-1.1 2.2z" id="svg_239"/><path class="st2" d="M200.9 488.2h-76.1c-.6 0-1.2-1-1.2-2.2v-15.4c0-1.2.5-2.2 1.2-2.2h76.1c.6 0 1.2 1 1.2 2.2V486c0 1.2-.6 2.2-1.2 2.2z" id="svg_240"/><path class="st2" d="M102.6 936.1H26.4c-.6 0-1.2-1-1.2-2.2v-15.4c0-1.2.5-2.2 1.2-2.2h76.1c.6 0 1.2 1 1.2 2.2v15.4c0 1.2-.5 2.2-1.1 2.2z" id="svg_241"/><path class="st2" d="M200.9 936.1h-76.1c-.6 0-1.2-1-1.2-2.2v-15.4c0-1.2.5-2.2 1.2-2.2h76.1c.6 0 1.2 1 1.2 2.2v15.4c0 1.2-.6 2.2-1.2 2.2z" id="svg_242"/><g id="svg_243"><path class="st1" d="M185.2 238c-1 1.4-2.7 2.4-4.6 2.4-3.1 0-5.7-2.6-5.7-5.7s2.6-5.7 5.7-5.7c2.3 0 4.2 1.3 5.1 3.3l-4.6 2.4 4.1 3.3z" id="svg_244"/></g><g id="svg_245"><path class="st1" d="M10.4 341.6C9 340.6 8 338.9 8 337c0-3.1 2.6-5.7 5.7-5.7s5.7 2.6 5.7 5.7c0 2.3-1.3 4.2-3.3 5.1l-2.4-4.6-3.3 4.1z" id="svg_246"/></g><g id="svg_247"><path class="st1" d="M10.4 529C9 528 8 526.3 8 524.4c0-3.1 2.6-5.7 5.7-5.7s5.7 2.6 5.7 5.7c0 2.3-1.3 4.2-3.3 5.1l-2.4-4.6-3.3 4.1z" id="svg_248"/></g><g id="svg_249"><path class="st1" d="M210.6 901.7c-1.4-1-2.4-2.7-2.4-4.6 0-3.1 2.6-5.7 5.7-5.7s5.7 2.6 5.7 5.7c0 2.3-1.3 4.2-3.3 5.1l-2.4-4.6-3.3 4.1z" id="svg_250"/></g><g id="svg_251"><path class="st1" d="M201 593.6c-1 1.4-2.7 2.4-4.6 2.4-3.1 0-5.7-2.6-5.7-5.7s2.6-5.7 5.7-5.7c2.3 0 4.2 1.3 5.1 3.3l-4.6 2.4 4.1 3.3z" id="svg_252"/></g><g id="svg_253"><path class="st1" d="M191.2 454.8c1-1.4 2.7-2.4 4.6-2.4 3.1 0 5.7 2.6 5.7 5.7s-2.6 5.7-5.7 5.7c-2.3 0-4.2-1.3-5.1-3.3l4.6-2.4-4.1-3.3z" id="svg_254"/></g><g id="svg_255"><path class="st1" d="M124.8 719.2c1-1.4 2.7-2.4 4.6-2.4 3.1 0 5.7 2.6 5.7 5.7s-2.6 5.7-5.7 5.7c-2.3 0-4.2-1.3-5.1-3.3l4.6-2.4-4.1-3.3z" id="svg_256"/></g></g></g></svg>