<svg id="Camada_1" data-name="Camada 1" xmlns="http://www.w3.org/2000/svg" viewBox="0 0 89.05 26.98"><defs><style>.cls-1{fill:#fbd176}.cls-2{fill:#fff}.cls-3{fill:#be1e2d}.cls-4{fill:#ee4036}.cls-5{fill:#f79722}.cls-6{fill:#faaf40}.cls-7{fill:#009345}.cls-8{fill:none}.cls-9{fill:#f05a28}.cls-10{fill:#d2472c}.cls-11{fill:#8bc53f}.cls-12{fill:#37b34a}</style></defs><title>logo-123milhas-textobranco</title><path class="cls-1" d="M31.37 19.62l-3.69-3.54a.93.93 0 0 0-1.28 0l-4.9 5.11-1.79 1.87a.89.89 0 0 0-.25.64.91.91 0 0 0 .28.64l.21.2.11.1.14-.1a2.2 2.2 0 0 1 2.37 0 2 2 0 0 1 .3.23 2.14 2.14 0 0 1 .25 2.8l.32.31a.91.91 0 0 0 1.28 0l3.18-3.31 3.22-3.35.3-.31a.9.9 0 0 0 0-1.28zm-9 2.66a.43.43 0 0 1-.44-.42.43.43 0 1 1 .44.42zm1.12 1.06a.43.43 0 1 1 .42-.44.43.43 0 0 1-.4.44zm1.12 1.09A.43.43 0 1 1 25 24a.43.43 0 0 1-.37.43zm1.12 1.09a.43.43 0 1 1 0-.86.43.43 0 1 1 0 .86z" transform="translate(-3.85 -1.17)"/><path class="cls-2" d="M52.44 18.42a1.47 1.47 0 0 0-.77.2 2.4 2.4 0 0 0-.57.47 4.07 4.07 0 0 1 .09.65v4.95h-2.65v-4.3a3.25 3.25 0 0 0-.26-1.5 1 1 0 0 0-.91-.48 1.41 1.41 0 0 0-.73.18 1.56 1.56 0 0 0-.49.46v5.62h-2.68v-8.2H46v1.07a2.24 2.24 0 0 1 1-1 3.12 3.12 0 0 1 1.28-.28 2.51 2.51 0 0 1 1.33.33 3.34 3.34 0 0 1 1 1.06 3 3 0 0 1 2.73-1.39 2.51 2.51 0 0 1 1.36.34 2.68 2.68 0 0 1 .9.91 4.07 4.07 0 0 1 .49 1.31 7.85 7.85 0 0 1 .15 1.56v4.24h-2.63v-4.23a3.26 3.26 0 0 0-.26-1.5 1 1 0 0 0-.91-.47zm5.66-4.34a1.48 1.48 0 0 1 .42-1.08 1.58 1.58 0 0 1 2.18 0 1.58 1.58 0 0 1 0 2.15 1.58 1.58 0 0 1-2.18 0 1.48 1.48 0 0 1-.42-1.07zm.17 10.6v-8.2h2.68v8.2zm7.33-2.51a.81.81 0 0 0 .13.5.63.63 0 0 0 .52.18 4 4 0 0 0 .57-.05l.08 1.84a4.7 4.7 0 0 1-.76.16 6.34 6.34 0 0 1-.88.06 2.78 2.78 0 0 1-1.12-.2 1.88 1.88 0 0 1-.72-.53 2.06 2.06 0 0 1-.39-.76 3.34 3.34 0 0 1-.12-.88v-9.63h2.69zm2.57 2.51V12.86h2.68v4.59a2.22 2.22 0 0 1 1-.86 2.83 2.83 0 0 1 1.15-.28 2.62 2.62 0 0 1 1.39.34 2.78 2.78 0 0 1 .93.91 4 4 0 0 1 .52 1.31 7.42 7.42 0 0 1 .16 1.58v4.24h-2.64v-4.3A2.75 2.75 0 0 0 73 18.9a1.09 1.09 0 0 0-1-.48 1.41 1.41 0 0 0-.73.18 1.55 1.55 0 0 0-.49.46v5.62zm14.33-.8a3.34 3.34 0 0 1-1 .68 3.51 3.51 0 0 1-1.45.29 2.46 2.46 0 0 1-1-.18 2 2 0 0 1-.73-.5 2.18 2.18 0 0 1-.45-.74 2.59 2.59 0 0 1-.16-.91 2.08 2.08 0 0 1 .71-1.72 3.61 3.61 0 0 1 2-.68l1-.05h1v-.27c0-.9-.5-1.34-1.49-1.34a4.78 4.78 0 0 0-1.13.13 4.55 4.55 0 0 0-1 .37l-.49-1.86a5.75 5.75 0 0 1 1.38-.54 6.81 6.81 0 0 1 1.73-.21 3.82 3.82 0 0 1 2.7.9 3.48 3.48 0 0 1 1 2.69v4.79H82.5zm-1.5-.79a2.62 2.62 0 0 0 .73-.1 2.91 2.91 0 0 0 .63-.27V21.5l-.72.07-.62.08c-.55.07-.82.32-.82.77a.62.62 0 0 0 .21.49.87.87 0 0 0 .59.18zM92.9 22a2.77 2.77 0 0 1-.26 1.22 2.44 2.44 0 0 1-.74.9 3.31 3.31 0 0 1-1.13.54 5.18 5.18 0 0 1-1.44.18 8.53 8.53 0 0 1-1.41-.12 6.44 6.44 0 0 1-1.34-.38l.42-1.85a5.37 5.37 0 0 0 1.15.33 6.68 6.68 0 0 0 1.1.11 2.27 2.27 0 0 0 .84-.14.49.49 0 0 0 .36-.48.44.44 0 0 0-.32-.43l-1-.36a8.54 8.54 0 0 1-1-.41 3.19 3.19 0 0 1-.78-.54 2.27 2.27 0 0 1-.51-.71 2.22 2.22 0 0 1-.18-.94 2.25 2.25 0 0 1 .9-2 4 4 0 0 1 2.44-.61 6.49 6.49 0 0 1 1.41.14 4.35 4.35 0 0 1 1.22.48l-.37 1.76a5.46 5.46 0 0 0-1-.32 4.24 4.24 0 0 0-1.06-.13 2.38 2.38 0 0 0-.74.09.37.37 0 0 0-.26.38.43.43 0 0 0 .31.41l.8.31.82.33a3.81 3.81 0 0 1 .85.49 2.73 2.73 0 0 1 .66.73A1.9 1.9 0 0 1 92.9 22z" transform="translate(-3.85 -1.17)"/><path class="cls-3" d="M0 9.19h3.35v14.2H0z"/><path class="cls-4" d="M0 0h3.35v9.19H0z"/><path class="cls-5" d="M24.94 4.7l-2.47 2.56a4.1 4.1 0 0 1-1 4.24l-1.76 1.77-1.17 1.17-1.14 1.2L19.77 18l1.2-1.2 2.91-2.91a7.45 7.45 0 0 0 1.06-9.19z" transform="translate(-3.85 -1.17)"/><path class="cls-6" d="M24.93 4.67a7.36 7.36 0 0 0-1-1.32 7.51 7.51 0 0 0-1.29-1 7.47 7.47 0 0 0-9.2 1 7.5 7.5 0 0 0-2.18 5.27v1.68h3.35V8.61a4.09 4.09 0 0 1 7-2.9 4.05 4.05 0 0 1 1 1.53l2.33-2.54z" transform="translate(-3.85 -1.17)"/><path class="cls-7" d="M38.86 16.2a6.68 6.68 0 0 0-2.05-3.33 6.65 6.65 0 0 1-4.41 1.68 3.33 3.33 0 0 1 0 6.67h-.5l-.07.08-3.14 3.27h3.71a6.69 6.69 0 0 0 6.47-5 6.44 6.44 0 0 0 0-3.35z" transform="translate(-3.85 -1.17)"/><path class="cls-8" d="M20.2 24.56h-.25l.11.1z" transform="translate(-3.85 -1.17)"/><path class="cls-9" d="M19.29 22.68l1.41-1.47h-3.94l3-3.23-2.34-2.34-8.48 8.92h10.21a1.48 1.48 0 0 1 .14-1.88z" transform="translate(-3.85 -1.17)"/><path class="cls-10" d="M28.38 22.06l-.74-1.7.77-.7c.16-.16.27-.63.13-.76s-.6 0-.76.16l-.67.79-1.76-.68a.14.14 0 0 0-.17.05.14.14 0 0 0 0 .18l1.26 1.21-.64.76-.59-.23a.12.12 0 0 0-.13.2l1.09 1a.12.12 0 0 0 .15 0 .12.12 0 0 0 0-.15l-.24-.56.73-.67 1.25 1.2a.14.14 0 0 0 .17 0 .14.14 0 0 0 .15-.1z" transform="translate(-3.85 -1.17)"/><path class="cls-11" d="M38.2 4.57a6.71 6.71 0 0 0-5.81-3.4H32a7.46 7.46 0 0 0-7.44 7.45v1.68h3.35V8.61a4.09 4.09 0 0 1 7-2.9 2.71 2.71 0 0 1 .8 1.54l2.6-2.55a1.44 1.44 0 0 0-.11-.13z" transform="translate(-3.85 -1.17)"/><path class="cls-12" d="M38.86 6.18a6.84 6.84 0 0 0-.47-1.26l-.1-.2-2.6 2.55a3.34 3.34 0 0 1-3.28 3.92h-1.69v3.35h1.68a6.71 6.71 0 0 0 6.47-5c0-.11.05-.22.08-.33a6.5 6.5 0 0 0 .15-1.34 6.59 6.59 0 0 0-.24-1.69z" transform="translate(-3.85 -1.17)"/></svg>