<svg id="Camada_1" xmlns="http://www.w3.org/2000/svg" viewBox="0 0 75 80"><style>.st0{fill:#fff}</style><path class="st0" d="M11.6 74.8c-.2.4-.4.7-.7.9-.3.2-.7.3-1.2.3H5.2l3.9-8.1-8-18.3h5.3c.5 0 .8.1 1.1.3.2.1.4.4.5.7l3.3 8.7c.3.8.6 1.6.8 2.4.1-.4.3-.8.4-1.2.2-.4.3-.8.4-1.2l3-8.6c.1-.3.3-.5.6-.7.3-.2.6-.3 1-.3h4.8L11.6 74.8zm20.9-25.6c1.5 0 2.9.2 4.2.7 1.3.5 2.3 1.2 3.2 2.1.9.9 1.6 2 2.1 3.2.5 1.3.7 2.7.7 4.3 0 1.6-.2 3-.7 4.3-.5 1.3-1.2 2.4-2.1 3.3-.9.9-2 1.6-3.2 2.1-1.3.5-2.6.7-4.2.7-1.5 0-2.9-.2-4.2-.7C27 68.7 26 68 25 67.1c-.9-.9-1.6-2-2.1-3.3-.5-1.3-.7-2.7-.7-4.3 0-1.6.2-3 .7-4.3.5-1.3 1.2-2.4 2.1-3.2.9-.9 2-1.6 3.3-2.1 1.3-.4 2.7-.7 4.2-.7zm0 16.3c1.4 0 2.4-.5 3.1-1.5.7-1 1-2.5 1-4.5s-.3-3.5-1-4.4c-.7-1-1.7-1.5-3.1-1.5-1.4 0-2.5.5-3.1 1.5-.7 1-1 2.4-1 4.4 0 2 .3 3.5 1 4.5s1.7 1.5 3.1 1.5zm18.7-16v12.8c0 1 .2 1.8.7 2.3.5.5 1.1.8 2 .8.7 0 1.3-.1 1.9-.4.6-.3 1.1-.7 1.7-1.1V49.5h6v20.1h-3.7c-.8 0-1.2-.3-1.5-1l-.4-1.2c-.4.4-.8.7-1.2 1-.4.3-.9.6-1.3.8-.5.2-1 .4-1.5.5-.5.1-1.1.2-1.8.2-1.1 0-2.1-.2-2.9-.6-.8-.4-1.6-.9-2.1-1.6-.6-.7-1-1.5-1.3-2.4-.3-.9-.4-2-.4-3.1V49.5h5.8zm15.7 26c0-.5.1-.9.3-1.3.2-.4.4-.8.7-1.1.3-.3.7-.5 1.1-.7.4-.2.9-.3 1.4-.3.5 0 1 .1 1.4.3.4.2.8.4 1.1.7.3.3.6.7.7 1.1.2.4.3.9.3 1.3 0 .5-.1.9-.3 1.3-.2.4-.4.8-.7 1.1-.3.3-.7.5-1.1.7-.4.2-.9.3-1.4.3-.5 0-1-.1-1.4-.3-.4-.2-.8-.4-1.1-.7-.3-.3-.6-.7-.7-1.1-.2-.4-.3-.8-.3-1.3zm6.5-26v11.4c0 1.2-.1 2.4-.2 3.6-.1 1.2-.3 2.4-.6 3.7h-4.2c-.2-1.3-.4-2.5-.6-3.7-.1-1.2-.2-2.4-.2-3.6V49.5h5.8zM19 77.7c.1 0 .1 0 .1.1l.4.4c-.2.3-.5.5-.9.7-.4.2-.8.2-1.3.2-.4 0-.8-.1-1.2-.2-.4-.2-.7-.4-.9-.6-.3-.3-.4-.6-.6-1-.1-.4-.2-.8-.2-1.2 0-.5.1-.9.2-1.2.1-.4.3-.7.6-1 .3-.3.6-.5.9-.6.5-.3.9-.3 1.3-.3s.8.1 1.1.2c.3.1.6.3.9.6l-.3.5s0 .1-.1.1h-.1c-.1 0-.1 0-.2-.1s-.2-.1-.3-.2c-.1-.1-.2-.1-.4-.2s-.4-.1-.6-.1c-.3 0-.5 0-.8.1-.2.1-.4.2-.6.4-.2.2-.3.4-.4.7-.1.3-.1.6-.1.9 0 .4.1.7.1.9.1.3.2.5.4.7.2.2.4.3.6.4.2.1.5.1.8.1h.4c.1 0 .3 0 .4-.1.1 0 .2-.1.3-.2.1-.1.2-.1.3-.2.1.2.1.2.2.2zm7.2-1.7c0 .4-.1.8-.2 1.2-.1.4-.3.7-.6 1-.3.3-.6.5-.9.6-.4.1-.8.2-1.2.2-.4 0-.9-.1-1.2-.2-.4-.2-.7-.4-.9-.6-.3-.3-.5-.6-.6-1-.1-.4-.2-.8-.2-1.2 0-.4.1-.9.2-1.2.1-.4.3-.7.6-1 .3-.3.6-.5.9-.6.4-.2.8-.2 1.2-.2.4 0 .9.1 1.2.2.4.2.7.4.9.6.3.3.5.6.6 1 .2.4.2.8.2 1.2zm-1 0c0-.3 0-.7-.1-.9-.1-.3-.2-.5-.4-.7-.2-.2-.4-.3-.6-.4-.2-.1-.5-.2-.8-.2-.3 0-.6.1-.8.2-.2.1-.5.3-.6.4-.2.2-.3.4-.4.7-.1.3-.1.6-.1.9 0 .3 0 .7.1.9.1.3.2.5.4.7.2.2.4.3.6.4.2.1.5.2.8.2.3 0 .6-.1.8-.2.2-.1.5-.2.6-.4.2-.2.3-.4.4-.7.1-.2.1-.5.1-.9zm5.6-2c0 .1-.1.1-.1.1h-.1c-.1 0-.1 0-.2-.1-.1 0-.1-.1-.2-.1-.1-.1-.2-.1-.3-.1-.1 0-.3-.1-.5-.1s-.3 0-.4.1c-.1 0-.2.1-.3.2-.1.1-.1.2-.2.3 0 .1-.1.2-.1.3 0 .2 0 .3.1.4l.3.3c.1.1.3.1.4.2.2.1.3.1.5.2s.3.1.5.2.3.2.5.3c.1.1.2.3.3.4.1.2.1.4.1.6 0 .3 0 .5-.1.7-.1.2-.2.4-.4.6-.2.2-.4.3-.6.4-.3.1-.5.1-.9.1-.2 0-.4 0-.6-.1-.2 0-.4-.1-.5-.2-.2-.1-.3-.1-.5-.2-.1-.1-.3-.2-.4-.3l.3-.5.1-.1h.1c.1 0 .1 0 .2.1s.2.1.3.2c.1.1.2.1.4.2s.3.1.6.1.6-.1.8-.3c.2-.2.3-.4.3-.7 0-.2 0-.3-.1-.4l-.3-.3c-.1-.1-.3-.1-.4-.2-.2 0-.3-.1-.5-.2s-.3-.1-.5-.2-.3-.2-.4-.3c-.1-.1-.2-.3-.3-.5-.1-.2-.1-.4-.1-.7 0-.2 0-.4.1-.6.1-.2.2-.4.4-.5.2-.2.4-.3.6-.4.2-.1.5-.1.8-.1.3 0 .7.1.9.2.3.1.5.3.7.5l-.3.5zm4.9 2.9c0 .1.1.2.1.3 0-.1.1-.2.1-.3 0-.1.1-.2.1-.3l1.9-3.5c0-.1.1-.1.1-.1h1v6h-.9v-4.5L36.2 78c-.1.1-.2.2-.3.2h-.1c-.2 0-.3-.1-.3-.2l-2-3.6V79h-.9v-6h.9l.1.1 1.9 3.5c.1.1.1.2.2.3zm8.8-3.9v.8h-2.8v1.8h2.2v.8h-2.2v1.8h2.8v.8h-3.7v-6h3.7zm5.5 0v.8h-1.9V79h-1v-5.2h-1.9V73H50zm2.2 6h-1v-6h1v6zm6-1.3c.1 0 .1 0 .1.1l.4.4c-.2.3-.5.5-.9.7-.4.2-.8.2-1.3.2-.4 0-.8-.1-1.2-.2-.4-.2-.7-.4-.9-.6-.3-.3-.4-.6-.6-1-.1-.4-.2-.8-.2-1.2 0-.5.1-.9.2-1.2.1-.4.3-.7.6-1 .3-.3.6-.5.9-.6.4-.1.8-.2 1.2-.2.4 0 .8.1 1.1.2.3.1.6.3.9.6l-.3.5s0 .1-.1.1H58c-.1 0-.1 0-.2-.1s-.2-.1-.3-.2c-.1-.1-.2-.1-.4-.2s-.4-.1-.6-.1c-.3 0-.5 0-.8.1-.2.1-.4.2-.6.4-.2.2-.3.4-.4.7-.1.3-.1.6-.1.9 0 .4 0 .7.1.9.1.3.2.5.4.7.2.2.4.3.6.4.2.1.5.1.8.1h.4c.1 0 .3 0 .4-.1.1 0 .2-.1.3-.2.1-.1.2-.1.3-.2.2.1.2.1.3.1zM63 74c0 .1-.1.1-.1.1h-.1c-.1 0-.1 0-.2-.1-.1 0-.1-.1-.2-.1-.1-.1-.2-.1-.3-.1-.1 0-.3-.1-.5-.1s-.3 0-.4.1c-.1 0-.2.1-.3.2-.1.1-.2.2-.2.3 0 .1-.1.2-.1.3 0 .2 0 .3.1.4l.3.3c.1.1.3.1.5.2s.3.1.5.2.3.1.5.2.3.2.4.3c.1.1.2.3.3.4.1.2.1.4.1.6 0 .3 0 .5-.1.7-.1.2-.2.4-.4.6-.2.2-.4.3-.6.4-.3.1-.5.1-.9.1-.2 0-.4 0-.6-.1-.2 0-.4-.1-.5-.2-.2-.1-.3-.1-.5-.2-.1-.1-.3-.2-.4-.3l.3-.5.1-.1h.1c.1 0 .1 0 .2.1s.2.1.3.2c.1.1.2.1.4.2s.3.1.6.1c.4 0 .6-.1.8-.3.2-.2.3-.4.3-.7 0-.2 0-.3-.1-.4l-.3-.3c-.1-.1-.3-.1-.4-.2-.2 0-.3-.1-.5-.2s-.3-.1-.5-.2-.3-.2-.4-.3c-.1-.1-.2-.3-.3-.5-.1-.2-.1-.4-.1-.7 0-.2 0-.4.1-.6.1-.2.2-.4.4-.5.2-.2.4-.3.6-.4.1.1.4.1.7.1.3 0 .7.1.9.2.3.1.5.3.7.5l-.2.3zM20.8 11.3c-3.5 0-6.7 2-9.3 4.8V3.4c0-.9-.7-1.7-1.7-1.7H2.7c-.9 0-1.7.7-1.7 1.7v40.8c0 .9.7 1.7 1.7 1.7h7.2c.9 0 1.7-.7 1.7-1.7v-2.7c2.6 2.6 5.8 4.4 9.3 4.4 8.5 0 15.3-7.8 15.3-17.3 0-9.6-6.9-17.3-15.4-17.3zm-1.6 25.8c-4 0-7.3-3.8-7.3-8.5s3.3-8.5 7.3-8.5 7.3 3.8 7.3 8.5-3.3 8.5-7.3 8.5z"/><path class="st0" d="M64.9.9L57 1c-1.1 0-1.8.1-2.1 1l-5.4 16.1-8.6-15c-.5-.8-1.2-.8-2.4-.6l-6 1.3c-1 .2-1.1 1.5-.6 2.3l14 23.2L41.2 43c-.3.9 0 2.1 1 2.1H49c.9.1 1.7-.2 2-1.1L65.8 3c.4-.8.2-2.1-.9-2.1z"/></svg>