<svg xmlns="http://www.w3.org/2000/svg" xmlns:xlink="http://www.w3.org/1999/xlink" preserveAspectRatio="none" width="209" height="40" viewBox="0 0 209 40"><defs><path fill="#1F307C" d="M23.8 17.9q-2.15-2.2-2.15-5.2V7.3q0-3.05-2.1-5.2-2.2-2.1-5.2-2.1T9.2 2.2Q7.1 4.3 7.1 7.3v5.4q0 3.05-2.15 5.2Q2.85 19.95 0 20q2.85.05 4.95 2.1 2.15 2.15 2.15 5.2v5.4q0 3 2.1 5.1 2.15 2.2 5.15 2.2 3 0 5.2-2.1 2.1-2.15 2.1-5.2v-5.4q0-3 2.15-5.2 2.05-2.05 4.95-2.1-2.9-.05-4.95-2.1m86.35-15.8q-2.2-2.1-5.2-2.1T99.8 2.2q-2.1 2.1-2.1 5.1v5.4q0 3.05-2.15 5.2-2.1 2.05-4.95 2.1 2.85.05 4.95 2.1 2.15 2.15 2.15 5.2v5.4q0 3 2.1 5.1 2.15 2.2 5.15 2.2 3 0 5.2-2.1 2.1-2.15 2.1-5.2v-5.4q0-3 2.15-5.2 2.05-2.05 4.95-2.1-2.9-.05-4.95-2.1-2.15-2.2-2.15-5.2V7.3q0-3.05-2.1-5.2m99.4 17.9q-3-.05-5.05-2.1-2.05-2.15-2.05-5.2V7.3q0-3.05-2.1-5.2-2.2-2.1-5.15-2.1-3 0-5.1 2.2-2.2 2.1-2.2 5.1v5.4q0 3.05-2.1 5.2-2.15 2.05-5 2.1 2.85.05 5 2.1 2.1 2.15 2.1 5.2v5.4q0 3 2.2 5.1 2.1 2.2 5.1 2.2 2.95 0 5.15-2.1 2.1-2.15 2.1-5.2v-5.4q0-3.05 2.05-5.2 2.05-2.05 5.05-2.1z" id="a"/></defs><use xlink:href="#a"/></svg>