<svg xmlns="http://www.w3.org/2000/svg" viewBox="0 0 467.68 814.12"><defs><style>.cls-1{fill:#293379}.cls-2{fill:#ffe006}.cls-3{fill:#dededf}</style></defs><title>Como-funciona</title><g id="Camada_1" data-name="Camada 1"><rect class="cls-1" x="257.81" y="240.31" width="63.39" height="19.91" rx="2.23" ry="2.23"/><path class="cls-1" d="M1360.65 178H903c-1.38 0-3.63 2.25-3.63 5v804.08a5 5 0 0 0 5 5H1362a5 5 0 0 0 5-5V183c.08-2.75-2.17-5-6.35-5zM1013.3 988.89H907.66a5 5 0 0 1-5-5V186.25a5 5 0 0 1 5-5h105.55a5 5 0 0 1 5 5v28.52a5 5 0 0 0 5 5 5 5 0 0 0 5-5v-28.52a5 5 0 0 1 5-5H1232a5 5 0 0 1 5 5v28.52a5 5 0 0 0 10.07 0v-28.52a5 5 0 0 1 5-5h106.65a5 5 0 0 1 5 5v797.61a5 5 0 0 1-5 5H1013.3z" transform="translate(-899.4 -177.99)"/><rect class="cls-1" x="22.65" y="21.9" width="81.84" height="19.91" rx="2.23" ry="2.23"/><rect class="cls-1" x="22.65" y="58.36" width="7.93" height="62.18" rx="2.23" ry="2.23"/><rect class="cls-1" x="50.32" y="88.24" width="53.93" height="32.3" rx="2.23" ry="2.23"/><rect class="cls-1" x="22.65" y="240.31" width="81.84" height="19.91" rx="2.23" ry="2.23"/><rect class="cls-1" x="120.34" y="240.31" width="148.39" height="19.91" rx="2.23" ry="2.23"/><path class="cls-1" d="M950.22 399.52V389a2.24 2.24 0 0 1 2.23-2.23h63.66a2.24 2.24 0 0 0 2.23-2.23v-42.73a2.24 2.24 0 0 1 2.23-2.23h5.6a2.24 2.24 0 0 1 2.23 2.23V398a3.69 3.69 0 0 1-3.31 3.78h-72.64a2.24 2.24 0 0 1-2.23-2.26zm0-160.93v10.49a2.24 2.24 0 0 0 2.23 2.23h63.66a2.24 2.24 0 0 1 2.23 2.23v42.76a2.24 2.24 0 0 0 2.23 2.23h5.6a2.24 2.24 0 0 0 2.23-2.23v-56.16a3.69 3.69 0 0 0-3.31-3.78h-72.64a2.24 2.24 0 0 0-2.23 2.23z" transform="translate(-899.4 -177.99)"/><rect class="cls-1" x="22.65" y="161.58" width="7.93" height="62.18" rx="2.23" ry="2.23"/><path class="cls-1" d="M1128.37 421a2.89 2.89 0 0 1 2.78-3h4.32a2.89 2.89 0 0 1 2.78 3v101a2.89 2.89 0 0 1-2.78 3h-4.32a2.89 2.89 0 0 1-2.78-3zm0 126.91a2.89 2.89 0 0 1 2.78-3h4.32a2.89 2.89 0 0 1 2.78 3v160a2.89 2.89 0 0 1-2.78 3h-4.32a2.89 2.89 0 0 1-2.78-3zm0 185.82a2.73 2.73 0 0 1 2.78-2.65h4.32a2.73 2.73 0 0 1 2.78 2.65v100.93a2.73 2.73 0 0 1-2.78 2.65h-4.32a2.73 2.73 0 0 1-2.78-2.65z" transform="translate(-899.4 -177.99)"/><rect class="cls-1" x="50.32" y="161.58" width="53.93" height="32.3" rx="2.23" ry="2.23"/><path class="cls-1" d="M1266.73 889.17v-10.49a2.24 2.24 0 0 1 2.23-2.23h63.66a2.24 2.24 0 0 0 2.23-2.23v-42.76a2.24 2.24 0 0 1 2.23-2.23h5.6a2.24 2.24 0 0 1 2.23 2.23v56.17a3.69 3.69 0 0 1-3.31 3.78H1269a2.24 2.24 0 0 1-2.27-2.24z" transform="translate(-899.4 -177.99)"/><rect class="cls-1" x="366.83" y="650.23" width="53.93" height="32.3" rx="2.23" ry="2.23"/><path class="cls-1" d="M1266.73 909.72v10.49a2.24 2.24 0 0 0 2.23 2.23h63.66a2.24 2.24 0 0 1 2.23 2.23v42.76a2.24 2.24 0 0 0 2.23 2.23h5.6a2.24 2.24 0 0 0 2.23-2.23v-56.16a3.69 3.69 0 0 0-3.31-3.78H1269a2.24 2.24 0 0 0-2.27 2.23z" transform="translate(-899.4 -177.99)"/><rect class="cls-1" x="366.83" y="760.37" width="53.93" height="32.3" rx="2.23" ry="2.23"/><path class="cls-1" d="M1001.2 889.17v-10.49a2.24 2.24 0 0 0-2.23-2.23h-63.66a2.24 2.24 0 0 1-2.23-2.23v-42.76a2.24 2.24 0 0 0-2.23-2.23h-5.6a2.24 2.24 0 0 0-2.23 2.23v56.17a3.69 3.69 0 0 0 3.31 3.78H999a2.24 2.24 0 0 0 2.2-2.24z" transform="translate(-899.4 -177.99)"/><rect class="cls-1" x="48.36" y="650.23" width="53.93" height="32.3" rx="2.23" ry="2.23"/><path class="cls-1" d="M1001.2 909.72v10.49a2.24 2.24 0 0 1-2.23 2.23h-63.66a2.24 2.24 0 0 0-2.23 2.23v42.76a2.24 2.24 0 0 1-2.23 2.23h-5.6a2.24 2.24 0 0 1-2.23-2.23v-56.16a3.69 3.69 0 0 1 3.31-3.78H999a2.24 2.24 0 0 1 2.2 2.23z" transform="translate(-899.4 -177.99)"/><rect class="cls-1" x="48.36" y="760.37" width="53.93" height="32.3" rx="2.23" ry="2.23"/><rect class="cls-1" x="22.65" y="138.5" width="130.87" height="5.12" rx="2.23" ry="2.23"/><rect class="cls-1" x="362.27" y="21.9" width="81.84" height="19.91" rx="2.23" ry="2.23"/><rect class="cls-1" x="436.18" y="58.36" width="7.93" height="62.18" rx="2.23" ry="2.23"/><rect class="cls-1" x="362.51" y="88.24" width="53.93" height="32.3" rx="2.23" ry="2.23"/><path class="cls-1" d="M1241.47 438.21h99.19c1.57 0 2.86-1 2.86-2.23v-15.45c0-1.23-1.29-2.23-2.86-2.23h-99.19c-1.57 0-2.86 1-2.86 2.23V436c0 1.21 1.28 2.21 2.86 2.21zm73.88-38.69V389a2.24 2.24 0 0 0-2.23-2.23h-63.66a2.24 2.24 0 0 1-2.23-2.23v-42.73a2.24 2.24 0 0 0-2.23-2.23h-5.6a2.24 2.24 0 0 0-2.23 2.23V398a3.69 3.69 0 0 0 3.31 3.78h72.64a2.24 2.24 0 0 0 2.23-2.26zm0-160.93v10.49a2.24 2.24 0 0 1-2.23 2.23h-63.66a2.24 2.24 0 0 0-2.23 2.23v42.76a2.24 2.24 0 0 1-2.23 2.23h-5.6a2.24 2.24 0 0 1-2.23-2.23v-56.16a3.69 3.69 0 0 1 3.31-3.78h72.64a2.24 2.24 0 0 1 2.23 2.23z" transform="translate(-899.4 -177.99)"/><rect class="cls-1" x="436.18" y="161.58" width="7.93" height="62.18" rx="2.23" ry="2.23"/><rect class="cls-1" x="362.51" y="161.58" width="53.93" height="32.3" rx="2.23" ry="2.23"/><rect class="cls-1" x="313.25" y="138.5" width="130.87" height="5.12" rx="2.23" ry="2.23"/><path class="cls-2" d="M1127.89 406.68a5.7 5.7 0 1 1-.54 5.8L1132 410z" transform="translate(-899.4 -177.99)"/><path class="cls-1" d="M1216.82 236.36h-168.08a6.1 6.1 0 0 0-6.08 6.08v153.23a6.1 6.1 0 0 0 6.08 6.08h71.71v-11.49h-60.22a6.1 6.1 0 0 1-6.08-6.08V253.93a6.1 6.1 0 0 1 6.08-6.08h145.09a6.1 6.1 0 0 1 6.08 6.08v130.24a6.1 6.1 0 0 1-6.08 6.08h-59.82v11.49h71.32a6.1 6.1 0 0 0 6.08-6.08V242.44a6.1 6.1 0 0 0-6.08-6.08zM934.08 475.61v50.91h-11.49v-62.4a6.1 6.1 0 0 1 6.08-6.08h74.71v11.49h-63.21a6.1 6.1 0 0 0-6.09 6.08zm0 67.34v62.91a6.1 6.1 0 0 0 6.08 6.08h151.09a6.1 6.1 0 0 0 6.08-6.08V475.61a6.1 6.1 0 0 0-6.08-6.08h-72.82V458h84.32a6.1 6.1 0 0 1 6.08 6.08v153.27a6.1 6.1 0 0 1-6.08 6.08H928.67a6.1 6.1 0 0 1-6.08-6.08v-74.4zm236.09 62.9v-62.9h-11.49v74.4a6.1 6.1 0 0 0 6.08 6.08h85.71v-11.49h-74.21a6.1 6.1 0 0 1-6.09-6.09zM1097.76 791v-60.92h11.49v72.4a6.1 6.1 0 0 1-6.08 6.08h-81.71v-11.49h70.21a6.1 6.1 0 0 0 6.09-6.07zm0-77.35v-52.91a6.1 6.1 0 0 0-6.08-6.08H940.59a6.1 6.1 0 0 0-6.08 6.08V791a6.1 6.1 0 0 0 6.08 6.08h63.82v11.49H929.1a6.1 6.1 0 0 1-6.08-6.08V649.25a6.1 6.1 0 0 1 6.08-6.08h174.07a6.1 6.1 0 0 1 6.08 6.08v64.4zm72.41-52.91v52.91h-11.49v-64.4a6.1 6.1 0 0 1 6.08-6.08h77.71v11.49h-66.21a6.1 6.1 0 0 0-6.09 6.08zm0 69.34V791a6.1 6.1 0 0 0 6.08 6.08h151.09a6.1 6.1 0 0 0 6.08-6.08V660.74a6.1 6.1 0 0 0-6.08-6.08h-67.82v-11.49h79.32a6.1 6.1 0 0 1 6.08 6.08v153.23a6.1 6.1 0 0 1-6.08 6.08h-174.08a6.1 6.1 0 0 1-6.08-6.08v-72.4zm-136.6 115.98V892h-11.49v-57.4a6.1 6.1 0 0 1 6.08-6.08h116.71V840h-105.22a6.1 6.1 0 0 0-6.08 6.06z" transform="translate(-899.4 -177.99)"/><path class="cls-1" d="M1033.57 907.4v45.9a6.1 6.1 0 0 0 6.08 6.08h191.09a6.1 6.1 0 0 0 6.08-6.08V846.06a6.1 6.1 0 0 0-6.08-6.08h-88.82v-11.5h100.32a6.1 6.1 0 0 1 6.08 6.08V964.8a6.1 6.1 0 0 1-6.08 6.08h-214.08a6.1 6.1 0 0 1-6.08-6.08v-57.4zm299.85-431.79v51.91h11.49v-63.4a6.1 6.1 0 0 0-6.08-6.08h-174.07a6.1 6.1 0 0 0-6.08 6.08v62.4h11.49v-50.91a6.1 6.1 0 0 1 6.08-6.08h151.09a6.1 6.1 0 0 1 6.08 6.08zm0 66.34v63.91a6.1 6.1 0 0 1-6.08 6.08h-79.82v11.49h91.32a6.1 6.1 0 0 0 6.08-6.08v-75.4z" transform="translate(-899.4 -177.99)"/><path class="cls-1" d="M1130.6 790.56l5.38-.11a2.24 2.24 0 0 1 2.23 2.23v33.66a2.24 2.24 0 0 0 2.23 2.23l47.87.11a2.24 2.24 0 0 1 2.23 2.23v5.6a2.24 2.24 0 0 1-2.23 2.23h-56.17a3.69 3.69 0 0 1-3.78-3.31v-42.64a2.24 2.24 0 0 1 2.24-2.23z" transform="translate(-899.4 -177.99)"/><path class="cls-1" d="M1135.12 790.3h-4.49a2.24 2.24 0 0 0-2.23 2.23v33.66a2.24 2.24 0 0 1-2.23 2.23h-47.76a2.24 2.24 0 0 0-2.23 2.23v5.6a2.24 2.24 0 0 0 2.23 2.23h55.17a3.69 3.69 0 0 0 3.78-3.31v-42.64a2.24 2.24 0 0 0-2.24-2.23z" transform="translate(-899.4 -177.99)"/></g><g id="Camada_3" data-name="Camada 3"><circle class="cls-3" cx="330.63" cy="64.09" r="2.18"/><circle class="cls-3" cx="330.63" cy="128.87" r="2.18"/><circle class="cls-3" cx="330.63" cy="96.27" r="2.18"/><circle class="cls-3" cx="330.63" cy="112.57" r="2.18"/><circle class="cls-3" cx="330.63" cy="79.97" r="2.18"/><circle class="cls-3" cx="124.11" cy="269.91" r="2.18"/><circle class="cls-3" cx="330.63" cy="257.31" r="2.18"/><circle class="cls-3" cx="330.63" cy="244.91" r="2.18"/><circle class="cls-3" cx="205.78" cy="232.49" r="2.18"/><circle class="cls-3" cx="219.11" cy="232.49" r="2.18"/><circle class="cls-3" cx="302.13" cy="232.49" r="2.18"/><circle class="cls-3" cx="315.73" cy="232.49" r="2.18"/><circle class="cls-3" cx="330.63" cy="232.49" r="2.18"/><circle class="cls-3" cx="330.63" cy="153.25" r="2.18"/><circle class="cls-3" cx="330.63" cy="185.85" r="2.18"/><circle class="cls-3" cx="330.63" cy="168.64" r="2.18"/><circle class="cls-3" cx="330.63" cy="202.09" r="2.18"/><circle class="cls-3" cx="330.63" cy="217.38" r="2.18"/><circle class="cls-3" cx="205.78" cy="269.68" r="2.18"/><circle class="cls-3" cx="219.11" cy="269.68" r="2.18"/><circle class="cls-3" cx="247.72" cy="269.68" r="2.18"/><circle class="cls-3" cx="261.32" cy="269.68" r="2.18"/><circle class="cls-3" cx="274.93" cy="269.68" r="2.18"/><circle class="cls-3" cx="288.53" cy="269.68" r="2.18"/><circle class="cls-3" cx="302.13" cy="269.68" r="2.18"/><circle class="cls-3" cx="315.73" cy="269.68" r="2.18"/><circle class="cls-3" cx="330.63" cy="269.68" r="2.18"/><circle class="cls-3" cx="111.55" cy="24.81" r="2.18"/><circle class="cls-3" cx="111.55" cy="37.21" r="2.18"/><circle class="cls-3" cx="13.41" cy="27" r="2.18"/><circle class="cls-3" cx="13.41" cy="41.55" r="2.18"/><circle class="cls-3" cx="136.13" cy="64.09" r="2.18"/><circle class="cls-3" cx="123.51" cy="49.64" r="2.18"/><circle class="cls-3" cx="111.55" cy="49.64" r="2.18"/><circle class="cls-3" cx="54.2" cy="49.64" r="2.18"/><circle class="cls-3" cx="40.6" cy="49.64" r="2.18"/><circle class="cls-3" cx="27" cy="49.64" r="2.18"/><circle class="cls-3" cx="13.41" cy="56.1" r="2.18"/><circle class="cls-3" cx="136.13" cy="128.87" r="2.18"/><circle class="cls-3" cx="123.72" cy="128.87" r="2.18"/><circle class="cls-3" cx="111.55" cy="128.87" r="2.18"/><circle class="cls-3" cx="96.87" cy="128.87" r="2.18"/><circle class="cls-3" cx="83.7" cy="128.87" r="2.18"/><circle class="cls-3" cx="83.7" cy="128.87" r="2.18"/><circle class="cls-3" cx="68.54" cy="128.87" r="2.18"/><circle class="cls-3" cx="96.87" cy="153.25" r="2.18"/><circle class="cls-3" cx="83.7" cy="153.25" r="2.18"/><circle class="cls-3" cx="83.7" cy="153.25" r="2.18"/><circle class="cls-3" cx="68.54" cy="153.25" r="2.18"/><circle class="cls-3" cx="96.87" cy="202.09" r="2.18"/><circle class="cls-3" cx="83.7" cy="202.09" r="2.18"/><circle class="cls-3" cx="83.7" cy="202.09" r="2.18"/><circle class="cls-3" cx="68.54" cy="202.09" r="2.18"/><circle class="cls-3" cx="96.87" cy="232.49" r="2.18"/><circle class="cls-3" cx="83.7" cy="232.49" r="2.18"/><circle class="cls-3" cx="83.7" cy="232.49" r="2.18"/><circle class="cls-3" cx="68.54" cy="232.49" r="2.18"/><circle class="cls-3" cx="96.87" cy="269.68" r="2.18"/><circle class="cls-3" cx="83.7" cy="269.68" r="2.18"/><circle class="cls-3" cx="83.7" cy="269.68" r="2.18"/><circle class="cls-3" cx="68.54" cy="269.68" r="2.18"/><circle class="cls-3" cx="96.87" cy="79.85" r="2.18"/><circle class="cls-3" cx="83.7" cy="79.85" r="2.18"/><circle class="cls-3" cx="83.7" cy="79.85" r="2.18"/><circle class="cls-3" cx="68.54" cy="79.85" r="2.18"/><circle class="cls-3" cx="96.87" cy="50.09" r="2.18"/><circle class="cls-3" cx="83.7" cy="50.09" r="2.18"/><circle class="cls-3" cx="83.7" cy="50.09" r="2.18"/><circle class="cls-3" cx="68.54" cy="50.09" r="2.18"/><circle class="cls-3" cx="96.87" cy="12.44" r="2.18"/><circle class="cls-3" cx="83.7" cy="12.44" r="2.18"/><circle class="cls-3" cx="83.7" cy="12.44" r="2.18"/><circle class="cls-3" cx="68.54" cy="12.44" r="2.18"/><circle class="cls-3" cx="53.88" cy="128.87" r="2.18"/><circle class="cls-3" cx="40.1" cy="128.87" r="2.18"/><circle class="cls-3" cx="27.03" cy="128.87" r="2.18"/><circle class="cls-3" cx="13.41" cy="128.87" r="2.18"/><circle class="cls-3" cx="40.1" cy="64.74" r="2.18"/><circle class="cls-3" cx="13.41" cy="70.66" r="2.18"/><circle class="cls-3" cx="13.41" cy="99.77" r="2.18"/><circle class="cls-3" cx="13.41" cy="114.32" r="2.18"/><circle class="cls-3" cx="40.1" cy="96.27" r="2.18"/><circle class="cls-3" cx="40.1" cy="112.57" r="2.18"/><circle class="cls-3" cx="111.55" cy="96.27" r="2.18"/><circle class="cls-3" cx="111.55" cy="112.57" r="2.18"/><circle class="cls-3" cx="136.13" cy="96.27" r="2.18"/><circle class="cls-3" cx="136.13" cy="112.57" r="2.18"/><circle class="cls-3" cx="136.13" cy="79.97" r="2.18"/><circle class="cls-3" cx="111.55" cy="79.97" r="2.18"/><circle class="cls-3" cx="53.88" cy="79.97" r="2.18"/><circle class="cls-3" cx="40.1" cy="79.97" r="2.18"/><circle class="cls-3" cx="13.41" cy="85.21" r="2.18"/><circle class="cls-3" cx="111.55" cy="12.44" r="2.18"/><circle class="cls-3" cx="54.2" cy="12.44" r="2.18"/><circle class="cls-3" cx="40.6" cy="12.44" r="2.18"/><circle class="cls-3" cx="27" cy="12.44" r="2.18"/><circle class="cls-3" cx="13.41" cy="12.44" r="2.18"/><circle class="cls-3" cx="111.55" cy="257.31" r="2.18"/><circle class="cls-3" cx="111.55" cy="244.91" r="2.18"/><circle class="cls-3" cx="13.41" cy="255.12" r="2.18"/><circle class="cls-3" cx="13.41" cy="240.57" r="2.18"/><circle class="cls-3" cx="191.62" cy="232.49" r="2.18"/><circle class="cls-3" cx="178.02" cy="232.49" r="2.18"/><circle class="cls-3" cx="164.42" cy="232.49" r="2.18"/><circle class="cls-3" cx="150.82" cy="232.49" r="2.18"/><circle class="cls-3" cx="136.13" cy="232.49" r="2.18"/><circle class="cls-3" cx="123.51" cy="232.49" r="2.18"/><circle class="cls-3" cx="111.55" cy="232.49" r="2.18"/><circle class="cls-3" cx="54.2" cy="232.49" r="2.18"/><circle class="cls-3" cx="40.6" cy="232.49" r="2.18"/><circle class="cls-3" cx="27" cy="232.49" r="2.18"/><circle class="cls-3" cx="13.41" cy="226.02" r="2.18"/><circle class="cls-3" cx="136.13" cy="153.25" r="2.18"/><circle class="cls-3" cx="123.51" cy="153.25" r="2.18"/><circle class="cls-3" cx="111.55" cy="153.25" r="2.18"/><circle class="cls-3" cx="53.88" cy="153.25" r="2.18"/><circle class="cls-3" cx="40.1" cy="153.25" r="2.18"/><circle class="cls-3" cx="27.03" cy="153.25" r="2.18"/><circle class="cls-3" cx="13.41" cy="153.25" r="2.18"/><circle class="cls-3" cx="13.41" cy="141.06" r="2.18"/><circle class="cls-3" cx="40.1" cy="217.38" r="2.18"/><circle class="cls-3" cx="13.41" cy="211.46" r="2.18"/><circle class="cls-3" cx="13.41" cy="182.35" r="2.18"/><circle class="cls-3" cx="13.41" cy="168.64" r="2.18"/><circle class="cls-3" cx="40.1" cy="185.85" r="2.18"/><circle class="cls-3" cx="40.1" cy="168.64" r="2.18"/><circle class="cls-3" cx="111.55" cy="185.85" r="2.18"/><circle class="cls-3" cx="111.55" cy="168.64" r="2.18"/><circle class="cls-3" cx="136.13" cy="185.85" r="2.18"/><circle class="cls-3" cx="136.13" cy="168.64" r="2.18"/><circle class="cls-3" cx="136.13" cy="202.09" r="2.18"/><circle class="cls-3" cx="136.13" cy="217.38" r="2.18"/><circle class="cls-3" cx="111.55" cy="202.09" r="2.18"/><circle class="cls-3" cx="53.88" cy="202.09" r="2.18"/><circle class="cls-3" cx="40.1" cy="202.09" r="2.18"/><circle class="cls-3" cx="13.41" cy="196.91" r="2.18"/><circle class="cls-3" cx="218.82" cy="269.68" r="2.18"/><circle class="cls-3" cx="191.62" cy="269.68" r="2.18"/><circle class="cls-3" cx="178.02" cy="269.68" r="2.18"/><circle class="cls-3" cx="164.42" cy="269.68" r="2.18"/><circle class="cls-3" cx="150.82" cy="269.68" r="2.18"/><circle class="cls-3" cx="136.13" cy="269.68" r="2.18"/><circle class="cls-3" cx="111.55" cy="269.68" r="2.18"/><circle class="cls-3" cx="111.55" cy="285.51" r="2.18"/><circle class="cls-3" cx="54.2" cy="269.68" r="2.18"/><circle class="cls-3" cx="40.6" cy="269.68" r="2.18"/><circle class="cls-3" cx="27" cy="269.68" r="2.18"/><circle class="cls-3" cx="13.41" cy="269.68" r="2.18"/><circle class="cls-3" cx="124.11" cy="455.33" r="2.18"/><circle class="cls-3" cx="205.78" cy="455.1" r="2.18"/><circle class="cls-3" cx="219.11" cy="455.1" r="2.18"/><circle class="cls-3" cx="96.87" cy="455.1" r="2.18"/><circle class="cls-3" cx="83.7" cy="455.1" r="2.18"/><circle class="cls-3" cx="83.7" cy="455.1" r="2.18"/><circle class="cls-3" cx="68.54" cy="455.1" r="2.18"/><circle class="cls-3" cx="218.82" cy="455.1" r="2.18"/><circle class="cls-3" cx="191.62" cy="455.1" r="2.18"/><circle class="cls-3" cx="178.02" cy="455.1" r="2.18"/><circle class="cls-3" cx="164.42" cy="455.1" r="2.18"/><circle class="cls-3" cx="150.82" cy="455.1" r="2.18"/><circle class="cls-3" cx="136.13" cy="455.1" r="2.18"/><circle class="cls-3" cx="111.55" cy="455.1" r="2.18"/><circle class="cls-3" cx="54.2" cy="455.1" r="2.18"/><circle class="cls-3" cx="40.6" cy="455.1" r="2.18"/><circle class="cls-3" cx="27" cy="455.1" r="2.18"/><circle class="cls-3" cx="359.75" cy="455.33" r="2.18"/><circle class="cls-3" cx="351.75" cy="471.11" r="2.18"/><circle class="cls-3" cx="441.42" cy="455.1" r="2.18"/><circle class="cls-3" cx="332.51" cy="455.1" r="2.18"/><circle class="cls-3" cx="319.34" cy="455.1" r="2.18"/><circle class="cls-3" cx="319.34" cy="455.1" r="2.18"/><circle class="cls-3" cx="304.18" cy="455.1" r="2.18"/><circle class="cls-3" cx="427.26" cy="455.1" r="2.18"/><circle class="cls-3" cx="413.66" cy="455.1" r="2.18"/><circle class="cls-3" cx="400.06" cy="455.1" r="2.18"/><circle class="cls-3" cx="386.46" cy="455.1" r="2.18"/><circle class="cls-3" cx="371.77" cy="455.1" r="2.18"/><circle class="cls-3" cx="347.19" cy="455.1" r="2.18"/><circle class="cls-3" cx="289.84" cy="455.1" r="2.18"/><circle class="cls-3" cx="276.24" cy="455.1" r="2.18"/><circle class="cls-3" cx="262.64" cy="455.1" r="2.18"/><circle class="cls-3" cx="124.11" cy="642.66" r="2.18"/><circle class="cls-3" cx="205.78" cy="642.66" r="2.18"/><circle class="cls-3" cx="96.87" cy="642.66" r="2.18"/><circle class="cls-3" cx="83.7" cy="642.66" r="2.18"/><circle class="cls-3" cx="83.7" cy="642.66" r="2.18"/><circle class="cls-3" cx="68.54" cy="642.66" r="2.18"/><circle class="cls-3" cx="191.62" cy="642.66" r="2.18"/><circle class="cls-3" cx="178.02" cy="642.66" r="2.18"/><circle class="cls-3" cx="164.42" cy="642.66" r="2.18"/><circle class="cls-3" cx="150.82" cy="642.66" r="2.18"/><circle class="cls-3" cx="138.13" cy="642.66" r="2.18"/><circle class="cls-3" cx="111.55" cy="642.66" r="2.18"/><circle class="cls-3" cx="54.2" cy="642.66" r="2.18"/><circle class="cls-3" cx="40.6" cy="642.66" r="2.18"/><circle class="cls-3" cx="96.87" cy="690.29" r="2.18"/><circle class="cls-3" cx="83.7" cy="690.29" r="2.18"/><circle class="cls-3" cx="83.7" cy="690.29" r="2.18"/><circle class="cls-3" cx="68.54" cy="690.29" r="2.18"/><circle class="cls-3" cx="54.2" cy="690.29" r="2.18"/><circle class="cls-3" cx="40.6" cy="690.29" r="2.18"/><circle class="cls-3" cx="96.87" cy="753.32" r="2.18"/><circle class="cls-3" cx="83.7" cy="753.32" r="2.18"/><circle class="cls-3" cx="83.7" cy="753.32" r="2.18"/><circle class="cls-3" cx="68.54" cy="753.32" r="2.18"/><circle class="cls-3" cx="54.2" cy="753.32" r="2.18"/><circle class="cls-3" cx="40.6" cy="753.32" r="2.18"/><circle class="cls-3" cx="27" cy="642.66" r="2.18"/><circle class="cls-3" cx="356.75" cy="642.92" r="2.18"/><circle class="cls-3" cx="441.42" cy="642.69" r="2.18"/><circle class="cls-3" cx="326.51" cy="642.69" r="2.18"/><circle class="cls-3" cx="307.18" cy="642.69" r="2.18"/><circle class="cls-3" cx="427.26" cy="642.69" r="2.18"/><circle class="cls-3" cx="413.66" cy="642.69" r="2.18"/><circle class="cls-3" cx="400.06" cy="642.69" r="2.18"/><circle class="cls-3" cx="386.46" cy="642.69" r="2.18"/><circle class="cls-3" cx="371.77" cy="642.69" r="2.18"/><circle class="cls-3" cx="341.19" cy="642.69" r="2.18"/><circle class="cls-3" cx="291.84" cy="642.69" r="2.18"/><circle class="cls-3" cx="276.24" cy="642.69" r="2.18"/><circle class="cls-3" cx="262.64" cy="642.69" r="2.18"/><circle class="cls-3" cx="13.41" cy="455.1" r="2.18"/><circle class="cls-3" cx="13.41" cy="284.46" r="2.18"/><circle class="cls-3" cx="13.41" cy="299.02" r="2.18"/><circle class="cls-3" cx="13.41" cy="313.57" r="2.18"/><circle class="cls-3" cx="13.41" cy="386.34" r="2.18"/><circle class="cls-3" cx="13.41" cy="328.12" r="2.18"/><circle class="cls-3" cx="13.41" cy="357.23" r="2.18"/><circle class="cls-3" cx="29.19" cy="357.23" r="2.18"/><circle class="cls-3" cx="13.41" cy="371.79" r="2.18"/><circle class="cls-3" cx="13.41" cy="342.68" r="2.18"/><circle class="cls-3" cx="13.41" cy="512.59" r="2.18"/><circle class="cls-3" cx="13.41" cy="498.04" r="2.18"/><circle class="cls-3" cx="13.41" cy="483.48" r="2.18"/><circle class="cls-3" cx="13.41" cy="410.71" r="2.18"/><circle class="cls-3" cx="13.41" cy="398.53" r="2.18"/><circle class="cls-3" cx="13.41" cy="468.93" r="2.18"/><circle class="cls-3" cx="13.41" cy="439.82" r="2.18"/><circle class="cls-3" cx="13.41" cy="426.11" r="2.18"/><circle class="cls-3" cx="13.41" cy="527.14" r="2.18"/><circle class="cls-3" cx="13.41" cy="541.93" r="2.18"/><circle class="cls-3" cx="13.41" cy="556.48" r="2.18"/><circle class="cls-3" cx="13.41" cy="571.04" r="2.18"/><circle class="cls-3" cx="13.41" cy="642.66" r="2.18"/><circle class="cls-3" cx="13.41" cy="585.59" r="2.18"/><circle class="cls-3" cx="13.41" cy="614.7" r="2.18"/><circle class="cls-3" cx="13.41" cy="629.25" r="2.18"/><circle class="cls-3" cx="13.41" cy="600.14" r="2.18"/><circle class="cls-3" cx="13.41" cy="766.06" r="2.18"/><circle class="cls-3" cx="13.41" cy="751.5" r="2.18"/><circle class="cls-3" cx="13.41" cy="736.95" r="2.18"/><circle class="cls-3" cx="13.41" cy="661.18" r="2.18"/><circle class="cls-3" cx="13.41" cy="722.39" r="2.18"/><circle class="cls-3" cx="13.41" cy="693.29" r="2.18"/><circle class="cls-3" cx="13.41" cy="679.57" r="2.18"/><circle class="cls-3" cx="13.41" cy="707.84" r="2.18"/><circle class="cls-3" cx="13.41" cy="780.61" r="2.18"/><circle class="cls-3" cx="111.55" cy="661.18" r="2.18"/><circle class="cls-3" cx="111.55" cy="690.29" r="2.18"/><circle class="cls-3" cx="111.55" cy="676.57" r="2.18"/><circle class="cls-3" cx="111.55" cy="627.37" r="2.18"/><circle class="cls-3" cx="40.6" cy="661.18" r="2.18"/><circle class="cls-3" cx="40.6" cy="676.57" r="2.18"/><circle class="cls-3" cx="111.55" cy="704.84" r="2.18"/><circle class="cls-3" cx="111.55" cy="753.76" r="2.18"/><circle class="cls-3" cx="111.55" cy="737.58" r="2.18"/><circle class="cls-3" cx="111.55" cy="782.87" r="2.18"/><circle class="cls-3" cx="111.55" cy="769.16" r="2.18"/><circle class="cls-3" cx="40.6" cy="782.87" r="2.18"/><circle class="cls-3" cx="40.6" cy="769.16" r="2.18"/><circle class="cls-3" cx="427.26" cy="782.87" r="2.18"/><circle class="cls-3" cx="427.26" cy="769.16" r="2.18"/><circle class="cls-3" cx="427.26" cy="673.75" r="2.18"/><circle class="cls-3" cx="427.26" cy="660.04" r="2.18"/><circle class="cls-3" cx="453.53" cy="455.1" r="2.18"/><circle class="cls-3" cx="453.53" cy="284.46" r="2.18"/><circle class="cls-3" cx="453.53" cy="299.02" r="2.18"/><circle class="cls-3" cx="453.53" cy="313.57" r="2.18"/><circle class="cls-3" cx="453.53" cy="386.34" r="2.18"/><circle class="cls-3" cx="453.53" cy="328.12" r="2.18"/><circle class="cls-3" cx="453.53" cy="357.23" r="2.18"/><circle class="cls-3" cx="439.42" cy="357.23" r="2.18"/><circle class="cls-3" cx="453.53" cy="371.79" r="2.18"/><circle class="cls-3" cx="453.53" cy="342.68" r="2.18"/><circle class="cls-3" cx="453.53" cy="512.59" r="2.18"/><circle class="cls-3" cx="453.53" cy="498.04" r="2.18"/><circle class="cls-3" cx="453.53" cy="483.48" r="2.18"/><circle class="cls-3" cx="453.53" cy="410.71" r="2.18"/><circle class="cls-3" cx="453.53" cy="398.53" r="2.18"/><circle class="cls-3" cx="453.53" cy="468.93" r="2.18"/><circle class="cls-3" cx="453.53" cy="439.82" r="2.18"/><circle class="cls-3" cx="453.53" cy="426.11" r="2.18"/><circle class="cls-3" cx="453.53" cy="527.14" r="2.18"/><circle class="cls-3" cx="453.53" cy="541.93" r="2.18"/><circle class="cls-3" cx="453.53" cy="556.48" r="2.18"/><circle class="cls-3" cx="453.53" cy="571.04" r="2.18"/><circle class="cls-3" cx="453.53" cy="642.81" r="2.18"/><circle class="cls-3" cx="453.53" cy="585.59" r="2.18"/><circle class="cls-3" cx="453.53" cy="614.7" r="2.18"/><circle class="cls-3" cx="453.53" cy="629.25" r="2.18"/><circle class="cls-3" cx="453.53" cy="600.14" r="2.18"/><circle class="cls-3" cx="453.53" cy="770.06" r="2.18"/><circle class="cls-3" cx="453.53" cy="755.5" r="2.18"/><circle class="cls-3" cx="453.53" cy="740.95" r="2.18"/><circle class="cls-3" cx="453.53" cy="668.18" r="2.18"/><circle class="cls-3" cx="453.53" cy="655.99" r="2.18"/><circle class="cls-3" cx="453.53" cy="726.39" r="2.18"/><circle class="cls-3" cx="453.53" cy="697.29" r="2.18"/><circle class="cls-3" cx="453.53" cy="683.57" r="2.18"/><circle class="cls-3" cx="453.53" cy="711.84" r="2.18"/><circle class="cls-3" cx="453.53" cy="784.61" r="2.18"/><circle class="cls-3" cx="357.42" cy="770.06" r="2.18"/><circle class="cls-3" cx="357.42" cy="755.5" r="2.18"/><circle class="cls-3" cx="357.42" cy="740.95" r="2.18"/><circle class="cls-3" cx="357.42" cy="668.18" r="2.18"/><circle class="cls-3" cx="357.42" cy="655.99" r="2.18"/><circle class="cls-3" cx="357.42" cy="726.39" r="2.18"/><circle class="cls-3" cx="357.42" cy="697.29" r="2.18"/><circle class="cls-3" cx="357.42" cy="683.57" r="2.18"/><circle class="cls-3" cx="357.42" cy="711.84" r="2.18"/><circle class="cls-3" cx="357.42" cy="784.61" r="2.18"/><circle class="cls-3" cx="248.72" cy="455.1" r="2.18"/><circle class="cls-3" cx="248.72" cy="284.46" r="2.18"/><circle class="cls-3" cx="248.72" cy="299.02" r="2.18"/><circle class="cls-3" cx="248.72" cy="313.57" r="2.18"/><circle class="cls-3" cx="248.72" cy="386.34" r="2.18"/><circle class="cls-3" cx="248.72" cy="328.12" r="2.18"/><circle class="cls-3" cx="248.72" cy="357.23" r="2.18"/><circle class="cls-3" cx="248.72" cy="371.79" r="2.18"/><circle class="cls-3" cx="248.72" cy="342.68" r="2.18"/><circle class="cls-3" cx="248.72" cy="512.59" r="2.18"/><circle class="cls-3" cx="248.72" cy="498.04" r="2.18"/><circle class="cls-3" cx="248.72" cy="483.48" r="2.18"/><circle class="cls-3" cx="248.72" cy="410.71" r="2.18"/><circle class="cls-3" cx="248.72" cy="398.53" r="2.18"/><circle class="cls-3" cx="248.72" cy="468.93" r="2.18"/><circle class="cls-3" cx="248.72" cy="439.82" r="2.18"/><circle class="cls-3" cx="248.72" cy="426.11" r="2.18"/><circle class="cls-3" cx="248.72" cy="527.14" r="2.18"/><circle class="cls-3" cx="248.72" cy="542.93" r="2.18"/><circle class="cls-3" cx="248.72" cy="556.48" r="2.18"/><circle class="cls-3" cx="248.72" cy="571.04" r="2.18"/><circle class="cls-3" cx="248.72" cy="641.81" r="2.18"/><circle class="cls-3" cx="248.72" cy="585.59" r="2.18"/><circle class="cls-3" cx="248.72" cy="614.7" r="2.18"/><circle class="cls-3" cx="248.72" cy="629.25" r="2.18"/><circle class="cls-3" cx="248.72" cy="600.14" r="2.18"/><circle class="cls-3" cx="219.11" cy="284.46" r="2.18"/><circle class="cls-3" cx="219.11" cy="299.02" r="2.18"/><circle class="cls-3" cx="219.11" cy="313.57" r="2.18"/><circle class="cls-3" cx="219.11" cy="386.34" r="2.18"/><circle class="cls-3" cx="219.11" cy="328.12" r="2.18"/><circle class="cls-3" cx="219.11" cy="357.23" r="2.18"/><circle class="cls-3" cx="233.38" cy="357.23" r="2.18"/><circle class="cls-3" cx="264.29" cy="357.23" r="2.18"/><circle class="cls-3" cx="219.11" cy="371.79" r="2.18"/><circle class="cls-3" cx="219.11" cy="342.68" r="2.18"/><circle class="cls-3" cx="219.11" cy="512.59" r="2.18"/><circle class="cls-3" cx="219.11" cy="498.04" r="2.18"/><circle class="cls-3" cx="219.11" cy="483.48" r="2.18"/><circle class="cls-3" cx="219.11" cy="410.71" r="2.18"/><circle class="cls-3" cx="219.11" cy="398.53" r="2.18"/><circle class="cls-3" cx="219.11" cy="468.93" r="2.18"/><circle class="cls-3" cx="219.11" cy="439.82" r="2.18"/><circle class="cls-3" cx="219.11" cy="426.11" r="2.18"/><circle class="cls-3" cx="219.11" cy="527.14" r="2.18"/><circle class="cls-3" cx="219.11" cy="542.93" r="2.18"/><circle class="cls-3" cx="233.84" cy="542.93" r="2.18"/><circle class="cls-3" cx="263.57" cy="542.93" r="2.18"/><circle class="cls-3" cx="204.59" cy="542.93" r="2.18"/><circle class="cls-3" cx="219.11" cy="556.48" r="2.18"/><circle class="cls-3" cx="219.11" cy="571.04" r="2.18"/><circle class="cls-3" cx="219.11" cy="642.66" r="2.18"/><circle class="cls-3" cx="126.11" cy="801.61" r="2.18"/><circle class="cls-3" cx="208.78" cy="801.61" r="2.18"/><circle class="cls-3" cx="96.87" cy="801.61" r="2.18"/><circle class="cls-3" cx="83.7" cy="801.61" r="2.18"/><circle class="cls-3" cx="83.7" cy="801.61" r="2.18"/><circle class="cls-3" cx="68.54" cy="801.61" r="2.18"/><circle class="cls-3" cx="194.62" cy="801.61" r="2.18"/><circle class="cls-3" cx="181.02" cy="801.61" r="2.18"/><circle class="cls-3" cx="167.42" cy="801.61" r="2.18"/><circle class="cls-3" cx="153.82" cy="801.61" r="2.18"/><circle class="cls-3" cx="141.13" cy="801.61" r="2.18"/><circle class="cls-3" cx="111.55" cy="801.61" r="2.18"/><circle class="cls-3" cx="54.2" cy="801.61" r="2.18"/><circle class="cls-3" cx="40.6" cy="801.61" r="2.18"/><circle class="cls-3" cx="27" cy="801.61" r="2.18"/><circle class="cls-3" cx="13.41" cy="801.61" r="2.18"/><circle class="cls-3" cx="225.11" cy="801.61" r="2.18"/><circle class="cls-3" cx="357.42" cy="801.61" r="2.18"/><circle class="cls-3" cx="440.09" cy="801.61" r="2.18"/><circle class="cls-3" cx="328.18" cy="801.61" r="2.18"/><circle class="cls-3" cx="315.01" cy="801.61" r="2.18"/><circle class="cls-3" cx="315.01" cy="801.61" r="2.18"/><circle class="cls-3" cx="299.84" cy="801.61" r="2.18"/><circle class="cls-3" cx="425.93" cy="801.61" r="2.18"/><circle class="cls-3" cx="412.33" cy="801.61" r="2.18"/><circle class="cls-3" cx="398.73" cy="801.61" r="2.18"/><circle class="cls-3" cx="385.13" cy="801.61" r="2.18"/><circle class="cls-3" cx="372.44" cy="801.61" r="2.18"/><circle class="cls-3" cx="342.86" cy="801.61" r="2.18"/><circle class="cls-3" cx="285.51" cy="801.61" r="2.18"/><circle class="cls-3" cx="271.91" cy="801.61" r="2.18"/><circle class="cls-3" cx="258.31" cy="801.61" r="2.18"/><circle class="cls-3" cx="242.71" cy="801.61" r="2.18"/><circle class="cls-3" cx="453.42" cy="801.61" r="2.18"/><circle class="cls-3" cx="96.87" cy="722.28" r="2.18"/><circle class="cls-3" cx="83.7" cy="722.28" r="2.18"/><circle class="cls-3" cx="83.7" cy="722.28" r="2.18"/><circle class="cls-3" cx="68.54" cy="722.28" r="2.18"/><circle class="cls-3" cx="111.55" cy="722.28" r="2.18"/><circle class="cls-3" cx="54.2" cy="722.28" r="2.18"/><circle class="cls-3" cx="40.6" cy="722.28" r="2.18"/><circle class="cls-3" cx="27" cy="722.28" r="2.18"/><circle class="cls-3" cx="441.42" cy="721.28" r="2.18"/><circle class="cls-3" cx="427.26" cy="721.28" r="2.18"/><circle class="cls-3" cx="413.66" cy="721.28" r="2.18"/><circle class="cls-3" cx="400.06" cy="721.28" r="2.18"/><circle class="cls-3" cx="386.46" cy="721.28" r="2.18"/><circle class="cls-3" cx="371.77" cy="721.28" r="2.18"/><circle class="cls-3" cx="427.26" cy="753.68" r="2.18"/><circle class="cls-3" cx="413.66" cy="753.68" r="2.18"/><circle class="cls-3" cx="400.06" cy="753.68" r="2.18"/><circle class="cls-3" cx="386.46" cy="753.68" r="2.18"/><circle class="cls-3" cx="371.77" cy="753.68" r="2.18"/><circle class="cls-3" cx="427.26" cy="691.1" r="2.18"/><circle class="cls-3" cx="413.66" cy="691.1" r="2.18"/><circle class="cls-3" cx="400.06" cy="691.1" r="2.18"/><circle class="cls-3" cx="386.46" cy="691.1" r="2.18"/><circle class="cls-3" cx="371.77" cy="691.1" r="2.18"/><circle class="cls-3" cx="219.11" cy="585.59" r="2.18"/><circle class="cls-3" cx="219.11" cy="614.7" r="2.18"/><circle class="cls-3" cx="219.11" cy="629.25" r="2.18"/><circle class="cls-3" cx="219.11" cy="600.14" r="2.18"/><circle class="cls-3" cx="355.21" cy="24.81" r="2.18"/><circle class="cls-3" cx="355.21" cy="37.21" r="2.18"/><circle class="cls-3" cx="453.36" cy="27" r="2.18"/><circle class="cls-3" cx="453.36" cy="41.55" r="2.18"/><circle class="cls-3" cx="343.25" cy="49.64" r="2.18"/><circle class="cls-3" cx="355.21" cy="49.64" r="2.18"/><circle class="cls-3" cx="412.56" cy="49.64" r="2.18"/><circle class="cls-3" cx="426.16" cy="49.64" r="2.18"/><circle class="cls-3" cx="439.76" cy="49.64" r="2.18"/><circle class="cls-3" cx="453.36" cy="56.1" r="2.18"/><circle class="cls-3" cx="343.05" cy="128.87" r="2.18"/><circle class="cls-3" cx="355.21" cy="128.87" r="2.18"/><circle class="cls-3" cx="369.89" cy="128.87" r="2.18"/><circle class="cls-3" cx="383.06" cy="128.87" r="2.18"/><circle class="cls-3" cx="383.06" cy="128.87" r="2.18"/><circle class="cls-3" cx="398.23" cy="128.87" r="2.18"/><circle class="cls-3" cx="369.89" cy="153.25" r="2.18"/><circle class="cls-3" cx="383.06" cy="153.25" r="2.18"/><circle class="cls-3" cx="383.06" cy="153.25" r="2.18"/><circle class="cls-3" cx="398.23" cy="153.25" r="2.18"/><circle class="cls-3" cx="369.89" cy="202.09" r="2.18"/><circle class="cls-3" cx="383.06" cy="202.09" r="2.18"/><circle class="cls-3" cx="383.06" cy="202.09" r="2.18"/><circle class="cls-3" cx="398.23" cy="202.09" r="2.18"/><circle class="cls-3" cx="369.89" cy="232.49" r="2.18"/><circle class="cls-3" cx="383.06" cy="232.49" r="2.18"/><circle class="cls-3" cx="383.06" cy="232.49" r="2.18"/><circle class="cls-3" cx="398.23" cy="232.49" r="2.18"/><circle class="cls-3" cx="369.89" cy="269.68" r="2.18"/><circle class="cls-3" cx="383.06" cy="269.68" r="2.18"/><circle class="cls-3" cx="383.06" cy="269.68" r="2.18"/><circle class="cls-3" cx="398.23" cy="269.68" r="2.18"/><circle class="cls-3" cx="369.89" cy="79.85" r="2.18"/><circle class="cls-3" cx="383.06" cy="79.85" r="2.18"/><circle class="cls-3" cx="383.06" cy="79.85" r="2.18"/><circle class="cls-3" cx="398.23" cy="79.85" r="2.18"/><circle class="cls-3" cx="369.89" cy="50.09" r="2.18"/><circle class="cls-3" cx="383.06" cy="50.09" r="2.18"/><circle class="cls-3" cx="383.06" cy="50.09" r="2.18"/><circle class="cls-3" cx="398.23" cy="50.09" r="2.18"/><circle class="cls-3" cx="369.89" cy="12.44" r="2.18"/><circle class="cls-3" cx="383.06" cy="12.44" r="2.18"/><circle class="cls-3" cx="383.06" cy="12.44" r="2.18"/><circle class="cls-3" cx="398.23" cy="12.44" r="2.18"/><circle class="cls-3" cx="412.88" cy="128.87" r="2.18"/><circle class="cls-3" cx="426.67" cy="128.87" r="2.18"/><circle class="cls-3" cx="439.73" cy="128.87" r="2.18"/><circle class="cls-3" cx="453.36" cy="128.87" r="2.18"/><circle class="cls-3" cx="426.66" cy="64.74" r="2.18"/><circle class="cls-3" cx="453.36" cy="70.66" r="2.18"/><circle class="cls-3" cx="453.36" cy="99.77" r="2.18"/><circle class="cls-3" cx="453.36" cy="114.32" r="2.18"/><circle class="cls-3" cx="426.67" cy="96.27" r="2.18"/><circle class="cls-3" cx="426.67" cy="112.57" r="2.18"/><circle class="cls-3" cx="355.21" cy="96.27" r="2.18"/><circle class="cls-3" cx="355.21" cy="112.57" r="2.18"/><circle class="cls-3" cx="355.21" cy="79.97" r="2.18"/><circle class="cls-3" cx="412.88" cy="79.97" r="2.18"/><circle class="cls-3" cx="426.67" cy="79.97" r="2.18"/><circle class="cls-3" cx="453.36" cy="85.21" r="2.18"/><circle class="cls-3" cx="355.21" cy="12.44" r="2.18"/><circle class="cls-3" cx="412.56" cy="12.44" r="2.18"/><circle class="cls-3" cx="426.16" cy="12.44" r="2.18"/><circle class="cls-3" cx="439.76" cy="12.44" r="2.18"/><circle class="cls-3" cx="453.36" cy="12.44" r="2.18"/><circle class="cls-3" cx="453.36" cy="255.12" r="2.18"/><circle class="cls-3" cx="453.36" cy="240.57" r="2.18"/><circle class="cls-3" cx="343.25" cy="232.49" r="2.18"/><circle class="cls-3" cx="343.25" cy="269.68" r="2.18"/><circle class="cls-3" cx="355.21" cy="232.49" r="2.18"/><circle class="cls-3" cx="249.38" cy="232.49" r="2.18"/><circle class="cls-3" cx="262.98" cy="232.49" r="2.18"/><circle class="cls-3" cx="277.88" cy="232.49" r="2.18"/><circle class="cls-3" cx="290.51" cy="232.49" r="2.18"/><circle class="cls-3" cx="412.56" cy="232.49" r="2.18"/><circle class="cls-3" cx="426.16" cy="232.49" r="2.18"/><circle class="cls-3" cx="439.76" cy="232.49" r="2.18"/><circle class="cls-3" cx="453.36" cy="226.02" r="2.18"/><circle class="cls-3" cx="343.25" cy="153.25" r="2.18"/><circle class="cls-3" cx="355.21" cy="153.25" r="2.18"/><circle class="cls-3" cx="412.88" cy="153.25" r="2.18"/><circle class="cls-3" cx="426.67" cy="153.25" r="2.18"/><circle class="cls-3" cx="439.73" cy="153.25" r="2.18"/><circle class="cls-3" cx="453.36" cy="153.25" r="2.18"/><circle class="cls-3" cx="453.36" cy="141.06" r="2.18"/><circle class="cls-3" cx="426.66" cy="217.38" r="2.18"/><circle class="cls-3" cx="453.36" cy="211.46" r="2.18"/><circle class="cls-3" cx="453.36" cy="182.35" r="2.18"/><circle class="cls-3" cx="453.36" cy="168.64" r="2.18"/><circle class="cls-3" cx="426.67" cy="185.85" r="2.18"/><circle class="cls-3" cx="426.67" cy="168.64" r="2.18"/><circle class="cls-3" cx="355.21" cy="185.85" r="2.18"/><circle class="cls-3" cx="355.21" cy="168.64" r="2.18"/><circle class="cls-3" cx="355.21" cy="202.09" r="2.18"/><circle class="cls-3" cx="412.88" cy="202.09" r="2.18"/><circle class="cls-3" cx="426.67" cy="202.09" r="2.18"/><circle class="cls-3" cx="453.36" cy="196.91" r="2.18"/><circle class="cls-3" cx="355.21" cy="269.68" r="2.18"/><circle class="cls-3" cx="412.56" cy="269.68" r="2.18"/><circle class="cls-3" cx="426.16" cy="269.68" r="2.18"/><circle class="cls-3" cx="439.76" cy="269.68" r="2.18"/><circle class="cls-3" cx="453.36" cy="269.68" r="2.18"/></g><path class="cls-2" d="M910.25 582.22a5.7 5.7 0 1 1 5.8.54l-2.45-4.63zm227.95-43.64a5.7 5.7 0 1 1 .54-5.8l-4.63 2.45zM1248.34 655a5.7 5.7 0 1 1 5.8.54l-2.45-4.63zM1007.6 860.45a5.7 5.7 0 1 1 5.8.54l-2.45-4.63zM1128.35 719a5.7 5.7 0 1 1-.54 5.8l4.63-2.45z" transform="translate(-899.4 -177.99)" id="pac"/></svg>