<svg id="Camada_2_cópia" xmlns="http://www.w3.org/2000/svg" xmlns:xlink="http://www.w3.org/1999/xlink" viewBox="0 0 221 287.5"><style>.st0{clip-path:url(#SVGID_2_)}.st1{fill:#293379}.st2{fill:#dededf}.st3{fill:#ffe006}.st4{fill:#fff}.st5{fill:#e78e12}.st6{fill:#da322c}.st7{fill:#b22528}.st8{fill:#eba62b}.st9{fill:#86bd34}.st10{fill:#248d41}</style><defs><path id="SVGID_1_" d="M-4.8 2h229.1v283.1H-4.8z"/></defs><clipPath id="SVGID_2_"><use xlink:href="#SVGID_1_" overflow="visible"/></clipPath><g class="st0"><path class="st1" d="M195.4 24.8h-58.9c-1.2 0-2.2 1-2.2 2.2v15.4c0 1.2 1 2.2 2.2 2.2h58.9c1.2 0 2.2-1 2.2-2.2V27.1c0-1.3-1-2.3-2.2-2.3zm-59 238.4h58.9c1.2 0 2.2-1 2.2-2.2v-15.4c0-1.2-1-2.2-2.2-2.2h-58.9c-1.2 0-2.2 1-2.2 2.2V261c0 1.2 1 2.2 2.2 2.2z"/><circle class="st2" cx="95.5" cy="27.7" r="2.2"/><circle class="st2" cx="95.5" cy="40.2" r="2.2"/><circle class="st2" cx="124.1" cy="27.8" r="2.2"/><circle class="st2" cx="124.1" cy="40.2" r="2.2"/><circle class="st2" cx="207" cy="29.7" r="2.2"/><circle class="st2" cx="207" cy="44" r="2.2"/><circle class="st2" cx="81.8" cy="52.6" r="2.2"/><circle class="st2" cx="95.5" cy="52.6" r="2.2"/><circle class="st2" cx="110.2" cy="52.6" r="2.2"/><circle class="st2" cx="124.1" cy="52.6" r="2.2"/><circle class="st2" cx="137.7" cy="52.6" r="2.2"/><circle class="st2" cx="151.3" cy="52.6" r="2.2"/><circle class="st2" cx="164.9" cy="52.6" r="2.2"/><circle class="st2" cx="178.5" cy="52.6" r="2.2"/><circle class="st2" cx="192.1" cy="52.6" r="2.2"/><circle class="st2" cx="207" cy="58.3" r="2.2"/><circle class="st2" cx="207" cy="72.5" r="2.2"/><circle class="st2" cx="207" cy="129.7" r="2.2"/><circle class="st2" cx="207" cy="101.1" r="2.2"/><circle class="st2" cx="207" cy="115.4" r="2.2"/><circle class="st2" cx="207" cy="86.8" r="2.2"/><circle class="st2" cx="82.2" cy="15.4" r="2.2"/><circle class="st2" cx="95.5" cy="15.4" r="2.2"/><circle class="st2" cx="124.1" cy="15.4" r="2.2"/><circle class="st2" cx="137.7" cy="15.4" r="2.2"/><circle class="st2" cx="151.3" cy="15.4" r="2.2"/><circle class="st2" cx="164.9" cy="15.4" r="2.2"/><circle class="st2" cx="178.5" cy="15.4" r="2.2"/><circle class="st2" cx="192.1" cy="15.4" r="2.2"/><circle class="st2" cx="207" cy="15.4" r="2.2"/><circle class="st2" cx="95.5" cy="260.3" r="2.2"/><circle class="st2" cx="95.5" cy="247.8" r="2.2"/><circle class="st2" cx="124.1" cy="260.2" r="2.2"/><circle class="st2" cx="124.1" cy="247.8" r="2.2"/><circle class="st2" cx="207" cy="258.3" r="2.2"/><circle class="st2" cx="207" cy="244" r="2.2"/><circle class="st2" cx="82.2" cy="235.4" r="2.2"/><circle class="st2" cx="95.5" cy="235.4" r="2.2"/><circle class="st2" cx="178.5" cy="235.4" r="2.2"/><circle class="st2" cx="192.1" cy="235.4" r="2.2"/><circle class="st2" cx="207" cy="229.7" r="2.2"/><circle class="st2" cx="207" cy="158.3" r="2.2"/><circle class="st2" cx="207" cy="186.9" r="2.2"/><circle class="st2" cx="207" cy="172.6" r="2.2"/><circle class="st2" cx="207" cy="201.2" r="2.2"/><circle class="st2" cx="207" cy="215.5" r="2.2"/><circle class="st2" cx="82.2" cy="272.6" r="2.2"/><circle class="st2" cx="95.5" cy="272.6" r="2.2"/><circle class="st2" cx="124.1" cy="272.6" r="2.2"/><circle class="st2" cx="137.7" cy="272.6" r="2.2"/><circle class="st2" cx="151.3" cy="272.6" r="2.2"/><circle class="st2" cx="164.9" cy="272.6" r="2.2"/><circle class="st2" cx="178.5" cy="272.6" r="2.2"/><circle class="st2" cx="192.1" cy="272.6" r="2.2"/><circle class="st2" cx="207" cy="272.6" r="2.2"/><path class="st1" d="M210.6 2.9H6.3C5 2.9 2.7 5.2 2.7 8v272c0 2.8 2.3 5 5 5H212c2.8 0 5-2.3 5-5V8c.1-2.8-2.2-5.1-6.4-5.1zm3.3 273.9c0 2.8-2.3 5-5 5h-88.4c-2.8 0-5-2.3-5-5v-28.5c0-2.8-2.3-5-5-5-2.8 0-5 2.3-5 5v28.5c0 2.8-2.3 5-5 5h16.3H11c-2.8 0-5-2.3-5-5V11.2c0-2.8 2.3-5 5-5h89.4c2.8 0 5 2.3 5 5v28.5c0 2.8 2.3 5 5 5 2.8 0 5-2.3 5-5V11.2c0-2.8 2.3-5 5-5h88.4c2.8 0 5 2.3 5 5v265.6z"/><path class="st1" d="M23.2 24.8h62.7c1.3 0 2.4 1 2.4 2.2v15.4c0 1.2-1.1 2.2-2.4 2.2H23.2c-1.3 0-2.4-1-2.4-2.2V27.1c0-1.3 1.1-2.3 2.4-2.3zm59.7 238.4H24c-1.2 0-2.2-1-2.2-2.2v-15.4c0-1.2 1-2.2 2.2-2.2h58.9c1.2 0 2.2 1 2.2 2.2V261c0 1.2-1 2.2-2.2 2.2z"/><circle class="st2" cx="123.8" cy="27.7" r="2.2"/><circle class="st2" cx="123.8" cy="40.2" r="2.2"/><circle class="st2" cx="95.2" cy="27.8" r="2.2"/><circle class="st2" cx="95.2" cy="40.2" r="2.2"/><circle class="st2" cx="12.5" cy="29.7" r="2.2"/><circle class="st2" cx="12.5" cy="44" r="2.2"/><circle class="st2" cx="137.5" cy="52.6" r="2.2"/><circle class="st2" cx="123.8" cy="52.6" r="2.2"/><circle class="st2" cx="109.1" cy="52.6" r="2.2"/><circle class="st2" cx="95.2" cy="52.6" r="2.2"/><circle class="st2" cx="81.6" cy="52.6" r="2.2"/><circle class="st2" cx="68" cy="52.6" r="2.2"/><circle class="st2" cx="54.4" cy="52.6" r="2.2"/><circle class="st2" cx="40.8" cy="52.6" r="2.2"/><circle class="st2" cx="27.2" cy="52.6" r="2.2"/><circle class="st2" cx="12.5" cy="58.3" r="2.2"/><circle class="st2" cx="12.5" cy="72.5" r="2.2"/><circle class="st2" cx="12.5" cy="129.7" r="2.2"/><circle class="st2" cx="12.5" cy="101.1" r="2.2"/><circle class="st2" cx="12.5" cy="115.4" r="2.2"/><circle class="st2" cx="12.5" cy="86.8" r="2.2"/><circle class="st2" cx="137.2" cy="15.4" r="2.2"/><circle class="st2" cx="123.8" cy="15.4" r="2.2"/><circle class="st2" cx="95.2" cy="15.4" r="2.2"/><circle class="st2" cx="81.6" cy="15.4" r="2.2"/><circle class="st2" cx="68" cy="15.4" r="2.2"/><circle class="st2" cx="54.4" cy="15.4" r="2.2"/><circle class="st2" cx="40.8" cy="15.4" r="2.2"/><circle class="st2" cx="27.2" cy="15.4" r="2.2"/><circle class="st2" cx="12.5" cy="15.4" r="2.2"/><circle class="st2" cx="12.5" cy="258.3" r="2.2"/><circle class="st2" cx="12.5" cy="244" r="2.2"/><circle class="st2" cx="68" cy="235.4" r="2.2"/><circle class="st2" cx="54.4" cy="235.4" r="2.2"/><circle class="st2" cx="40.8" cy="235.4" r="2.2"/><circle class="st2" cx="27.2" cy="235.4" r="2.2"/><circle class="st2" cx="12.5" cy="229.7" r="2.2"/><circle class="st2" cx="12.5" cy="158.3" r="2.2"/><circle class="st2" cx="12.5" cy="144" r="2.2"/><circle class="st2" cx="207" cy="144" r="2.2"/><circle class="st2" cx="12.5" cy="186.9" r="2.2"/><circle class="st2" cx="12.5" cy="172.6" r="2.2"/><circle class="st2" cx="12.5" cy="201.2" r="2.2"/><circle class="st2" cx="12.5" cy="215.5" r="2.2"/><circle class="st2" cx="95.2" cy="272.6" r="2.2"/><circle class="st2" cx="68" cy="272.6" r="2.2"/><circle class="st2" cx="54.4" cy="272.6" r="2.2"/><circle class="st2" cx="40.8" cy="272.6" r="2.2"/><circle class="st2" cx="27.2" cy="272.6" r="2.2"/><circle class="st2" cx="12.5" cy="272.6" r="2.2"/><path class="st3" d="M169.5 231.6c-1-1.4-2.7-2.4-4.6-2.4-3.1 0-5.7 2.6-5.7 5.7s2.6 5.7 5.7 5.7c2.3 0 4.2-1.3 5.1-3.3l-4.6-2.4 4.1-3.3z"/><path class="st1" d="M193.8 61.3H25.7c-3.3 0-6.1 2.7-6.1 6.1v153.3c0 3.3 2.7 6.1 6.1 6.1h71.7v-11.5H37.2c-3.3 0-6.1-2.7-6.1-6.1V78.9c0-3.3 2.7-6.1 6.1-6.1h145.1c3.3 0 6.1 2.7 6.1 6.1v130.2c0 3.3-2.7 6.1-6.1 6.1h-59.8v11.5h71.3c3.3 0 6.1-2.7 6.1-6.1V67.4c0-3.4-2.7-6.1-6.1-6.1z"/></g><path class="st4" d="M64.2 96.1h7.3v5.6h-7.3v1.6h8.9v6.5H56.4V88h16.7v6.5h-8.9v1.6zm26.2 13.7h-7.8l-8-21.8h8.6l2.7 10c.5 1.7.5 3.1.5 3.1h.3s0-1.4.5-3.1l2.7-10h8.6l-8.1 21.8zM108 96.1h7.3v5.6H108v1.6h8.9v6.5h-16.7V88h16.7v6.5H108v1.6zm21.8-8.1c7.2 0 10 2.8 10 7.3 0 4.2-3.9 5.5-3.9 5.5v.3c2.5.9 1.6 2.8 4.7 2.8v5.9s-1.6.5-3.1.5c-7.8 0-5.3-6.4-8.7-6.4h-.6v5.9h-7.8V88h9.4zm0 9.5c1.2 0 1.9-.6 1.9-1.6 0-.9-.6-1.6-1.9-1.6h-1.7v3.1h1.7zm26 12.3H148v-7.5L140.2 88h8.4l2.5 5.6c.6 1.4.6 2.8.6 2.8h.3s0-1.4.6-2.8l2.5-5.6h8.4l-7.8 14.3v7.5zm-84.1 68.9l-3.2-6.4c-.9-1.7-1.5-3.8-1.5-3.8h-.4s.4 2.1.4 3.8v11.5H56.4v-29.9h12.8l4.9 9.8c.9 1.9.9 3.8.9 3.8h.4s0-1.9.9-3.8l4.9-9.8H94v29.9H83.3v-11.5c0-1.7.4-3.8.4-3.8h-.4c0 .1-.6 2.1-1.5 3.8l-3.2 6.4h-6.9zm27.4-24.9h10.7v30.1H99.1v-30.1zm26.6 20.6h11.4v9.4H115v-30.1h10.7v20.7zm25.6-9.5h10.1v7.7h-10.1v2.1h12.2v9h-23v-30.1h23v9h-12.2v2.3zm-87.7-35.4h7.1v5.8h-7.1v6.7h-7.2v-20.3h15.5v6.1h-8.3v1.7zm14.8 3.9l-3.8-2 1.6-2.8-2.9-.9 1.2-3.9 3.2 1v-3.2h4.6v3.2l3.2-1 1.2 3.9-2.9.9 1.6 2.8-3.8 2-1.6-2.8-1.6 2.8zm29.7-5.8c0 1.2-.4 2-.4 2h-7s.1-.3.1-.9c0-.9-.7-1.6-1.9-1.6-1.7 0-3 1.3-3 4.3 0 3.3 1.6 4.9 4.2 4.9s4.5-2 4.5-2l3.5 4.6s-3.3 3.3-8.8 3.3c-7 0-10.9-3.9-10.9-10.6 0-6.7 3.9-10.6 10.9-10.6 5.9.3 8.8 3.2 8.8 6.6zm10.6 7.3h-.7v7.1h-7.2v-20.3h7.2v6.8h.6l3.8-6.8h8.3l-5.9 9.6v.3l6.7 10.4h-8.6l-4.2-7.1zm13.8-13.2h7.2V142h-7.2v-20.3zm23.8 20.3l-4.6-6.7c-.9-1.3-1.2-2.6-1.2-2.6h-.3s.3 1.3.3 2.6v6.7h-7.2v-20.3h7.2l4.6 6.7c.9 1.3 1.2 2.6 1.2 2.6h.3s-.3-1.3-.3-2.6v-6.7h7.2V142h-7.2z"/><path class="st5" d="M56.4 113.8h107.1v3.8H56.4zm0 32.2h107.1v3.8H56.4z"/><circle class="st6" cx="72.9" cy="196.1" r="3.9"/><circle class="st7" cx="87.7" cy="196.1" r="3.9"/><circle class="st8" cx="102.5" cy="196.1" r="3.9"/><circle class="st5" cx="117.3" cy="196.1" r="3.9"/><circle class="st9" cx="132.1" cy="196.1" r="3.9"/><circle class="st10" cx="147" cy="196.1" r="3.9"/></svg>