<svg id="Camada_1" data-name="Camada 1" xmlns="http://www.w3.org/2000/svg" viewBox="0 0 727.89 439.09"><defs><style>.cls-1{fill:#010202}.cls-2{fill:#293379}.cls-3{fill:#ddddde}.cls-4{fill:#ffdf05}.cls-5{fill:#fff}.cls-6{fill:#e78d11}.cls-7{fill:#d9322c}.cls-8{fill:#b12528}.cls-9{fill:#eba62b}.cls-10{fill:#86bc33}.cls-11{fill:#238c41}</style></defs><title>LOGO-pacman</title><path class="cls-1" d="M5.02 4h719.87v432.09H5.02z"/><rect class="cls-2" x="401.26" y="34.09" width="98.66" height="30.99" rx="3.47" ry="3.47"/><rect class="cls-2" x="401.26" y="374.01" width="98.66" height="30.99" rx="3.47" ry="3.47"/><path class="cls-2" d="M565.82-77.9h-712.23c-2.15 0-5.66 3.51-5.66 7.83v423.42a7.83 7.83 0 0 0 7.83 7.83H568a7.83 7.83 0 0 0 7.83-7.83V-70.07c0-4.33-3.51-7.83-10.01-7.83zm5 426.24a7.83 7.83 0 0 1-7.83 7.83H397a7.83 7.83 0 0 1-7.83-7.83v-44.4a7.83 7.83 0 0 0-15.67 0v44.39a7.83 7.83 0 0 1-7.83 7.83H227.78a7.83 7.83 0 0 1-7.83-7.83v-44.39a7.83 7.83 0 0 0-15.67 0v44.39a7.83 7.83 0 0 1-7.83 7.83H56.54a7.83 7.83 0 0 1-7.83-7.83v-44.39a7.83 7.83 0 0 0-7.83-7.83 7.83 7.83 0 0 0-7.88 7.83v44.39a7.83 7.83 0 0 1-7.83 7.83h-164.38a7.83 7.83 0 0 1-7.83-7.83V-65.05a7.83 7.83 0 0 1 7.83-7.83H25.06a7.83 7.83 0 0 1 7.83 7.83v44.39a7.83 7.83 0 0 0 7.83 7.83 7.83 7.83 0 0 0 7.83-7.83v-44.39a7.83 7.83 0 0 1 7.83-7.83h140a7.83 7.83 0 0 1 7.83 7.83v44.39a7.83 7.83 0 0 0 7.83 7.83 7.83 7.83 0 0 0 7.83-7.83v-44.39a7.83 7.83 0 0 1 7.83-7.83h137.95a7.83 7.83 0 0 1 7.83 7.83v44.39a7.83 7.83 0 0 0 7.83 7.83 7.83 7.83 0 0 0 7.83-7.83v-44.39a7.83 7.83 0 0 1 7.86-7.84h166a7.83 7.83 0 0 1 7.83 7.83z" transform="translate(152.06 77.9)"/><rect class="cls-2" x="35.25" y="34.09" width="127.37" height="30.99" rx="3.47" ry="3.47"/><path class="cls-2" d="M76.4-43.82H174a3.6 3.6 0 0 1 3.7 3.47v24a3.6 3.6 0 0 1-3.7 3.47H76.4a3.6 3.6 0 0 1-3.7-3.47v-24a3.6 3.6 0 0 1 3.7-3.47z" transform="translate(152.06 77.9)"/><rect class="cls-2" x="35.25" y="90.83" width="12.34" height="96.78" rx="3.47" ry="3.47"/><rect class="cls-2" x="78.32" y="137.34" width="83.94" height="50.27" rx="3.47" ry="3.47"/><rect class="cls-2" x="35.25" y="374.01" width="127.37" height="30.99" rx="3.47" ry="3.47"/><rect class="cls-2" x="226.21" y="374.01" width="98.66" height="30.99" rx="3.47" ry="3.47"/><path class="cls-2" d="M-73 266.87v-16.32a3.48 3.48 0 0 1 3.47-3.47h99.11a3.48 3.48 0 0 0 3.47-3.47V177a3.48 3.48 0 0 1 3.47-3.47h8.72a3.48 3.48 0 0 1 3.48 3.47v87.42c0 3.24-2.56 5.88-5.16 5.88H-69.5a3.48 3.48 0 0 1-3.5-3.43zm0-250.46v16.32a3.48 3.48 0 0 0 3.5 3.47h99.08a3.48 3.48 0 0 1 3.47 3.47v66.55a3.48 3.48 0 0 0 3.47 3.47h8.72a3.48 3.48 0 0 0 3.47-3.47V18.81c0-3.24-2.56-5.88-5.16-5.88H-69.5a3.48 3.48 0 0 0-3.5 3.48z" transform="translate(152.06 77.9)"/><rect class="cls-2" x="35.25" y="251.48" width="12.34" height="96.77" rx="3.47" ry="3.47"/><rect class="cls-2" x="78.32" y="251.48" width="83.94" height="50.27" rx="3.47" ry="3.47"/><rect class="cls-2" x="35.25" y="215.56" width="203.68" height="7.97" rx="3.47" ry="3.47"/><rect class="cls-2" x="563.84" y="34.09" width="127.37" height="30.99" rx="3.47" ry="3.47"/><rect class="cls-2" x="678.87" y="90.83" width="12.34" height="96.78" rx="3.47" ry="3.47"/><rect class="cls-2" x="564.2" y="137.34" width="83.94" height="50.27" rx="3.47" ry="3.47"/><rect class="cls-2" x="563.84" y="374.01" width="127.37" height="30.99" rx="3.47" ry="3.47"/><path class="cls-2" d="M495.31 266.87v-16.32a3.48 3.48 0 0 0-3.47-3.47h-99.08a3.48 3.48 0 0 1-3.47-3.47V177a3.48 3.48 0 0 0-3.47-3.47h-8.72a3.48 3.48 0 0 0-3.47 3.47v87.42c0 3.24 2.56 5.88 5.16 5.88h113.05a3.48 3.48 0 0 0 3.47-3.43zm0-250.46v16.32a3.48 3.48 0 0 1-3.47 3.47h-99.08a3.48 3.48 0 0 0-3.47 3.47v66.55a3.48 3.48 0 0 1-3.47 3.47h-8.72a3.48 3.48 0 0 1-3.47-3.47V18.81c0-3.24 2.56-5.88 5.16-5.88h113.05a3.48 3.48 0 0 1 3.47 3.48z" transform="translate(152.06 77.9)"/><rect class="cls-2" x="678.87" y="251.48" width="12.34" height="96.77" rx="3.47" ry="3.47"/><rect class="cls-2" x="564.2" y="251.48" width="83.94" height="50.27" rx="3.47" ry="3.47"/><rect class="cls-2" x="487.54" y="215.56" width="203.68" height="7.97" rx="3.47" ry="3.47"/><circle class="cls-3" cx="341.02" cy="38.61" r="3.4"/><circle class="cls-3" cx="341.02" cy="57.92" r="3.4"/><circle class="cls-3" cx="385.55" cy="38.66" r="3.4"/><circle class="cls-3" cx="385.55" cy="57.96" r="3.4"/><circle class="cls-3" cx="514.59" cy="38.61" r="3.4"/><circle class="cls-3" cx="514.59" cy="57.92" r="3.4"/><circle class="cls-3" cx="319.7" cy="77.25" r="3.4"/><circle class="cls-3" cx="341.02" cy="77.25" r="3.4"/><circle class="cls-3" cx="363.9" cy="77.25" r="3.4"/><circle class="cls-3" cx="385.55" cy="77.25" r="3.4"/><circle class="cls-3" cx="406.72" cy="77.25" r="3.4"/><circle class="cls-3" cx="427.89" cy="77.25" r="3.4"/><circle class="cls-3" cx="449.06" cy="77.25" r="3.4"/><circle class="cls-3" cx="470.23" cy="77.25" r="3.4"/><circle class="cls-3" cx="491.39" cy="77.25" r="3.4"/><circle class="cls-3" cx="514.59" cy="77.25" r="3.4"/><circle class="cls-3" cx="514.59" cy="99.75" r="3.4"/><circle class="cls-3" cx="514.59" cy="200.58" r="3.4"/><circle class="cls-3" cx="514.59" cy="149.83" r="3.4"/><circle class="cls-3" cx="514.59" cy="175.2" r="3.4"/><circle class="cls-3" cx="514.59" cy="124.46" r="3.4"/><circle class="cls-3" cx="320.27" cy="19.37" r="3.4"/><circle class="cls-3" cx="341.02" cy="19.37" r="3.4"/><circle class="cls-3" cx="385.55" cy="19.37" r="3.4"/><circle class="cls-3" cx="406.72" cy="19.37" r="3.4"/><circle class="cls-3" cx="427.89" cy="19.37" r="3.4"/><circle class="cls-3" cx="449.06" cy="19.37" r="3.4"/><circle class="cls-3" cx="470.23" cy="19.37" r="3.4"/><circle class="cls-3" cx="491.39" cy="19.37" r="3.4"/><circle class="cls-3" cx="514.59" cy="19.37" r="3.4"/><circle class="cls-3" cx="341.02" cy="400.48" r="3.4"/><circle class="cls-3" cx="341.02" cy="381.17" r="3.4"/><circle class="cls-3" cx="385.55" cy="400.43" r="3.4"/><circle class="cls-3" cx="385.55" cy="381.13" r="3.4"/><circle class="cls-3" cx="514.59" cy="400.48" r="3.4"/><circle class="cls-3" cx="514.59" cy="381.17" r="3.4"/><circle class="cls-3" cx="320.27" cy="361.84" r="3.4"/><circle class="cls-3" cx="341.02" cy="361.84" r="3.4"/><circle class="cls-3" cx="470.23" cy="361.84" r="3.4"/><circle class="cls-3" cx="491.39" cy="361.84" r="3.4"/><circle class="cls-3" cx="514.59" cy="361.84" r="3.4"/><circle class="cls-3" cx="514.59" cy="238.51" r="3.4"/><circle class="cls-3" cx="514.59" cy="289.26" r="3.4"/><circle class="cls-3" cx="514.59" cy="262.47" r="3.4"/><circle class="cls-3" cx="514.59" cy="314.54" r="3.4"/><circle class="cls-3" cx="514.59" cy="338.33" r="3.4"/><circle class="cls-3" cx="320.27" cy="419.72" r="3.4"/><circle class="cls-3" cx="341.02" cy="419.72" r="3.4"/><circle class="cls-3" cx="385.55" cy="419.72" r="3.4"/><circle class="cls-3" cx="406.72" cy="419.72" r="3.4"/><circle class="cls-3" cx="427.89" cy="419.72" r="3.4"/><circle class="cls-3" cx="449.06" cy="419.72" r="3.4"/><circle class="cls-3" cx="470.23" cy="419.72" r="3.4"/><circle class="cls-3" cx="491.39" cy="419.72" r="3.4"/><circle class="cls-3" cx="514.59" cy="419.72" r="3.4"/><circle class="cls-3" cx="385.11" cy="38.61" r="3.4"/><circle class="cls-3" cx="385.11" cy="57.92" r="3.4"/><circle class="cls-3" cx="340.57" cy="38.66" r="3.4"/><circle class="cls-3" cx="340.57" cy="57.96" r="3.4"/><circle class="cls-3" cx="211.87" cy="38.61" r="3.4"/><circle class="cls-3" cx="211.87" cy="57.92" r="3.4"/><circle class="cls-3" cx="173.62" cy="38.61" r="3.4"/><circle class="cls-3" cx="173.62" cy="57.92" r="3.4"/><circle class="cls-3" cx="20.87" cy="42.02" r="3.4"/><circle class="cls-3" cx="20.87" cy="64.67" r="3.4"/><circle class="cls-3" cx="406.43" cy="77.25" r="3.4"/><circle class="cls-3" cx="385.11" cy="77.25" r="3.4"/><circle class="cls-3" cx="340.57" cy="77.25" r="3.4"/><circle class="cls-3" cx="319.41" cy="77.25" r="3.4"/><circle class="cls-3" cx="298.24" cy="77.25" r="3.4"/><circle class="cls-3" cx="277.07" cy="77.25" r="3.4"/><circle class="cls-3" cx="255.9" cy="77.25" r="3.4"/><circle class="cls-3" cx="234.73" cy="77.25" r="3.4"/><circle class="cls-3" cx="211.87" cy="77.25" r="3.4"/><circle class="cls-3" cx="211.87" cy="99.75" r="3.4"/><circle class="cls-3" cx="192.23" cy="77.25" r="3.4"/><circle class="cls-3" cx="173.62" cy="77.25" r="3.4"/><circle class="cls-3" cx="84.36" cy="77.25" r="3.4"/><circle class="cls-3" cx="63.19" cy="77.25" r="3.4"/><circle class="cls-3" cx="42.03" cy="77.25" r="3.4"/><circle class="cls-3" cx="20.87" cy="87.32" r="3.4"/><circle class="cls-3" cx="211.87" cy="200.58" r="3.4"/><circle class="cls-3" cx="192.55" cy="200.58" r="3.4"/><circle class="cls-3" cx="173.62" cy="200.58" r="3.4"/><circle class="cls-3" cx="150.77" cy="200.58" r="3.4"/><circle class="cls-3" cx="130.27" cy="200.58" r="3.4"/><circle class="cls-3" cx="130.27" cy="200.58" r="3.4"/><circle class="cls-3" cx="106.67" cy="200.58" r="3.4"/><circle class="cls-3" cx="150.77" cy="238.51" r="3.4"/><circle class="cls-3" cx="130.27" cy="238.51" r="3.4"/><circle class="cls-3" cx="130.27" cy="238.51" r="3.4"/><circle class="cls-3" cx="106.67" cy="238.51" r="3.4"/><circle class="cls-3" cx="150.77" cy="314.54" r="3.4"/><circle class="cls-3" cx="130.27" cy="314.54" r="3.4"/><circle class="cls-3" cx="130.27" cy="314.54" r="3.4"/><circle class="cls-3" cx="106.67" cy="314.54" r="3.4"/><circle class="cls-3" cx="150.77" cy="361.84" r="3.4"/><circle class="cls-3" cx="130.27" cy="361.84" r="3.4"/><circle class="cls-3" cx="130.27" cy="361.84" r="3.4"/><circle class="cls-3" cx="106.67" cy="361.84" r="3.4"/><circle class="cls-3" cx="150.77" cy="419.72" r="3.4"/><circle class="cls-3" cx="130.27" cy="419.72" r="3.4"/><circle class="cls-3" cx="130.27" cy="419.72" r="3.4"/><circle class="cls-3" cx="106.67" cy="419.72" r="3.4"/><circle class="cls-3" cx="150.77" cy="124.28" r="3.4"/><circle class="cls-3" cx="130.27" cy="124.28" r="3.4"/><circle class="cls-3" cx="130.27" cy="124.28" r="3.4"/><circle class="cls-3" cx="106.67" cy="124.28" r="3.4"/><circle class="cls-3" cx="150.77" cy="77.96" r="3.4"/><circle class="cls-3" cx="130.27" cy="77.96" r="3.4"/><circle class="cls-3" cx="130.27" cy="77.96" r="3.4"/><circle class="cls-3" cx="106.67" cy="77.96" r="3.4"/><circle class="cls-3" cx="150.77" cy="19.37" r="3.4"/><circle class="cls-3" cx="130.27" cy="19.37" r="3.4"/><circle class="cls-3" cx="130.27" cy="19.37" r="3.4"/><circle class="cls-3" cx="106.67" cy="19.37" r="3.4"/><circle class="cls-3" cx="83.87" cy="200.58" r="3.4"/><circle class="cls-3" cx="62.41" cy="200.58" r="3.4"/><circle class="cls-3" cx="42.07" cy="200.58" r="3.4"/><circle class="cls-3" cx="20.87" cy="200.58" r="3.4"/><circle class="cls-3" cx="62.41" cy="100.76" r="3.4"/><circle class="cls-3" cx="20.87" cy="109.97" r="3.4"/><circle class="cls-3" cx="20.87" cy="155.28" r="3.4"/><circle class="cls-3" cx="20.87" cy="177.93" r="3.4"/><circle class="cls-3" cx="62.41" cy="149.83" r="3.4"/><circle class="cls-3" cx="62.41" cy="175.2" r="3.4"/><circle class="cls-3" cx="173.62" cy="149.83" r="3.4"/><circle class="cls-3" cx="173.62" cy="175.2" r="3.4"/><circle class="cls-3" cx="211.87" cy="149.83" r="3.4"/><circle class="cls-3" cx="211.87" cy="175.2" r="3.4"/><circle class="cls-3" cx="211.87" cy="124.46" r="3.4"/><circle class="cls-3" cx="173.62" cy="124.46" r="3.4"/><circle class="cls-3" cx="83.87" cy="124.46" r="3.4"/><circle class="cls-3" cx="62.41" cy="124.46" r="3.4"/><circle class="cls-3" cx="20.87" cy="132.62" r="3.4"/><circle class="cls-3" cx="405.86" cy="19.37" r="3.4"/><circle class="cls-3" cx="385.11" cy="19.37" r="3.4"/><circle class="cls-3" cx="340.57" cy="19.37" r="3.4"/><circle class="cls-3" cx="319.41" cy="19.37" r="3.4"/><circle class="cls-3" cx="298.24" cy="19.37" r="3.4"/><circle class="cls-3" cx="277.07" cy="19.37" r="3.4"/><circle class="cls-3" cx="255.9" cy="19.37" r="3.4"/><circle class="cls-3" cx="234.73" cy="19.37" r="3.4"/><circle class="cls-3" cx="211.87" cy="19.37" r="3.4"/><circle class="cls-3" cx="173.62" cy="19.37" r="3.4"/><circle class="cls-3" cx="84.36" cy="19.37" r="3.4"/><circle class="cls-3" cx="63.19" cy="19.37" r="3.4"/><circle class="cls-3" cx="42.03" cy="19.37" r="3.4"/><circle class="cls-3" cx="20.87" cy="19.37" r="3.4"/><circle class="cls-3" cx="211.87" cy="400.48" r="3.4"/><circle class="cls-3" cx="211.87" cy="381.17" r="3.4"/><circle class="cls-3" cx="173.62" cy="400.48" r="3.4"/><circle class="cls-3" cx="173.62" cy="381.17" r="3.4"/><circle class="cls-3" cx="20.87" cy="397.07" r="3.4"/><circle class="cls-3" cx="20.87" cy="374.42" r="3.4"/><circle class="cls-3" cx="298.24" cy="361.84" r="3.4"/><circle class="cls-3" cx="277.07" cy="361.84" r="3.4"/><circle class="cls-3" cx="255.9" cy="361.84" r="3.4"/><circle class="cls-3" cx="234.73" cy="361.84" r="3.4"/><circle class="cls-3" cx="211.87" cy="361.84" r="3.4"/><circle class="cls-3" cx="192.23" cy="361.84" r="3.4"/><circle class="cls-3" cx="173.62" cy="361.84" r="3.4"/><circle class="cls-3" cx="84.36" cy="361.84" r="3.4"/><circle class="cls-3" cx="63.19" cy="361.84" r="3.4"/><circle class="cls-3" cx="42.03" cy="361.84" r="3.4"/><circle class="cls-3" cx="20.87" cy="351.77" r="3.4"/><circle class="cls-3" cx="211.87" cy="238.51" r="3.4"/><circle class="cls-3" cx="192.23" cy="238.51" r="3.4"/><circle class="cls-3" cx="173.62" cy="238.51" r="3.4"/><circle class="cls-3" cx="83.87" cy="238.51" r="3.4"/><circle class="cls-3" cx="62.41" cy="238.51" r="3.4"/><circle class="cls-3" cx="42.07" cy="238.51" r="3.4"/><circle class="cls-3" cx="20.87" cy="238.51" r="3.4"/><circle class="cls-3" cx="20.87" cy="219.54" r="3.4"/><circle class="cls-3" cx="62.41" cy="338.33" r="3.4"/><circle class="cls-3" cx="20.87" cy="329.12" r="3.4"/><circle class="cls-3" cx="20.87" cy="283.81" r="3.4"/><circle class="cls-3" cx="20.87" cy="262.47" r="3.4"/><circle class="cls-3" cx="62.41" cy="289.26" r="3.4"/><circle class="cls-3" cx="62.41" cy="262.47" r="3.4"/><circle class="cls-3" cx="173.62" cy="289.26" r="3.4"/><circle class="cls-3" cx="173.62" cy="262.47" r="3.4"/><circle class="cls-3" cx="211.87" cy="289.26" r="3.4"/><circle class="cls-3" cx="211.87" cy="262.47" r="3.4"/><circle class="cls-3" cx="211.87" cy="314.54" r="3.4"/><circle class="cls-3" cx="211.87" cy="338.33" r="3.4"/><circle class="cls-3" cx="173.62" cy="314.54" r="3.4"/><circle class="cls-3" cx="83.87" cy="314.54" r="3.4"/><circle class="cls-3" cx="62.41" cy="314.54" r="3.4"/><circle class="cls-3" cx="20.87" cy="306.47" r="3.4"/><circle class="cls-3" cx="340.57" cy="419.72" r="3.4"/><circle class="cls-3" cx="298.24" cy="419.72" r="3.4"/><circle class="cls-3" cx="277.07" cy="419.72" r="3.4"/><circle class="cls-3" cx="255.9" cy="419.72" r="3.4"/><circle class="cls-3" cx="234.73" cy="419.72" r="3.4"/><circle class="cls-3" cx="211.87" cy="419.72" r="3.4"/><circle class="cls-3" cx="173.62" cy="419.72" r="3.4"/><circle class="cls-3" cx="84.36" cy="419.72" r="3.4"/><circle class="cls-3" cx="63.19" cy="419.72" r="3.4"/><circle class="cls-3" cx="42.03" cy="419.72" r="3.4"/><circle class="cls-3" cx="20.87" cy="419.72" r="3.4"/><circle class="cls-3" cx="552.85" cy="38.61" r="3.4"/><circle class="cls-3" cx="552.85" cy="57.92" r="3.4"/><circle class="cls-3" cx="705.6" cy="42.02" r="3.4"/><circle class="cls-3" cx="705.6" cy="64.67" r="3.4"/><circle class="cls-3" cx="534.24" cy="77.25" r="3.4"/><circle class="cls-3" cx="552.85" cy="77.25" r="3.4"/><circle class="cls-3" cx="642.11" cy="77.25" r="3.4"/><circle class="cls-3" cx="663.27" cy="77.25" r="3.4"/><circle class="cls-3" cx="684.43" cy="77.25" r="3.4"/><circle class="cls-3" cx="705.6" cy="87.32" r="3.4"/><circle class="cls-3" cx="533.91" cy="200.58" r="3.4"/><circle class="cls-3" cx="552.85" cy="200.58" r="3.4"/><circle class="cls-3" cx="575.7" cy="200.58" r="3.4"/><circle class="cls-3" cx="596.19" cy="200.58" r="3.4"/><circle class="cls-3" cx="596.19" cy="200.58" r="3.4"/><circle class="cls-3" cx="619.8" cy="200.58" r="3.4"/><circle class="cls-3" cx="575.7" cy="238.51" r="3.4"/><circle class="cls-3" cx="596.19" cy="238.51" r="3.4"/><circle class="cls-3" cx="596.19" cy="238.51" r="3.4"/><circle class="cls-3" cx="619.8" cy="238.51" r="3.4"/><circle class="cls-3" cx="575.7" cy="314.54" r="3.4"/><circle class="cls-3" cx="596.19" cy="314.54" r="3.4"/><circle class="cls-3" cx="596.19" cy="314.54" r="3.4"/><circle class="cls-3" cx="619.8" cy="314.54" r="3.4"/><circle class="cls-3" cx="575.7" cy="361.84" r="3.4"/><circle class="cls-3" cx="596.19" cy="361.84" r="3.4"/><circle class="cls-3" cx="596.19" cy="361.84" r="3.4"/><circle class="cls-3" cx="619.8" cy="361.84" r="3.4"/><circle class="cls-3" cx="575.7" cy="419.72" r="3.4"/><circle class="cls-3" cx="596.19" cy="419.72" r="3.4"/><circle class="cls-3" cx="596.19" cy="419.72" r="3.4"/><circle class="cls-3" cx="619.8" cy="419.72" r="3.4"/><circle class="cls-3" cx="575.7" cy="124.28" r="3.4"/><circle class="cls-3" cx="596.19" cy="124.28" r="3.4"/><circle class="cls-3" cx="596.19" cy="124.28" r="3.4"/><circle class="cls-3" cx="619.8" cy="124.28" r="3.4"/><circle class="cls-3" cx="575.7" cy="77.96" r="3.4"/><circle class="cls-3" cx="596.19" cy="77.96" r="3.4"/><circle class="cls-3" cx="596.19" cy="77.96" r="3.4"/><circle class="cls-3" cx="619.8" cy="77.96" r="3.4"/><circle class="cls-3" cx="575.7" cy="19.37" r="3.4"/><circle class="cls-3" cx="596.19" cy="19.37" r="3.4"/><circle class="cls-3" cx="596.19" cy="19.37" r="3.4"/><circle class="cls-3" cx="619.8" cy="19.37" r="3.4"/><circle class="cls-3" cx="642.6" cy="200.58" r="3.4"/><circle class="cls-3" cx="664.06" cy="200.58" r="3.4"/><circle class="cls-3" cx="684.4" cy="200.58" r="3.4"/><circle class="cls-3" cx="705.6" cy="200.58" r="3.4"/><circle class="cls-3" cx="664.06" cy="100.76" r="3.4"/><circle class="cls-3" cx="705.6" cy="109.97" r="3.4"/><circle class="cls-3" cx="705.6" cy="155.28" r="3.4"/><circle class="cls-3" cx="705.6" cy="177.93" r="3.4"/><circle class="cls-3" cx="664.06" cy="149.83" r="3.4"/><circle class="cls-3" cx="664.06" cy="175.2" r="3.4"/><circle class="cls-3" cx="552.85" cy="149.83" r="3.4"/><circle class="cls-3" cx="552.85" cy="175.2" r="3.4"/><circle class="cls-3" cx="552.85" cy="124.46" r="3.4"/><circle class="cls-3" cx="642.6" cy="124.46" r="3.4"/><circle class="cls-3" cx="664.06" cy="124.46" r="3.4"/><circle class="cls-3" cx="705.6" cy="132.62" r="3.4"/><circle class="cls-3" cx="552.85" cy="19.37" r="3.4"/><circle class="cls-3" cx="642.11" cy="19.37" r="3.4"/><circle class="cls-3" cx="663.27" cy="19.37" r="3.4"/><circle class="cls-3" cx="684.43" cy="19.37" r="3.4"/><circle class="cls-3" cx="705.6" cy="19.37" r="3.4"/><circle class="cls-3" cx="552.85" cy="400.48" r="3.4"/><circle class="cls-3" cx="552.85" cy="381.17" r="3.4"/><circle class="cls-3" cx="705.6" cy="397.07" r="3.4"/><circle class="cls-3" cx="705.6" cy="374.42" r="3.4"/><circle class="cls-3" cx="534.24" cy="361.84" r="3.4"/><circle class="cls-3" cx="552.85" cy="361.84" r="3.4"/><circle class="cls-3" cx="642.11" cy="361.84" r="3.4"/><circle class="cls-3" cx="663.27" cy="361.84" r="3.4"/><circle class="cls-3" cx="684.43" cy="361.84" r="3.4"/><circle class="cls-3" cx="705.6" cy="351.77" r="3.4"/><circle class="cls-3" cx="534.24" cy="238.51" r="3.4"/><circle class="cls-3" cx="552.85" cy="238.51" r="3.4"/><circle class="cls-3" cx="642.6" cy="238.51" r="3.4"/><circle class="cls-3" cx="664.06" cy="238.51" r="3.4"/><circle class="cls-3" cx="684.4" cy="238.51" r="3.4"/><circle class="cls-3" cx="705.6" cy="238.51" r="3.4"/><circle class="cls-3" cx="705.6" cy="219.54" r="3.4"/><circle class="cls-3" cx="664.06" cy="338.33" r="3.4"/><circle class="cls-3" cx="705.6" cy="329.12" r="3.4"/><circle class="cls-3" cx="705.6" cy="283.81" r="3.4"/><circle class="cls-3" cx="705.6" cy="262.47" r="3.4"/><circle class="cls-3" cx="664.06" cy="289.26" r="3.4"/><circle class="cls-3" cx="664.06" cy="262.47" r="3.4"/><circle class="cls-3" cx="552.85" cy="289.26" r="3.4"/><circle class="cls-3" cx="552.85" cy="262.47" r="3.4"/><circle class="cls-3" cx="552.85" cy="314.54" r="3.4"/><circle class="cls-3" cx="642.6" cy="314.54" r="3.4"/><circle class="cls-3" cx="664.06" cy="314.54" r="3.4"/><circle class="cls-3" cx="705.6" cy="306.47" r="3.4"/><circle class="cls-3" cx="552.85" cy="419.72" r="3.4"/><circle class="cls-3" cx="642.11" cy="419.72" r="3.4"/><circle class="cls-3" cx="663.27" cy="419.72" r="3.4"/><circle class="cls-3" cx="684.43" cy="419.72" r="3.4"/><circle class="cls-3" cx="705.6" cy="419.72" r="3.4"/><path class="cls-4" d="M304.05 278a8.88 8.88 0 1 0 .84 9l-7.2-3.81z" transform="translate(152.06 77.9)"/><path class="cls-2" d="M342 12.93H80.37a9.5 9.5 0 0 0-9.47 9.47v238.48a9.5 9.5 0 0 0 9.47 9.47H192v-17.89H98.26a9.5 9.5 0 0 1-9.47-9.46V40.29a9.5 9.5 0 0 1 9.47-9.47h225.81a9.5 9.5 0 0 1 9.47 9.47V243a9.5 9.5 0 0 1-9.47 9.47H231v17.89h111a9.5 9.5 0 0 0 9.47-9.47V22.4a9.5 9.5 0 0 0-9.47-9.47z" transform="translate(152.06 77.9)"/><path class="cls-5" d="M136.44 64.67h12.06v9.24h-12.06v2.57h14.63v10.77h-27.46V51.32h27.46V62.1h-14.63zm43.11 22.58h-12.83l-13.09-35.93h14.11l4.36 16.42a21.67 21.67 0 0 1 .77 5.13h.51a21.68 21.68 0 0 1 .77-5.13l4.36-16.42h14.11zm29-22.58h12.06v9.24h-12.06v2.57h14.63v10.77h-27.46V51.32h27.46V62.1h-14.63zm35.92-13.35c11.8 0 16.42 4.62 16.42 12.06 0 6.93-6.42 9-6.42 9v.46c4.11 1.54 2.57 4.62 7.7 4.62v9.75A20.51 20.51 0 0 1 257 88c-12.83 0-8.73-10.52-14.37-10.52h-1v9.75h-12.81V51.32zm0 15.65c2.05 0 3.08-1 3.08-2.57s-1-2.57-3.08-2.57h-2.82V67zm42.86 20.28H274.5V74.93l-12.83-23.61h13.86l4.11 9.24a12.73 12.73 0 0 1 1 4.62h.51a12.73 12.73 0 0 1 1-4.62l4.11-9.24h13.86l-12.79 23.61zM148.91 200.68l-5.27-10.54a40 40 0 0 1-2.46-6.33h-.7a38.85 38.85 0 0 1 .7 6.33v19h-17.57v-49.2h21.08l8.08 16.16a17.43 17.43 0 0 1 1.41 6.33h.7a17.43 17.43 0 0 1 1.41-6.33l8.08-16.16h21.08v49.2h-17.57v-19a38.85 38.85 0 0 1 .7-6.33h-.7a40 40 0 0 1-2.46 6.33l-5.27 10.54zm45.03-41.03h17.66v49.47h-17.66zm43.81 33.92h18.73v15.55h-36.4v-49.47h17.67zM279.8 178h16.6v12.72h-16.6v3.53h20.14v14.84h-37.81v-49.44h37.81v14.84H279.8zm-144.26-58.26h11.69v9.55h-11.69v11h-11.93v-33.44h25.54v10h-13.6zm24.34 6.44l-6.21-3.34 2.63-4.53-4.77-1.43 1.91-6.44 5.25 1.67v-5.25h7.64v5.25l5.25-1.67 1.91 6.44-4.77 1.43 2.63 4.53-6.21 3.34-2.63-4.53zm48.93-9.54a8.2 8.2 0 0 1-.72 3.34h-11.45a3.46 3.46 0 0 0 .24-1.43c0-1.43-1.19-2.63-3.1-2.63-2.86 0-5 2.15-5 7.16 0 5.49 2.63 8.11 6.92 8.11s7.4-3.34 7.4-3.34l5.73 7.64a21.83 21.83 0 0 1-14.58 5.51c-11.46 0-17.9-6.44-17.9-17.42s6.44-17.42 17.9-17.42c9.75-.03 14.56 4.75 14.56 10.48zm17.42 11.93H225v11.69h-11.9v-33.41H225v11.22h1l6.21-11.22h13.6L236 122.6v.48l11 17.18h-14.09zm22.67-21.72h11.93v33.41H248.9zm39.1 33.41l-7.64-11a12.91 12.91 0 0 1-1.91-4.3H278a22.71 22.71 0 0 1 .48 4.3v11h-11.92v-33.41h11.94l7.64 11a12.91 12.91 0 0 1 1.91 4.3h.48a22.71 22.71 0 0 1-.48-4.3v-11H300v33.41z" transform="translate(152.06 77.9)"/><path class="cls-6" d="M275.67 171.84h176.37v6.28H275.67zm0 52.96h176.37v6.28H275.67z"/><circle class="cls-7" cx="302.88" cy="307.31" r="6.42"/><circle class="cls-8" cx="327.26" cy="307.31" r="6.42"/><circle class="cls-9" cx="351.64" cy="307.31" r="6.42"/><circle class="cls-6" cx="376.02" cy="307.31" r="6.42"/><circle class="cls-10" cx="400.4" cy="307.31" r="6.42"/><circle class="cls-11" cx="424.79" cy="307.31" r="6.42"/></svg>