<svg id="Camada_1" data-name="Camada 1" xmlns="http://www.w3.org/2000/svg" viewBox="0 0 67.65 20.5"><defs><style>.cls-1{fill:#fff}</style></defs><title>logo-123milhas-rodape-todabranca</title><path class="cls-1" d="M40.73 12.88a2 2 0 0 0-.68-.69 1.91 1.91 0 0 0-1-.26A2.27 2.27 0 0 0 36.94 13a2.53 2.53 0 0 0-.76-.81 1.91 1.91 0 0 0-1-.25 2.37 2.37 0 0 0-1 .22 1.7 1.7 0 0 0-.77.73V12h-2v6.23h2V14a1.19 1.19 0 0 1 .38-.35 1.07 1.07 0 0 1 .55-.14.72.72 0 0 1 .69.36 2.47 2.47 0 0 1 .2 1.14v3.26h2v-3.75a3.09 3.09 0 0 0-.07-.49 1.83 1.83 0 0 1 .43-.36 1.12 1.12 0 0 1 .59-.15.72.72 0 0 1 .69.36 2.48 2.48 0 0 1 .2 1.14v3.26h2v-3.22a6 6 0 0 0-.11-1.19 3.09 3.09 0 0 0-.23-.99zm3.01-3.8a1.09 1.09 0 0 0-.83.33 1.2 1.2 0 0 0 0 1.63 1.2 1.2 0 0 0 1.65 0 1.2 1.2 0 0 0 0-1.63 1.1 1.1 0 0 0-.82-.33z" transform="translate(-1.38 -.42)"/><path class="cls-1" d="M41.34 11.63h2.04v6.23h-2.04z"/><path class="cls-1" d="M48.79 16.88a.48.48 0 0 1-.39-.13.62.62 0 0 1-.1-.38V9.3h-2v7.3a2.54 2.54 0 0 0 .09.67 1.57 1.57 0 0 0 .29.58 1.43 1.43 0 0 0 .55.41 2.11 2.11 0 0 0 .85.15 4.82 4.82 0 0 0 .67 0 3.57 3.57 0 0 0 .58-.12l-.06-1.4a3 3 0 0 1-.48-.01zm6.91-4a2.11 2.11 0 0 0-.71-.69 2 2 0 0 0-1.06-.26 2.15 2.15 0 0 0-.94.21 1.69 1.69 0 0 0-.72.65V9.3h-2v9h2V14a1.18 1.18 0 0 1 .38-.35 1.07 1.07 0 0 1 .55-.14.82.82 0 0 1 .74.36 2.09 2.09 0 0 1 .24 1.13v3.26h2v-3.2a5.64 5.64 0 0 0-.12-1.19 3 3 0 0 0-.36-.99zm4.6-.96a5.17 5.17 0 0 0-1.32.16 4.37 4.37 0 0 0-1 .41l.37 1.41a3.46 3.46 0 0 1 .76-.28 3.63 3.63 0 0 1 .86-.1c.75 0 1.13.34 1.13 1v.2h-1.51a2.74 2.74 0 0 0-1.53.52 1.58 1.58 0 0 0-.54 1.3 2 2 0 0 0 .12.69 1.66 1.66 0 0 0 .34.56 1.53 1.53 0 0 0 .55.38 1.87 1.87 0 0 0 .75.14 2.67 2.67 0 0 0 1.1-.22 2.54 2.54 0 0 0 .8-.52v.61h2v-3.54a2.64 2.64 0 0 0-.74-2 2.91 2.91 0 0 0-2.14-.72zm.75 4.87a2.21 2.21 0 0 1-.48.2 2 2 0 0 1-.55.08.66.66 0 0 1-.45-.14.47.47 0 0 1-.16-.37c0-.34.21-.53.62-.58l.47-.06.55-.06zm7.77-1.33a2.08 2.08 0 0 0-.5-.55 2.9 2.9 0 0 0-.64-.38l-.62-.25-.61-.24a.33.33 0 0 1-.23-.31.28.28 0 0 1 .2-.29 1.81 1.81 0 0 1 .57-.07 3.22 3.22 0 0 1 .8.1 4.15 4.15 0 0 1 .72.25l.28-1.34a3.31 3.31 0 0 0-.93-.36 4.93 4.93 0 0 0-1.07-.11 3.06 3.06 0 0 0-1.79.49 1.71 1.71 0 0 0-.69 1.5 1.69 1.69 0 0 0 .14.71 1.73 1.73 0 0 0 .39.54 2.43 2.43 0 0 0 .59.41 6.49 6.49 0 0 0 .74.31l.73.27a.33.33 0 0 1 .24.32.37.37 0 0 1-.27.36 1.73 1.73 0 0 1-.64.11 5.08 5.08 0 0 1-.83-.08 4.08 4.08 0 0 1-.87-.25l-.3 1.4a4.9 4.9 0 0 0 1 .29 6.48 6.48 0 0 0 1.07.09 3.94 3.94 0 0 0 1.09-.14 2.51 2.51 0 0 0 .86-.41 1.85 1.85 0 0 0 .56-.68 2.1 2.1 0 0 0 .2-.93 1.44 1.44 0 0 0-.19-.76z" transform="translate(-1.38 -.42)"/><path class="cls-1" d="M0 6.98v10.79h2.55V0H0v6.98z"/><path class="cls-1" d="M22.31 15.4a.69.69 0 0 0 0-1l-2.81-2.69a.71.71 0 0 0-1 0l-3.72 3.88-1.36 1.42a.68.68 0 0 0-.19.49.69.69 0 0 0 .21.48l.16.15.08.08.11-.08a1.67 1.67 0 0 1 1.8 0 1.52 1.52 0 0 1 .22.18 1.62 1.62 0 0 1 .19 2.18l.24.24a.69.69 0 0 0 1 0l2.41-2.52 2.44-2.55zm-6.85 1a.33.33 0 0 1-.34-.32.33.33 0 1 1 .34.32zm.85.81a.33.33 0 1 1 .32-.33.33.33 0 0 1-.32.38zm.85.83a.33.33 0 1 1 .32-.34.33.33 0 0 1-.32.39zm.85.83a.33.33 0 1 1 0-.65.33.33 0 1 1 0 .65zm2-4.46l-.58.53.57 1.3a.11.11 0 0 1 0 .13.11.11 0 0 1-.13 0l-.95-.91-.56.51.18.42a.09.09 0 0 1 0 .11.09.09 0 0 1-.11 0l-.83-.8a.09.09 0 0 1 .1-.15l.45.17.49-.58-1-.92a.11.11 0 0 1 0-.13.1.1 0 0 1 .13 0l1.33.52.51-.6c.12-.12.47-.23.57-.12s-.03.45-.18.57z" transform="translate(-1.38 -.42)"/><path class="cls-1" d="M28 6.77c0-.08 0-.17.06-.25a4.94 4.94 0 0 0 .11-1 5 5 0 0 0-.17-1.3 5.2 5.2 0 0 0-.36-1l-.08-.16-.09-.06A5.1 5.1 0 0 0 23.06.42h-.32a5.68 5.68 0 0 0-5.07 3.16c-.08-.16-.17-.32-.26-.48a5.59 5.59 0 0 0-.79-1 5.7 5.7 0 0 0-1-.77 5.66 5.66 0 0 0-8.65 4.8v1.22h2.52V6.08a3.11 3.11 0 0 1 5.31-2.2A3.08 3.08 0 0 1 15.52 5a3.11 3.11 0 0 1-.73 3.22l-1.34 1.39-.89.89-.87.91-6.45 6.78H13a1.12 1.12 0 0 1 .11-1.43l1.07-1.12h-3l2.29-2.45.91-.91 2.21-2.21a5.62 5.62 0 0 0 1.51-2.72h1.53V6.08a3.11 3.11 0 0 1 5.31-2.2 2.06 2.06 0 0 1 .61 1.17 2.54 2.54 0 0 1-2.49 3h-1.27v2.55h1.27a2.53 2.53 0 0 1 0 5.07h-.38l-.05.06-2.38 2.48h2.82A5.08 5.08 0 0 0 28 14.38a4.89 4.89 0 0 0 0-2.55 5.08 5.08 0 0 0-1.59-2.53A5.08 5.08 0 0 0 28 6.77z" transform="translate(-1.38 -.42)"/></svg>