<svg id="Camada_1" data-name="Camada 1" xmlns="http://www.w3.org/2000/svg" viewBox="0 0 1536 1534.15"><defs><style>.cls-1{fill:#eee}.cls-2{fill:#54cc61}.cls-3{fill:#fffffe}.cls-4{fill:none}</style></defs><title>Prancheta 1</title><path id="_316005568" data-name="316005568" class="cls-1" d="M475 1383l-364.6 116L0 1534.15 155.09 1076A724 724 0 0 1 67 729.42c0-194.59 77.42-379.06 215.43-516C420.85 76.1 606.71 0 801.69 0s380.68 76.2 519 213.57c138 137 215.28 321.5 215.28 516.09s-77.4 379-215.38 515.9C1182.21 1382.88 996.42 1459 801.48 1459a739.83 739.83 0 0 1-183.39-23A731.71 731.71 0 0 1 475 1383z"/><path id="_316005808" data-name="316005808" class="cls-2" d="M1432.89 731c0-173.38-70.79-330.35-185.24-444a632.5 632.5 0 0 0-447-183.91c-174.69 0-332.82 70.26-447.31 183.83S167.95 557.5 167.95 730.8a622.77 622.77 0 0 0 87.46 318.63l-109.58 323.65-8.66 25.59 25.74-8.19 337-107.25a630 630 0 0 0 142.48 55.65 637 637 0 0 0 605.16-164c114.51-113.61 185.32-270.54 185.32-443.81z"/><path id="_316006024" data-name="316006024" class="cls-3" d="M697.77 559.61c-2.78-5.59-18.8-44.3-33.57-80-9.44-22.81-18.45-44.56-20.21-48.77-16.64-39.66-35-38.47-49.12-37.55-.93.06-1.82.12-3 .12-4.92 0-9.76-.31-14.77-.62-6.27-.4-12.77-.81-18.92-.81a74.34 74.34 0 0 0-31 7.18 81.7 81.7 0 0 0-25.87 19.21c-1.2 1.29-2.1 2.24-3.08 3.27-19.53 20.53-62.09 65.27-62.09 151.2 0 90.14 65 175.86 74.55 188.45l.09.12.11.11c.37.48 1.75 2.5 3.79 5.48 24 35.11 134.36 196.51 302.13 262 152.2 59.39 179.74 52.72 204.33 46.77a87.45 87.45 0 0 1 12.7-2.41c19.92-1.87 52.51-15.51 79.93-34.66 22.75-15.89 42.61-36 50.21-57.1a239.42 239.42 0 0 0 12.4-50.91c2.58-21 .54-37.51-3.28-43.89l-.05-.05c-5.81-9.57-15.85-14.31-30.92-21.43-2.66-1.25-5.5-2.59-8.23-3.92-10.39-5.28-46.34-22.86-77.08-37.39-19.86-9.39-37.5-17.45-44.49-20-9.83-3.53-18.39-6.2-27.57-5.16-10.41 1.17-19.49 6.54-27.91 19.29-4.23 6.35-11.67 15.87-19.81 25.84-12.89 15.79-28.27 33.53-34.83 41v.05c-2.8 3.19-5.21 4.92-7.58 5.21-3.28.4-7.8-.95-14-4-4-2-7.89-3.68-12.69-5.75-24.3-10.49-71.64-30.91-125.59-78.67a447.36 447.36 0 0 1-50.46-53.27 524.82 524.82 0 0 1-44.63-64.26c-4.87-8.34.54-13.75 5.53-18.75 5.52-5.51 11.77-13 18-20.56 2.85-3.43 5.71-6.87 9.18-10.87l.05-.05c8.45-9.83 12-17 16.69-26.65.82-1.68 1.69-3.44 2.56-5.18l.05-.05a42.58 42.58 0 0 0 4.45-23.83 53 53 0 0 0-5.89-18.72z"/><path class="cls-4" d="M-256-256.93h2048v2048H-256z"/></svg>