<?xml version="1.0" encoding="utf-8"?>
<!-- Generator: Adobe Illustrator 20.0.0, SVG Export Plug-In . SVG Version: 6.00 Build 0)  -->
<svg version="1.1" id="Camada_1" xmlns="http://www.w3.org/2000/svg" xmlns:xlink="http://www.w3.org/1999/xlink" x="0px" y="0px"
	 viewBox="0 0 190.2 71" style="enable-background:new 0 0 190.2 71;" xml:space="preserve">
<style type="text/css">
	.st0{fill:#1D1D1B;}
</style>
<g>
	<path class="st0" d="M100.8,63.7c-0.3,0.6-0.6,1-0.9,1.2c-0.4,0.3-1,0.4-1.8,0.4h-6.4l5.5-11.6l-11.4-26h7.5c0.7,0,1.2,0.1,1.5,0.4
		c0.4,0.3,0.6,0.6,0.8,1l4.7,12.3c0.4,1.1,0.8,2.3,1.1,3.4c0.2-0.6,0.4-1.2,0.6-1.7c0.2-0.6,0.4-1.1,0.6-1.7l4.2-12.2
		c0.1-0.4,0.4-0.8,0.9-1.1c0.4-0.3,0.9-0.4,1.4-0.4h6.9L100.8,63.7z"/>
	<path class="st0" d="M130.5,27.3c2.2,0,4.1,0.3,5.9,1c1.8,0.7,3.3,1.7,4.6,2.9c1.3,1.3,2.3,2.8,3,4.6c0.7,1.8,1.1,3.8,1.1,6.1
		c0,2.3-0.4,4.3-1.1,6.1c-0.7,1.8-1.7,3.4-3,4.6c-1.3,1.3-2.8,2.3-4.6,2.9c-1.8,0.7-3.7,1-5.9,1c-2.2,0-4.2-0.3-6-1
		c-1.8-0.7-3.3-1.7-4.6-2.9c-1.3-1.3-2.3-2.8-3-4.6c-0.7-1.8-1.1-3.9-1.1-6.1c0-2.3,0.4-4.3,1.1-6.1c0.7-1.8,1.7-3.3,3-4.6
		c1.3-1.3,2.8-2.2,4.6-2.9C126.3,27.7,128.3,27.3,130.5,27.3z M130.5,50.4c2,0,3.4-0.7,4.3-2.1c0.9-1.4,1.4-3.5,1.4-6.3
		c0-2.8-0.5-4.9-1.4-6.3c-0.9-1.4-2.4-2.1-4.3-2.1c-2,0-3.5,0.7-4.4,2.1c-0.9,1.4-1.4,3.5-1.4,6.3c0,2.8,0.5,4.9,1.4,6.3
		C127,49.7,128.5,50.4,130.5,50.4z"/>
	<path class="st0" d="M156.9,27.8v18.1c0,1.4,0.3,2.5,1,3.3c0.6,0.8,1.6,1.2,2.8,1.2c0.9,0,1.8-0.2,2.6-0.6c0.8-0.4,1.6-0.9,2.4-1.6
		V27.8h8.5v28.5H169c-1.1,0-1.8-0.5-2.1-1.4l-0.5-1.6c-0.6,0.5-1.1,1-1.7,1.4c-0.6,0.4-1.2,0.8-1.9,1.1c-0.7,0.3-1.4,0.5-2.2,0.7
		c-0.8,0.2-1.6,0.3-2.5,0.3c-1.6,0-2.9-0.3-4.1-0.8c-1.2-0.5-2.2-1.3-3-2.3c-0.8-1-1.4-2.1-1.9-3.4c-0.4-1.3-0.6-2.8-0.6-4.3V27.8
		H156.9z"/>
	<path class="st0" d="M179.2,64.6c0-0.7,0.1-1.3,0.4-1.9c0.3-0.6,0.6-1.1,1-1.5c0.4-0.4,1-0.8,1.6-1c0.6-0.3,1.3-0.4,2-0.4
		c0.7,0,1.4,0.1,2,0.4c0.6,0.3,1.1,0.6,1.6,1c0.5,0.4,0.8,0.9,1.1,1.5c0.3,0.6,0.4,1.2,0.4,1.9c0,0.7-0.1,1.3-0.4,1.9
		c-0.3,0.6-0.6,1.1-1.1,1.5c-0.5,0.4-1,0.8-1.6,1c-0.6,0.2-1.3,0.4-2,0.4c-0.7,0-1.4-0.1-2-0.4c-0.6-0.2-1.1-0.6-1.6-1
		c-0.4-0.4-0.8-1-1-1.5C179.3,65.9,179.2,65.3,179.2,64.6z M188.4,27.8V44c0,1.7-0.1,3.5-0.3,5.2c-0.2,1.7-0.5,3.5-0.8,5.2h-6
		c-0.3-1.8-0.6-3.5-0.8-5.2c-0.2-1.7-0.3-3.4-0.3-5.2V27.8H188.4z"/>
	<g>
		<path class="st0" d="M111.3,67.7c0.1,0,0.1,0,0.2,0.1l0.5,0.6c-0.3,0.4-0.8,0.7-1.3,1c-0.5,0.2-1.1,0.3-1.8,0.3
			c-0.6,0-1.2-0.1-1.7-0.3c-0.5-0.2-0.9-0.5-1.3-0.9c-0.4-0.4-0.6-0.8-0.8-1.4c-0.2-0.5-0.3-1.1-0.3-1.7c0-0.6,0.1-1.2,0.3-1.8
			c0.2-0.5,0.5-1,0.9-1.4c0.4-0.4,0.8-0.7,1.3-0.9c0.5-0.2,1.1-0.3,1.7-0.3c0.6,0,1.2,0.1,1.6,0.3c0.5,0.2,0.9,0.5,1.2,0.8l-0.5,0.6
			c0,0-0.1,0.1-0.1,0.1c0,0-0.1,0-0.2,0c-0.1,0-0.2,0-0.3-0.1c-0.1-0.1-0.2-0.2-0.4-0.2c-0.2-0.1-0.3-0.2-0.6-0.2
			c-0.2-0.1-0.5-0.1-0.9-0.1c-0.4,0-0.8,0.1-1.1,0.2c-0.3,0.1-0.6,0.3-0.9,0.6c-0.2,0.3-0.4,0.6-0.6,1c-0.1,0.4-0.2,0.8-0.2,1.3
			c0,0.5,0.1,0.9,0.2,1.3c0.1,0.4,0.3,0.7,0.6,1c0.2,0.3,0.5,0.5,0.9,0.6c0.3,0.1,0.7,0.2,1.1,0.2c0.2,0,0.4,0,0.6,0
			c0.2,0,0.4-0.1,0.5-0.1c0.2-0.1,0.3-0.1,0.4-0.2c0.1-0.1,0.3-0.2,0.4-0.3C111.1,67.7,111.2,67.7,111.3,67.7z"/>
		<path class="st0" d="M121.5,65.4c0,0.6-0.1,1.2-0.3,1.7c-0.2,0.5-0.5,1-0.9,1.4c-0.4,0.4-0.8,0.7-1.3,0.9
			c-0.5,0.2-1.1,0.3-1.7,0.3c-0.6,0-1.2-0.1-1.7-0.3c-0.5-0.2-1-0.5-1.3-0.9c-0.4-0.4-0.7-0.8-0.9-1.4c-0.2-0.5-0.3-1.1-0.3-1.7
			c0-0.6,0.1-1.2,0.3-1.7c0.2-0.5,0.5-1,0.9-1.4c0.4-0.4,0.8-0.7,1.3-0.9c0.5-0.2,1.1-0.3,1.7-0.3c0.6,0,1.2,0.1,1.7,0.3
			c0.5,0.2,1,0.5,1.3,0.9c0.4,0.4,0.7,0.8,0.9,1.4C121.4,64.1,121.5,64.7,121.5,65.4z M120.1,65.4c0-0.5-0.1-0.9-0.2-1.3
			c-0.1-0.4-0.3-0.7-0.6-1c-0.2-0.3-0.5-0.5-0.9-0.6c-0.3-0.1-0.7-0.2-1.2-0.2c-0.4,0-0.8,0.1-1.2,0.2c-0.3,0.1-0.6,0.4-0.9,0.6
			c-0.2,0.3-0.4,0.6-0.6,1c-0.1,0.4-0.2,0.8-0.2,1.3c0,0.5,0.1,0.9,0.2,1.3c0.1,0.4,0.3,0.7,0.6,1c0.2,0.3,0.5,0.5,0.9,0.6
			c0.3,0.1,0.7,0.2,1.2,0.2c0.4,0,0.8-0.1,1.2-0.2c0.3-0.1,0.6-0.3,0.9-0.6c0.2-0.3,0.4-0.6,0.6-1C120.1,66.3,120.1,65.8,120.1,65.4
			z"/>
		<path class="st0" d="M128,62.6c0,0.1-0.1,0.1-0.1,0.2c0,0-0.1,0-0.2,0c-0.1,0-0.2,0-0.3-0.1c-0.1-0.1-0.2-0.1-0.3-0.2
			c-0.1-0.1-0.3-0.1-0.5-0.2c-0.2-0.1-0.4-0.1-0.7-0.1c-0.2,0-0.4,0-0.6,0.1c-0.2,0.1-0.3,0.1-0.4,0.2c-0.1,0.1-0.2,0.2-0.3,0.4
			c-0.1,0.1-0.1,0.3-0.1,0.5c0,0.2,0.1,0.4,0.2,0.5c0.1,0.1,0.3,0.3,0.5,0.4c0.2,0.1,0.4,0.2,0.6,0.3c0.2,0.1,0.5,0.2,0.7,0.2
			c0.2,0.1,0.5,0.2,0.7,0.3c0.2,0.1,0.5,0.2,0.6,0.4c0.2,0.2,0.3,0.4,0.4,0.6c0.1,0.2,0.2,0.5,0.2,0.9c0,0.4-0.1,0.7-0.2,1.1
			c-0.1,0.3-0.3,0.6-0.6,0.9c-0.2,0.2-0.5,0.4-0.9,0.6c-0.4,0.1-0.8,0.2-1.2,0.2c-0.3,0-0.5,0-0.8-0.1c-0.3-0.1-0.5-0.1-0.7-0.2
			c-0.2-0.1-0.5-0.2-0.7-0.3c-0.2-0.1-0.4-0.3-0.5-0.5l0.4-0.7c0-0.1,0.1-0.1,0.1-0.1c0.1,0,0.1,0,0.2,0c0.1,0,0.2,0,0.3,0.1
			c0.1,0.1,0.2,0.2,0.4,0.3c0.2,0.1,0.3,0.2,0.6,0.3c0.2,0.1,0.5,0.1,0.8,0.1c0.5,0,0.9-0.1,1.2-0.4c0.3-0.2,0.4-0.6,0.4-1
			c0-0.2-0.1-0.4-0.2-0.6c-0.1-0.2-0.3-0.3-0.4-0.4c-0.2-0.1-0.4-0.2-0.6-0.3c-0.2-0.1-0.5-0.1-0.7-0.2c-0.2-0.1-0.5-0.2-0.7-0.3
			c-0.2-0.1-0.5-0.2-0.6-0.4c-0.2-0.2-0.3-0.4-0.5-0.6c-0.1-0.3-0.2-0.6-0.2-1c0-0.3,0.1-0.6,0.2-0.9c0.1-0.3,0.3-0.5,0.5-0.8
			c0.2-0.2,0.5-0.4,0.8-0.5c0.3-0.1,0.7-0.2,1.2-0.2c0.5,0,0.9,0.1,1.3,0.2c0.4,0.2,0.8,0.4,1.1,0.7L128,62.6z"/>
		<path class="st0" d="M134.9,66.6c0.1,0.1,0.1,0.2,0.1,0.4c0-0.1,0.1-0.2,0.1-0.4c0.1-0.1,0.1-0.2,0.2-0.4l2.7-4.9
			c0.1-0.1,0.1-0.2,0.2-0.2c0.1,0,0.2,0,0.3,0h1v8.5h-1.2v-5.8c0-0.1,0-0.2,0-0.3c0-0.1,0-0.2,0-0.3l-2.7,5
			c-0.1,0.2-0.3,0.3-0.5,0.3H135c-0.2,0-0.4-0.1-0.5-0.3l-2.8-5c0,0.1,0,0.2,0,0.3c0,0.1,0,0.2,0,0.3v5.8h-1.2v-8.5h1
			c0.1,0,0.2,0,0.3,0c0.1,0,0.1,0.1,0.2,0.2l2.7,4.9C134.8,66.4,134.9,66.5,134.9,66.6z"/>
		<path class="st0" d="M147.4,61.1v1.1h-3.9v2.6h3.1v1.1h-3.1v2.6h3.9l0,1.1h-5.3v-8.5H147.4z"/>
		<path class="st0" d="M155.3,61.1v1.1h-2.6v7.3h-1.4v-7.3h-2.6v-1.1H155.3z"/>
		<path class="st0" d="M158.4,69.6H157v-8.5h1.4V69.6z"/>
		<path class="st0" d="M166.8,67.7c0.1,0,0.1,0,0.2,0.1l0.5,0.6c-0.3,0.4-0.8,0.7-1.3,1c-0.5,0.2-1.1,0.3-1.8,0.3
			c-0.6,0-1.2-0.1-1.7-0.3c-0.5-0.2-0.9-0.5-1.3-0.9c-0.4-0.4-0.6-0.8-0.8-1.4c-0.2-0.5-0.3-1.1-0.3-1.7c0-0.6,0.1-1.2,0.3-1.8
			c0.2-0.5,0.5-1,0.9-1.4c0.4-0.4,0.8-0.7,1.3-0.9c0.5-0.2,1.1-0.3,1.7-0.3c0.6,0,1.2,0.1,1.6,0.3c0.5,0.2,0.9,0.5,1.2,0.8l-0.5,0.6
			c0,0-0.1,0.1-0.1,0.1c0,0-0.1,0-0.2,0c-0.1,0-0.2,0-0.3-0.1c-0.1-0.1-0.2-0.2-0.4-0.2c-0.2-0.1-0.4-0.2-0.6-0.2
			c-0.2-0.1-0.5-0.1-0.9-0.1c-0.4,0-0.8,0.1-1.1,0.2c-0.3,0.1-0.6,0.3-0.9,0.6c-0.2,0.3-0.4,0.6-0.6,1c-0.1,0.4-0.2,0.8-0.2,1.3
			c0,0.5,0.1,0.9,0.2,1.3c0.1,0.4,0.3,0.7,0.6,1c0.2,0.3,0.5,0.5,0.9,0.6c0.3,0.1,0.7,0.2,1.1,0.2c0.2,0,0.4,0,0.6,0
			c0.2,0,0.4-0.1,0.5-0.1c0.2-0.1,0.3-0.1,0.4-0.2c0.1-0.1,0.3-0.2,0.4-0.3C166.7,67.7,166.8,67.7,166.8,67.7z"/>
		<path class="st0" d="M173.8,62.6c0,0.1-0.1,0.1-0.1,0.2c0,0-0.1,0-0.2,0c-0.1,0-0.2,0-0.2-0.1c-0.1-0.1-0.2-0.1-0.3-0.2
			c-0.1-0.1-0.3-0.1-0.5-0.2c-0.2-0.1-0.4-0.1-0.7-0.1c-0.2,0-0.4,0-0.6,0.1c-0.2,0.1-0.3,0.1-0.4,0.2c-0.1,0.1-0.2,0.2-0.3,0.4
			c-0.1,0.1-0.1,0.3-0.1,0.5c0,0.2,0.1,0.4,0.2,0.5c0.1,0.1,0.3,0.3,0.5,0.4c0.2,0.1,0.4,0.2,0.6,0.3c0.2,0.1,0.5,0.2,0.7,0.2
			c0.3,0.1,0.5,0.2,0.7,0.3c0.2,0.1,0.5,0.2,0.6,0.4c0.2,0.2,0.3,0.4,0.5,0.6c0.1,0.2,0.2,0.5,0.2,0.9c0,0.4-0.1,0.7-0.2,1.1
			c-0.1,0.3-0.3,0.6-0.6,0.9c-0.2,0.2-0.5,0.4-0.9,0.6c-0.4,0.1-0.8,0.2-1.2,0.2c-0.3,0-0.5,0-0.8-0.1c-0.3-0.1-0.5-0.1-0.7-0.2
			c-0.2-0.1-0.5-0.2-0.7-0.3c-0.2-0.1-0.4-0.3-0.5-0.5l0.4-0.7c0-0.1,0.1-0.1,0.1-0.1c0.1,0,0.1,0,0.2,0c0.1,0,0.2,0,0.3,0.1
			c0.1,0.1,0.2,0.2,0.4,0.3c0.2,0.1,0.3,0.2,0.6,0.3c0.2,0.1,0.5,0.1,0.8,0.1c0.5,0,0.9-0.1,1.2-0.4c0.3-0.2,0.4-0.6,0.4-1
			c0-0.2-0.1-0.4-0.2-0.6c-0.1-0.2-0.3-0.3-0.5-0.4c-0.2-0.1-0.4-0.2-0.6-0.3c-0.2-0.1-0.5-0.1-0.7-0.2c-0.2-0.1-0.5-0.2-0.7-0.3
			c-0.2-0.1-0.5-0.2-0.6-0.4c-0.2-0.2-0.3-0.4-0.5-0.6c-0.1-0.3-0.2-0.6-0.2-1c0-0.3,0.1-0.6,0.2-0.9c0.1-0.3,0.3-0.5,0.5-0.8
			c0.2-0.2,0.5-0.4,0.8-0.5c0.3-0.1,0.7-0.2,1.2-0.2c0.5,0,0.9,0.1,1.3,0.2c0.4,0.2,0.8,0.4,1.1,0.7L173.8,62.6z"/>
	</g>
	<path class="st0" d="M29.1,16c-5,0-9.5,2.9-13.2,6.8V4.9c0-1.3-1.1-2.4-2.4-2.4H3.4c-1.3,0-2.4,1.1-2.4,2.4v57.9
		c0,1.3,1.1,2.4,2.4,2.4h10.1c1.3,0,2.4-1.1,2.4-2.4v-3.9c3.7,3.7,8.2,6.3,13.2,6.3c12,0,21.7-11,21.7-24.6C50.9,27,41.1,16,29.1,16
		z M26.8,52.6c-5.7,0-10.3-5.4-10.3-12c0-6.6,4.6-12,10.3-12c5.7,0,10.3,5.4,10.3,12C37.1,47.2,32.5,52.6,26.8,52.6z"/>
	<path class="st0" d="M89.1,1.3L77.9,1.4c-1.6,0-2.6,0.2-3,1.4l-7.6,22.9L55,4.4c-0.7-1.1-1.6-1.1-3.4-0.8L43,5.4
		c-1.4,0.3-1.5,2.1-0.8,3.2L62,41.5L55.5,61c-0.4,1.2,0,3,1.4,3h9.7c1.3,0.1,2.4-0.3,2.9-1.6l21-58.1C90.9,3.1,90.6,1.3,89.1,1.3z"
		/>
</g>
</svg>
