<svg id="Camada_1" data-name="Camada 1" xmlns="http://www.w3.org/2000/svg" viewBox="0 0 396.87 238.33"><defs><style>.cls-1{fill:#fff}.cls-2{fill:#1c458e}.cls-3{fill:#070707}.cls-4{fill:#050505}.cls-5{fill:#080808}.cls-6{fill:#ececed}.cls-7{fill:#fdfdfd}.cls-8{fill:#1d468e}</style></defs><title>Diners_Club_Logo 2</title><path class="cls-1" d="M0 0h396.87v238.33H0z"/><path class="cls-2" d="M210.25 122.79c-9.47 0-18.94.06-28.41 0-18.68-.14-32.52-8.88-41.74-24.69-9.93-17-6.93-36.71 7.26-51.6 8.09-8.5 17.87-13.82 29.69-15 1.49-.15 3-.16 4.51-.16 18.83 0 37.66.28 56.49-.08 22.08-.43 37.72 14.12 42.49 33 3.87 15.35 1.44 29.74-8.33 42.42-8.24 10.7-19.31 16.12-32.92 16.1q-14.52 0-29.04.01zm14.69-45.66a32.46 32.46 0 0 0-.6-6.75c-3.06-14.66-11.54-25.33-24.4-32.62-8.11-4.6-16.89-6.47-26.12-4.62C159 36.11 148.3 44.8 141 57.75c-4.79 8.47-6.61 17.6-4.39 27.22 3.26 14.1 11.73 24.3 24.2 31.28a38.63 38.63 0 0 0 24.19 4.94c10.32-1.32 19-6.09 26.22-13.37 8.47-8.46 13.47-18.53 13.72-30.68z"/><path class="cls-3" d="M210 199.94c-1.11 1.46-2 2.73-3 3.89a8.12 8.12 0 0 1-5.11 3.11c-2.58.34-4.11-.84-4.52-3.41-.06-.36-.1-.73-.19-1.39-.86 1-1.52 1.88-2.25 2.67a5.87 5.87 0 0 1-3.67 2.15c-1.7.18-2.73-.7-2.64-2.39a14.26 14.26 0 0 1 .53-2.84c.95-3.63 1.94-7.25 2.89-10.88.21-.8.6-1.71-.34-2.34s-1.7-.08-2.39.38a22.87 22.87 0 0 0-7.8 9.45A34.62 34.62 0 0 0 179 205c-.31 1.2-.71 1.91-2.11 1.65a13.62 13.62 0 0 0-2.27 0l3.12-10.75c.52-1.8 1.07-3.6 1.58-5.4.56-2 .28-2.4-1.67-2.69-.33 0-.88.18-.93-.34s.47-.46.83-.52c1.8-.31 3.6-.59 5.39-.95 1-.2 1.41 0 1.05 1.1-.72 2.28-1.36 4.59-2.05 7 .77.18 1-.54 1.26-.94a23.6 23.6 0 0 1 6.31-5.93 8.1 8.1 0 0 1 2.79-1.2c2.82-.52 4.21.82 3.55 3.6-.77 3.29-1.71 6.54-2.57 9.8-.33 1.24-.64 2.49-.92 3.75a1.09 1.09 0 0 0 .39 1.29 1 1 0 0 0 1.3-.33c1.29-1.69 3.07-2.94 3.66-5.24a19.8 19.8 0 0 1 6.89-11 8.7 8.7 0 0 1 3.88-1.86c2-.35 3.78-.19 4.9 2.16.44-2.84 2.36-1.57 3.87-1.85-1.43 5.26-2.83 10.37-4.18 15.49-.23.87-1 2.07.07 2.6s1.54-.86 2.25-1.45c.47-.39.61-1.69 1.33-1.12s-.35 1.25-.74 1.77a8.85 8.85 0 0 1-3.63 3.11 2.59 2.59 0 0 1-2.75 0c-.81-.65-.67-1.64-.56-2.55.21-1.42.9-2.61.96-4.26zm-8.68 1.21c0 1.44 0 2.56 1 3.13a2.77 2.77 0 0 0 3-.45 9.09 9.09 0 0 0 1.69-1.47 23.14 23.14 0 0 0 4.18-7.75 13.92 13.92 0 0 0 1.1-5c-.06-2.13-1.65-3.16-3.66-2.42a6.36 6.36 0 0 0-2.87 2.27 24.09 24.09 0 0 0-4.48 11.69zM259 206.6c1.55-5.27 3.07-10.41 4.57-15.55.76-2.59.66-2.75-1.87-3.31-.25-.06-.6 0-.58-.37s.27-.41.57-.46c2-.33 4-.66 6-1 1-.18.91.32.7 1-.73 2.45-1.42 4.9-2.14 7.38.69.17.76-.47 1-.79a23.5 23.5 0 0 1 7.15-6.65 6.24 6.24 0 0 1 3.83-1 2.12 2.12 0 0 1 2.09 2.21 13.76 13.76 0 0 1-.79 4.42c-.83 3.17-1.75 6.31-2.6 9.47-.22.8-.68 1.88.2 2.37s1.64-.5 2.19-1.18a13.15 13.15 0 0 0 2.7-4.95 19.94 19.94 0 0 1 5.61-9.44 10.75 10.75 0 0 1 4.06-2.55c2.59-.85 4.14-.45 5.94 1.69.33-2.84 2.32-1.23 3.81-1.74l-4.12 15.16a6.47 6.47 0 0 0-.21.77c-.11.76-.81 1.75.07 2.22s1.57-.58 2.17-1.21.85-1.06 1.27-1.59c.43.28.51.63.34.88-1.21 1.8-2.53 3.5-4.64 4.32s-3.22.06-3.13-2.22c.06-1.57.78-3 1.08-4.75a5.37 5.37 0 0 0-1.45 1.83 14.77 14.77 0 0 1-4.37 4.46c-3.75 2.19-6.36.93-7.28-3.57-.57.7-1.09 1.37-1.64 2a7.64 7.64 0 0 1-2.34 1.95c-1.14.57-2.36 1-3.49.11s-1-2.09-.64-3.27c.94-3.58 1.92-7.15 2.87-10.73a17.69 17.69 0 0 0 .53-2.52c.17-1.54-.56-2.08-2-1.53A10 10 0 0 0 271 191a28.36 28.36 0 0 0-7.39 13.55c-.42 1.69-1.15 2.34-2.83 2a11 11 0 0 0-1.78.05zm26.41-5.44c0 1.35-.13 2.57 1 3.15s2.2.06 3.17-.58a4.53 4.53 0 0 0 .88-.7 23.77 23.77 0 0 0 5.9-13.16c.31-2.3-1.72-3.53-3.87-2.6a6.84 6.84 0 0 0-2.8 2.37 23.94 23.94 0 0 0-4.26 11.52z"/><path class="cls-4" d="M102.24 141.9c.25-.63.66-.54 1-.53 4.62 0 9.25-.11 13.87.08 7.05.29 11.82 5.62 11.57 12.63a16.22 16.22 0 0 1-4.34 10.49 19 19 0 0 1-14.34 6.57c-4.41.08-8.81 0-13.22 0-.34 0-.74.16-1-.18 0-.39.2-.5.48-.53 2.34-.23 3.36-1.72 3.94-3.84 1.8-6.67 3.69-13.32 5.54-20 1.06-3.81.84-4.14-3-4.56a2.09 2.09 0 0 1-.5-.13zm6.13 27.9a15.2 15.2 0 0 0 7.44-1.71c5.47-3 8.81-10.47 7.77-17.34-.75-4.94-3-7.21-7.87-7.9-3.51-.49-4.53.16-5.47 3.56q-2.62 9.45-5.23 18.9c-1.12 4.03-.77 4.5 3.36 4.48z"/><path class="cls-5" d="M273 166.92c.64-.13.48-.72.58-1.1q2.65-10.45 5.25-20.92c.65-2.62.65-2.62-1.73-3.65-.23-.1-.57-.11-.5-.49s.34-.38.61-.41a45 45 0 0 0 6-1c1.07-.27.68.63.54 1.12q-1.77 6.56-3.58 13.12c.73.17.94-.46 1.3-.8a8.47 8.47 0 0 1 4.2-2.26c4.4-.9 7.74 1.68 7.91 6.13.34 8.69-9.21 16.58-17.72 14.66-2.76-.62-3.16-1.24-2.68-4.09 0-.11-.12-.25-.19-.37zm16.53-8.76c-.07-2.42-.27-4.46-2.45-5.4s-4 .08-5.54 1.52a9.54 9.54 0 0 0-2.88 4.75c-.78 3.06-1.52 6.13-2.34 9.19a1.38 1.38 0 0 0 1.1 1.93 6.88 6.88 0 0 0 6.9-1.51 14.87 14.87 0 0 0 5.16-10.48z"/><path class="cls-3" d="M243.61 141.06l-1.67 8.13c0 .22-.14.42-.41.41s-.41-.27-.43-.56c0-.54-.05-1.07-.1-1.61a5.14 5.14 0 0 0-4.69-5.08 10.22 10.22 0 0 0-8.25 1.85c-5.82 4.41-8.64 10.34-8 17.63.51 6.12 5.84 9.35 12 7.55a16 16 0 0 0 6.66-4.08c.3-.29.56-.95 1.15-.38s-.1.84-.36 1.13c-4 4.39-8.87 6.55-14.84 5.49-6.68-1.19-10.62-6.76-9.7-13.52a20.17 20.17 0 0 1 20.46-17.25 14 14 0 0 1 3.78.73c1.48.47 2.9.95 4.08-.7zM117.41 194c.87 0 1-.67 1.37-1.1a23.32 23.32 0 0 1 6.21-5.8 7.91 7.91 0 0 1 3-1.22c2.66-.41 4 .87 3.41 3.48-.77 3.34-1.74 6.64-2.61 10-.33 1.25-.64 2.49-.92 3.75a1.08 1.08 0 0 0 .42 1.28c.49.27.94 0 1.32-.33a13.2 13.2 0 0 0 2.24-2.74c.17-.25.3-.61.71-.29s.31.49.09.82a13.43 13.43 0 0 1-4.11 4.47c-1.15.67-2.41 1.13-3.63.27s-1-2.22-.69-3.41c.94-3.69 2-7.36 3-11a14 14 0 0 0 .48-2.36c.11-1.23-.61-1.68-1.72-1.41a7.24 7.24 0 0 0-3 1.84c-4.47 4-6.86 9.12-8.47 14.73-.17.58-.06 1.49-.76 1.6a10.07 10.07 0 0 1-3.21 0c-.56-.09-.14-.7 0-1.07q2.07-7.11 4.16-14.21c.11-.36.22-.72.31-1.08.41-1.63.06-2.13-1.61-2.4-.38-.06-1.05.22-1.09-.35 0-.72.7-.48 1.12-.56 1.74-.33 3.49-.6 5.23-.94.85-.17 1.25 0 1 .94-.85 2.31-1.53 4.66-2.25 7.09z"/><path class="cls-5" d="M160.59 166.22c-1 .59-1.33 1.72-2.07 2.53-1.21 1.32-2.44 2.59-4.35 2.83a2.16 2.16 0 0 1-2.65-2.26 13.38 13.38 0 0 1 .78-3.77c.87-3.32 1.81-6.62 2.66-9.94.2-.79.63-1.78-.22-2.4s-1.87-.14-2.67.41c-4.18 2.89-6.78 7-8.59 11.59a31.94 31.94 0 0 0-1.5 4.58c-.25 1.13-.71 1.53-1.84 1.4a21.68 21.68 0 0 0-2.5 0c1.54-5.2 3-10.23 4.51-15.26.89-3 .71-3.31-2.38-3.63-.1-.56.24-.76.7-.8a36.21 36.21 0 0 0 5.71-1c1.1-.26 1.13.22.86 1.1-.72 2.35-1.37 4.71-2.08 7.2.74-.07.88-.59 1.13-.93a25.1 25.1 0 0 1 4.91-5.07 13.15 13.15 0 0 1 3.31-2c1.34-.49 2.79-.85 4 .22s.82 2.38.49 3.64c-1 3.94-2.12 7.87-3.16 11.81-.23.86-.73 2 .23 2.5s1.56-.63 2.15-1.27a6.8 6.8 0 0 0 1.15-1.55c.41-.82.86-.67 1.43-.24q-.02.18-.01.31zm112.41.68c-.83 0-1 .84-1.39 1.3-1.34 1.41-2.67 2.83-4.66 3.29-2.29.52-3.63-.7-3.15-3 .43-2 1-4 1.63-6.22-.75.3-.95.86-1.25 1.29a29.08 29.08 0 0 1-5.32 6 8.18 8.18 0 0 1-4 2c-2.21.31-3.56-.81-3.54-3 0-2.67 1.1-5.13 1.69-7.68.48-2 1.08-4 1.63-6.06s.29-2.18-1.58-2.39c-.36 0-1 .27-1-.35s.68-.52 1.12-.6c1.64-.28 3.3-.47 4.92-.86 1.35-.33 1.61 0 1.26 1.31-1.33 4.81-2.61 9.63-3.9 14.45-.23.87-.68 1.86.2 2.54s2 .1 2.82-.43a14.5 14.5 0 0 0 4.11-4.27 39.55 39.55 0 0 0 5.57-11.89c.14-.51 0-1.34.75-1.42a9.42 9.42 0 0 1 2.88.07c.49.1.08.73 0 1.11-1.26 4.6-2.56 9.2-3.77 13.82-.26 1-1.19 2.4.06 3.09s2-.77 2.87-1.52a12.43 12.43 0 0 0 .85-1c.21-.23.37-.61.74-.54.56.11.23.7.47 1z"/><path class="cls-3" d="M238.41 201.18c.1-1 .16-2.09.31-3.13.83-5.88 7-11.66 12.94-12.18 5.73-.49 9.33 3.61 8.07 9.19-1.48 6.53-8.34 12.19-14.42 11.91a6.45 6.45 0 0 1-6.31-4.75.7.7 0 0 0-.32-.77c0-.17 0-.46-.31-.33zm17.54-9c0-2-.13-3.74-1.84-4.67a4.93 4.93 0 0 0-5.32.46 9.24 9.24 0 0 0-2.39 2.36 20.87 20.87 0 0 0-3.56 8.53 9.56 9.56 0 0 0 .08 4.62 3.13 3.13 0 0 0 2.58 2.35c2.46.45 4.31-.66 5.81-2.38a19.3 19.3 0 0 0 4.69-11.31z"/><path class="cls-5" d="M96.07 206.6c.24-1.07 1-.83 1.49-.92a3.12 3.12 0 0 0 2.74-2.36c2.12-7.59 4.28-15.17 6.36-22.76.54-2-.13-2.7-2.39-3-.38-.05-1 .21-1.07-.37s.7-.48 1.12-.48h10c.32 0 .84-.27 1 .25s-.36.57-.74.61c-2.08.22-3 1.56-3.55 3.42C109 188 107 195 105.09 202c-.75 2.7-.26 3.36 2.48 3.72.39.05 1.16-.27 1.12.48 0 .55-.69.36-1.09.36zm52.87.4c-3.95 0-6.08-2.3-6.31-6.76-.33-6.54 6.25-13.94 12.78-14.37a8.68 8.68 0 0 1 2.08.12 3.06 3.06 0 0 1 2.63 3.89 6.64 6.64 0 0 1-3.22 4.25 22.3 22.3 0 0 1-8.9 3.11c-.89.14-1.22.51-1.26 1.32v.16c-.07 2.1-.37 4.36 1.77 5.67s4.26.54 6.23-.62c.87-.51 1.63-1.22 2.46-1.81.26-.18.45-.7.92-.27s0 .65-.17.92a12.67 12.67 0 0 1-9.01 4.39zm-1.85-10.69a14.51 14.51 0 0 0 6.77-2.63 6.27 6.27 0 0 0 2.55-3.77c.19-.94.48-2-.48-2.66a2.4 2.4 0 0 0-2.74.11c-3.33 1.98-4.84 5.2-6.1 8.95zm13.5-30.09v-.27c-1-6.61 5.24-14.14 11.08-15.3a10.92 10.92 0 0 1 2.72-.19c3.19.17 4.53 2.51 3.1 5.4a8 8 0 0 1-3.42 3.31 21.8 21.8 0 0 1-7.9 2.61c-1.11.15-1.59.61-1.62 1.7-.06 2.06-.27 4.26 1.79 5.51s4 .6 6-.43a14.49 14.49 0 0 0 2.85-2.09c.23-.21.5-.46.82-.13s.08.57-.14.81c-2.56 2.73-5.57 4.61-9.45 4.47-3.42-.13-5.09-1.81-5.83-5.4zm4.42-5.46c3.53-.2 7.08-2.12 8.53-4.5 1-1.67 1.16-3.63.33-4.34s-2.72-.38-4.22 1a16.29 16.29 0 0 0-4.65 7.84z"/><path class="cls-3" d="M241.35 168.61a74.08 74.08 0 0 1 2-7.92c1.48-5.54 3-11.05 4.51-16.59.62-2.31.5-2.41-1.85-2.94-.24-.05-.59 0-.61-.34s.36-.45.68-.49a32.52 32.52 0 0 0 5.55-.95c1.3-.36 1.36.18 1.06 1.24-1.73 6-3.42 12.06-5.13 18.09-.73 2.58-1.46 5.15-2.16 7.74a5.06 5.06 0 0 0-.23 1.42c0 1.27.78 1.69 1.76.9a27.24 27.24 0 0 0 2.37-2.4c.21-.22.37-.54.76-.19s.16.56-.05.81c-1.41 1.69-2.81 3.43-4.92 4.31-2.29.98-3.82 0-3.74-2.69zm59.99 35.11a38.1 38.1 0 0 1 1.46-5.72c1.67-6.26 3.42-12.51 5.07-18.78.58-2.21.47-2.27-1.81-2.62-.29 0-.72.07-.72-.4s.34-.5.69-.51a31.88 31.88 0 0 0 5.7-.94c1.73-.38 1 .89.85 1.57-2.27 8.1-4.59 16.18-6.89 24.28a7.83 7.83 0 0 0-.52 2.67c0 .42 0 .89.44 1.13a1.11 1.11 0 0 0 1.33-.25c.81-.78 1.59-1.59 2.36-2.41.27-.28.48-.37.79-.08s.1.48-.07.67c-1.49 1.76-2.92 3.61-5.2 4.43s-3.55-.13-3.48-3.04z"/><path class="cls-5" d="M190.19 171.89c.28-2.56.52-4.78.77-7 0-.29.13-.53.47-.53s.44.35.48.67a9.75 9.75 0 0 0 .89 3.08 4.14 4.14 0 0 0 5.57 2c1.74-.82 2.32-3 1.39-5.2a14.36 14.36 0 0 0-2-2.93 43.06 43.06 0 0 1-2.58-3.5c-2.31-3.83-.21-7.71 4.29-8.05a10.27 10.27 0 0 1 4 .62c.82.26 1.68.57 2.31-.37a.55.55 0 0 1 .71-.22c.34.14.2.44.16.69q-.4 2.63-.81 5.26c0 .3 0 .72-.46.7s-.47-.38-.49-.71a6.62 6.62 0 0 0-.91-2.89 3.71 3.71 0 0 0-2.81-1.94c-2.47-.36-4 1.5-3 3.79a12.79 12.79 0 0 0 1.56 2.43c.86 1.17 1.83 2.26 2.65 3.45 1.57 2.29 2.11 4.74.58 7.25s-4 3.24-6.82 3.1a19.17 19.17 0 0 1-2.86-.47c-1.62-.32-1.61-.34-3.09.77zM167.36 193c.75-.21.88-.92 1.21-1.41a19.44 19.44 0 0 1 4.13-4.91c1-.73 2.06-1.4 3.18-.33.82.79.42 3.15-.58 4a1.58 1.58 0 0 1-2.42-.24c-.72-.85-1.15-.53-1.74.13-3.27 3.7-5.18 8.1-6.67 12.73l-.24.77c-.91 3.08-.91 3.08-4.35 2.79 1.16-4.19 2.32-8.36 3.46-12.53.32-1.19.6-2.39.83-3.6.28-1.49-.07-2.58-1.88-2.61-.29 0-.72.07-.74-.4s.4-.4.7-.45c1.85-.31 3.71-.6 5.55-.95.88-.16 1.2 0 .92 1-.45 1.49-.84 3-1.22 4.5-.11.42-.5.89-.14 1.51zm0 .49c-.11-.1-.21-.21-.24-.2a1.77 1.77 0 0 0-.31.24c.07.06.16.17.22.16a1.27 1.27 0 0 0 .35-.21z"/><path class="cls-3" d="M184.95 158a37.44 37.44 0 0 1 3.72-5.24 12.82 12.82 0 0 1 1.77-1.64c1.36-1 2.51-1 3.12 0a3.38 3.38 0 0 1-1 4 1.66 1.66 0 0 1-2.16-.5c-.65-.78-1.06-.51-1.61.11-3.4 3.81-5.34 8.37-6.84 13.16a15.08 15.08 0 0 0-.62 2.16c-.14.88-.56 1.1-1.41 1.1-2.5 0-2.5.05-1.83-2.39 1.17-4.29 2.42-8.56 3.49-12.88.72-2.9.36-3.29-2.48-3.66-.06-.7.45-.72.94-.8 1.8-.29 3.61-.55 5.39-.92 1-.21 1.15.16.92 1l-1.71 6.2c0 .27-.51.52-.26.72s.44-.12.57-.42zm-51.59 46.05c.45-2.77 1.44-5.78 2.17-8.85.5-2.09 1-4.17 1.62-6.22.31-1 .11-1.4-1-1.28a4.07 4.07 0 0 1-1 0c-.33 0-.86.21-.91-.33s.49-.51.83-.6a10.8 10.8 0 0 0 6.37-5.1c.25-.4.47-1 1-.75s.1.83 0 1.26-.18.73-.26 1.09c-.2.94-.8 2.07-.47 2.75s1.65.14 2.53.24c.29 0 .71-.11.69.4a1.1 1.1 0 0 1-.45 1c-.17.1-.42 0-.63.05-3 .23-3 .24-3.76 3.22-.91 3.53-1.88 7-2.73 10.59-.22.92-.89 2.21.16 2.82s1.83-.65 2.65-1.3c.48-.38.72-1.64 1.44-1s-.41 1.13-.78 1.61a8.51 8.51 0 0 1-4.3 3.24c-1.95.57-3.23-.41-3.17-2.84zm93.28-17.78h2.58c.36 0 1-.22.83.56-.07.44-.12.87-.72.86H229c-3 .23-3 .23-3.73 3.09q-1.4 5.45-2.77 10.92a9.76 9.76 0 0 0-.25 1.42c0 .48-.09 1 .45 1.27a1.3 1.3 0 0 0 1.36-.22 10 10 0 0 0 2-2.05c.21-.24.4-.53.76-.17s.14.45 0 .68a11.92 11.92 0 0 1-4.39 3.94 3 3 0 0 1-3.21 0 2.77 2.77 0 0 1-.72-3.11c1.17-4.68 2.32-9.37 3.6-14 .41-1.48.1-1.93-1.4-1.76-.42 0-1.22.43-1.3-.36-.06-.59.72-.51 1.13-.64a11 11 0 0 0 6-4.9c.27-.42.46-1.18 1.14-.82.5.27.08.89 0 1.32-.32 1.27-.67 2.55-1.03 3.97z"/><path class="cls-5" d="M238.68 201.46a.7.7 0 0 1 .32.77c-.83-.31-1 .5-1.28.88a11.66 11.66 0 0 1-4.48 3.57 2.85 2.85 0 0 1-3.05-.16 2.71 2.71 0 0 1-.67-3c1.22-4.45 2.46-8.88 3.7-13.32.53-1.91.41-2.09-1.51-2.43-.35-.06-1 .23-1-.45s.67-.39 1.05-.47c1.69-.32 3.39-.57 5.07-.92 1.1-.22 1.47-.06 1.09 1.18-1.43 4.61-2.77 9.24-4.14 13.87a19.22 19.22 0 0 0-.5 2c-.08.46-.18 1 .33 1.32a1.22 1.22 0 0 0 1.5-.18c.74-.61 1.42-1.31 2.12-2 .38-.36.59-.92 1.2-1h-.05a.3.3 0 0 0 .3.34zm-109.47-32.57a11.45 11.45 0 0 1 .69-3.16c1-3.62 2-7.23 3.06-10.84.56-2 .38-2.24-1.6-2.51-.3 0-.86.25-.85-.38s.47-.51.84-.54a35.82 35.82 0 0 0 5.39-.93c1.07-.26 1.3.05 1 1.14-1.42 4.56-2.76 9.14-4.11 13.71a18.62 18.62 0 0 0-.49 2.19c-.09.52-.22 1.11.35 1.46s1.18 0 1.61-.38c.84-.74 1.61-1.57 2.4-2.38.23-.24.44-.5.79-.19s.2.46 0 .69c-1.69 2-3.29 4.17-6.09 4.74-1.99.41-3.02-.51-2.99-2.62z"/><path class="cls-3" d="M137.35 142.08a2.34 2.34 0 0 1 2.22 2.29 2.39 2.39 0 0 1-2.41 2.27 2.23 2.23 0 0 1-2.18-2.43 2.33 2.33 0 0 1 2.37-2.13zm103.12 37.69a2.31 2.31 0 1 1-4.62 0 2.37 2.37 0 0 1 2.43-2.25 2.21 2.21 0 0 1 2.19 2.25z"/><path class="cls-6" d="M224.94 77.14c-.25 12.15-5.25 22.23-13.7 30.69-7.27 7.28-15.91 12-26.22 13.37a38.63 38.63 0 0 1-24.23-4.94c-12.47-7-20.94-17.18-24.2-31.28-2.22-9.62-.41-18.76 4.39-27.22 7.33-12.95 18-21.64 32.85-24.6 9.23-1.84 18 0 26.12 4.62 12.86 7.28 21.34 18 24.4 32.62a32.46 32.46 0 0 1 .59 6.74zM171.51 103V53.05c0-2 0-2-2-1.35a19.36 19.36 0 0 0-5.23 2.8 28.23 28.23 0 0 0-3.92 41.38 23.54 23.54 0 0 0 11.15 7.12zm17.76-26v24.35c0 1.43.42 1.64 1.64 1.19a21.92 21.92 0 0 0 4.06-1.93c9.59-6 14.79-18.86 11.92-29.93-2.3-8.88-7.43-15.48-16.08-19.08-1.13-.47-1.57-.38-1.55 1 .04 8.15 0 16.27 0 24.4z"/><path class="cls-7" d="M238.68 201.46a.3.3 0 0 1-.31-.33c.35-.13.26.16.31.33zm-71.3-7.98a1.27 1.27 0 0 1-.34.2c-.06 0-.14-.1-.22-.16a1.77 1.77 0 0 1 .31-.24s.14.1.25.2zM184.95 158c-.13.27-.27.69-.61.41s.23-.44.26-.72z"/><path class="cls-8" d="M171.51 103a23.54 23.54 0 0 1-11.12-7.12 28.23 28.23 0 0 1 3.92-41.38 19.36 19.36 0 0 1 5.23-2.8c1.94-.66 2-.64 2 1.35v47.13z"/><path class="cls-2" d="M189.26 77V52.65c0-1.42.42-1.51 1.55-1 8.64 3.6 13.78 10.2 16.08 19.08 2.87 11.07-2.33 23.93-11.92 29.93a21.92 21.92 0 0 1-4.06 1.93c-1.22.45-1.66.25-1.64-1.19.03-8.18-.01-16.3-.01-24.4z"/></svg>