<svg id="Layer_1" data-name="Layer 1" xmlns="http://www.w3.org/2000/svg" viewBox="0 0 593.28 356.28"><defs><style>.cls-1{fill:#fff200}.cls-2{fill:#00a4e0}.cls-3{fill:#ef4123}.cls-4{fill:#fff}</style></defs><title>logo_elo_cor_new</title><path d="M0 0h593.28v356.28H0z"/><path d="M37.68 74.73h517.91v206.82H37.68z"/><path class="cls-1" d="M135.34 131.32a49.4 49.4 0 0 1 64 37l33.84-6.9A84 84 0 0 0 124.4 98.55z"/><path class="cls-2" d="M95.41 241l22.88-25.87a49.34 49.34 0 0 1 0-73.92l-22.9-25.89a83.88 83.88 0 0 0 0 125.65z"/><path class="cls-3" d="M199.35 188a49.39 49.39 0 0 1-64 36.91l-11 32.76A84 84 0 0 0 233.18 195z"/><path class="cls-4" d="M345.84 211.19a29.93 29.93 0 0 1-37.1 4L297.54 233a51.11 51.11 0 0 0 63-6.7zm-20.28-72.71a51.21 51.21 0 0 0-43.67 79.13L374.62 178a51.21 51.21 0 0 0-49.05-39.5m-30.73 54.36a26.93 26.93 0 0 1-.18-3.63 30.13 30.13 0 0 1 53.15-19zm108.86-77.45v98.85l17.15 7.11-8.11 19.5-17-7.05a19.22 19.22 0 0 1-8.36-7 22.09 22.09 0 0 1-3.28-12.26v-99.15zm61.83 45.68a30.15 30.15 0 0 1 39.07 22.56l20.66-4.21a51.25 51.25 0 0 0-66.4-38.35zM441.16 228l14-15.79a30.13 30.13 0 0 1 0-45.12l-14-15.79a51.2 51.2 0 0 0 0 76.69zm63.44-32.29a30.15 30.15 0 0 1-39.08 22.53l-6.69 20a51.25 51.25 0 0 0 66.42-38.29z"/></svg>