<svg xmlns="http://www.w3.org/2000/svg" width="84.26" height="53.87" viewBox="0 0 84.26 53.87"><g fill-rule="evenodd" clip-rule="evenodd"><path fill="#981B1E" d="M26.685 12.027h-7.099c-3.138.148-5.7 1.412-6.442 4.017-.385 1.359-.598 2.851-.899 4.26-1.534 7.162-2.895 14.521-4.363 21.54H63.15c4.273 0 7.205-.902 7.999-4.295.368-1.574.722-3.359 1.072-5.09 1.375-6.749 2.75-13.497 4.157-20.431H26.685z"/><path fill="#FFF" d="M26.131 22.624c.297-.205.679-1.136.242-1.524-.138-.123-.37-.158-.692-.104-.3.052-.473.153-.589.312-.188.256-.36 1.029-.069 1.316.283.279.918.129 1.108 0zm-4.226-1.525a188.988 188.988 0 0 1-.691 4.087c-1.544.016-3.117.075-4.607-.035.283-1.324.482-2.726.763-4.052h-1.662c-.596 3.376-1.137 6.806-1.801 10.113h1.696c.267-1.696.516-3.41.866-5.021 1.446-.037 3.181-.098 4.571.034-.287 1.676-.634 3.292-.9 4.987h1.697c.544-3.426 1.119-6.823 1.8-10.113h-1.732zm23.998 2.91c-1.32-.533-2.357.367-2.84 1.211.11-.375.154-.815.243-1.211H41.99c-.32 2.495-.796 4.837-1.248 7.203h1.491c.208-1.404.299-3.298.761-4.64.371-1.075 1.339-1.989 2.735-1.49.02-.395.134-.698.174-1.073zm.83 5.506c-.137-.355-.172-.939-.138-1.385.076-1.001.442-2.22 1.005-2.771.775-.761 2.309-.635 3.53-.208.04-.413.123-.78.174-1.177-2.005-.328-3.907-.124-4.917.935-.987 1.037-1.634 3.418-1.178 4.918.536 1.754 2.939 1.848 4.884 1.176.086-.352.131-.744.207-1.107-1.062.552-3.093.839-3.567-.381zm16.727-5.472c-1.315-.658-2.411.445-2.841 1.108.123-.34.13-.794.244-1.143h-1.316a106.975 106.975 0 0 1-1.28 7.203h1.522c.01-.955.197-1.661.346-2.598.32-1.999.787-4.192 3.118-3.532.078-.337.107-.72.207-1.038zm-38.853-.034c-.04.005-.038.055-.036.103-.328 2.454-.771 4.792-1.245 7.1h1.488c.358-2.471.768-4.889 1.281-7.203h-1.488zm13.089-.139c-1.076.083-1.985.394-2.631 1.074-.793.835-1.437 2.682-1.247 4.362.268 2.4 3.255 2.314 5.645 1.732.04-.422.143-.78.207-1.177-.983.368-2.692.882-3.705.242-.765-.483-.769-1.706-.52-2.771a85.479 85.479 0 0 1 4.883 0c.102-.754.394-1.575.139-2.32-.338-.982-1.543-1.237-2.771-1.142zm1.42 2.632h-3.497a2.062 2.062 0 0 1 1.973-1.732c1.074-.041 1.842.394 1.524 1.732zm-7.064-2.493c-1.26-.473-2.796.092-3.462.629.003.023-.017.027-.036.028l.036-.028-.001-.006c.011-.231.093-.392.104-.623h-1.282c-.533 3.552-1.167 7.005-1.834 10.423h1.488c.215-1.331.358-2.735.658-3.982.34 1.312 2.56 1.062 3.497.554 1.934-1.046 3.426-6.021.832-6.995zm-1.178 5.852c-.796.843-2.755.83-2.909-.589-.066-.618.164-1.266.278-1.905.114-.647.196-1.268.311-1.835.786-.958 3.091-1.073 3.324.519.204 1.384-.345 3.111-1.004 3.81zm38.127-8.969a32.96 32.96 0 0 1-.52 3.22c-3.653-1.155-5.893 1.531-5.852 4.848.006.643.117 1.278.519 1.731.691.782 2.671.97 3.67.312.195-.127.392-.357.521-.519.097-.121.25-.438.276-.347-.052.352-.131.678-.139 1.074h1.352c.26-3.734 1.063-6.923 1.662-10.32h-1.489zm-3.325 9.523c-1.003.021-1.501-.6-1.523-1.627-.04-1.802.75-3.804 2.354-3.983.748-.084 1.288.09 1.837.277-.504 2.023-.323 5.282-2.668 5.333zm-12.847-6.406c-.073.411-.186.784-.277 1.178.879-.221 3.615-.896 3.879.277.087.39-.063.803-.174 1.108-2.474-.235-4.49.176-5.02 1.938-.356 1.181.038 2.343.796 2.667 1.456.625 3.229-.092 3.843-1.073-.063.34-.124.684-.104 1.108h1.282c.013-1.228.191-2.221.38-3.324.161-.941.463-1.872.416-2.701-.111-1.901-3.258-1.229-5.021-1.178zm2.423 5.818c-.765.75-2.921.964-2.7-.832.184-1.491 1.807-1.809 3.566-1.593-.131.816-.28 1.851-.866 2.425z"/></g></svg>