<svg id="Layer_1" xmlns="http://www.w3.org/2000/svg" viewBox="0 0 127.6 76.4"><style>.st0{fill:#fcb331}.st1{fill:#ed1c2e}.st2{fill:#fff}.st3{fill:none;stroke:#fff;stroke-width:.1275;stroke-miterlimit:2.6131}</style><path class="st0" d="M85.9 71.2l1.7-.1 1.7-.1 1.6-.2 1.6-.3 1.6-.4 1.6-.4 1.5-.5 1.5-.6 1.5-.7 1.4-.7 1.4-.8 1.4-.9 1.3-.9 1.2-1 1.2-1 1.2-1.1 1.1-1.1 1-1.3 1-1.2.9-1.3.8-1.3.9-1.4.7-1.4.6-1.5.6-1.5.6-1.6.4-1.5.4-1.6.3-1.7.2-1.6.1-1.7v-3.4l-.1-1.6-.2-1.7-.3-1.6-.4-1.6-.4-1.6-.6-1.5-.6-1.5-.6-1.4-.7-1.5-.9-1.3-.8-1.4-.9-1.3-1-1.2-1-1.2-1.1-1.2-1.2-1.1-1.2-1-1.2-1-1.3-.9-1.4-.9-1.4-.7-1.4-.8-1.5-.6-1.5-.6-1.5-.6-1.6-.4-1.6-.4-1.6-.3-1.6-.2-1.7-.1h-3.4l-1.7.1-1.7.2-1.6.3-1.6.4-1.5.4-1.6.6-1.5.6-1.4.6-1.4.8-1.4.7-1.4.9-1.3.9-1.2 1-1.2 1-1.1 1.1-1.1 1.2-1.1 1.2-.9 1.2-1 1.3-.8 1.4-.8 1.3-.7 1.5-.7 1.4-.6 1.5-.5 1.5-.4 1.6-.4 1.6-.3 1.6-.2 1.7-.1 1.6-.1 1.7.1 1.7.1 1.7.2 1.6.3 1.7.4 1.6.4 1.5.5 1.6.6 1.5.7 1.5.7 1.4.8 1.4.8 1.3 1 1.3.9 1.2 1.1 1.3 1.1 1.1 1.1 1.1 1.2 1 1.2 1 1.3.9 1.4.9 1.4.8 1.4.7 1.4.7 1.5.6 1.6.5 1.5.4 1.6.4 1.6.3 1.7.2 1.7.1 1.7.1z"/><path class="st1" d="M41.7 71.2l1.7-.1 1.7-.1 1.6-.2 1.7-.3 1.5-.4 1.6-.4 1.5-.5 1.5-.6 1.5-.7 1.4-.7 1.4-.8 1.3-.9 1.3-.9 1.3-1 1.2-1 1.1-1.1 1.1-1.1 1-1.3 1-1.2.9-1.3.9-1.3.8-1.4.7-1.4.7-1.5.6-1.5.5-1.6.4-1.5.4-1.6.3-1.7.2-1.6.1-1.7.1-1.7-.1-1.7-.1-1.6-.2-1.7-.3-1.6-.4-1.6-.4-1.6-.5-1.5-.6-1.5-.7-1.4-.7-1.5-.8-1.3-.9-1.4-.9-1.3-1-1.2-1-1.2-1.1-1.2-1.1-1.1-1.2-1-1.3-1-1.3-.9-1.3-.9-1.4-.7-1.4-.8-1.5-.6-1.5-.6-1.5-.6-1.6-.4-1.5-.4-1.7-.3-1.6-.2-1.7-.1H40l-1.7.1-1.6.2-1.7.3-1.6.4-1.5.4-1.6.6-1.5.6-1.4.6-1.5.8-1.3.7-1.4.9-1.3.9-1.2 1-1.2 1-1.2 1.1-1.1 1.2-1 1.2-1 1.2-.9 1.3-.9 1.4-.8 1.3-.7 1.5-.7 1.4-.6 1.5-.5 1.5-.4 1.6-.4 1.6-.3 1.6-.2 1.7-.1 1.6-.1 1.7.1 1.7.1 1.7.2 1.6.3 1.7.4 1.6.4 1.5.5 1.6.6 1.5.7 1.5.7 1.4.8 1.4.9 1.3.9 1.3 1 1.2 1 1.3 1.1 1.1 1.2 1.1 1.2 1 1.2 1 1.3.9 1.4.9 1.3.8 1.5.7 1.4.7 1.5.6 1.6.5 1.5.4 1.6.4 1.7.3 1.6.2 1.7.1 1.7.1z"/><path class="st0" d="M59.9 17.8h17.6V16H61.4l-1.5 1.8zm-2.6 4h20.2V20H58.4l-1.1 1.8zm-2 4h22.2V24H56.1l-.8 1.8zm-1.3 4h23.5V28h-23l-.5 1.8zm.8 19.2h22.7v-1.8H54.2l.6 1.8zm1.6 4h21.1v-1.8H55.6l.8 1.8zm2.4 4h18.7v-1.8H57.7l1.1 1.8zm3.3 4h15.4v-1.8h-17l1.6 1.8zm-8.9-27.3h24.3V32h-24l-.3 1.7zM68 45.1h9.2v-1.8h-8.9l-.3 1.8zm.7-4h8.5v-1.8h-8.1l-.4 1.8zm-16.1-1.8H55v1.8h-2.3l-.1-1.8z"/><path class="st2" d="M48.1 37.1h-.5l-.1-.1h-.4l-.2-.1h-1.8l-.3.1h-.2l-.2.1h-.1l-.2.1-.1.1-.1.1-.1.1-.1.1-.1.2v.2l.1.2v.1l.1.2.1.1.2.2.3.2.3.1.3.2.4.1.4.1.3.1.4.2.3.2.3.2.3.3.2.3.2.4.1.5.1.6-.1.7v.6l-.2.4-.2.5-.2.3-.2.3-.3.3-.3.3-.4.2-.3.1-.4.2-.4.1-.4.1-.4.1h-3.3l-.3-.1h-.5l-.2-.1h-.4l-.2-.1-.2-.1h-.2l-.2-.1.5-2.5.1.1h.2l.1.1h.4l.2.1h.3l.2.1h.3l.3.1h.6l.4.1h.9l.3-.1.3-.1.2-.1.2-.2.1-.1.1-.2v-.2l.1-.2v-.3l-.1-.3-.2-.2-.3-.2-.3-.1-.4-.2-.4-.2-.5-.1-.4-.2-.4-.3-.4-.3-.4-.3-.3-.4-.2-.5-.1-.6v-.8l.1-.4.1-.4.1-.4.1-.3.2-.4.2-.3.2-.2.3-.3.3-.2.4-.2.4-.1.4-.2.5-.1h.6l.6-.1h2.1l.3.1h.6l.2.1h.5l.1.1h.3l-.6 2.5z"/><path class="st3" d="M48.1 37.1h-.5l-.1-.1h-.4l-.2-.1h-1.8l-.3.1h-.2l-.2.1h-.1l-.2.1-.1.1-.1.1-.1.1-.1.1-.1.2v.2l.1.2v.1l.1.2.1.1.2.2.3.2.3.1.3.2.4.1.4.1.3.1.4.2.3.2.3.2.3.3.2.3.2.4.1.5.1.6-.1.7v.6l-.2.4-.2.5-.2.3-.2.3-.3.3-.3.3-.4.2-.3.1-.4.2-.4.1-.4.1-.4.1h-3.3l-.3-.1h-.5l-.2-.1h-.4l-.2-.1-.2-.1h-.2l-.2-.1.5-2.5.1.1h.2l.1.1h.4l.2.1h.3l.2.1h.3l.3.1h.6l.4.1h.9l.3-.1.3-.1.2-.1.2-.2.1-.1.1-.2v-.2l.1-.2v-.3l-.1-.3-.2-.2-.3-.2-.3-.1-.4-.2-.4-.2-.5-.1-.4-.2-.4-.3-.4-.3-.4-.3-.3-.4-.2-.5-.1-.6v-.8l.1-.4.1-.4.1-.4.1-.3.2-.4.2-.3.2-.2.3-.3.3-.2.4-.2.4-.1.4-.2.5-.1h.6l.6-.1h2.1l.3.1h.6l.2.1h.5l.1.1h.3l-.6 2.5"/><path class="st2" d="M50.7 31.8h3.1l-.4 2.7h1.8l-.4 2.6-1.9-.1-1.1 6.2v.4l.2.2.1.1.2.1h.2l.3.1h.7l.2-.1h.2l.1-.1h.2l-.4 2.1h-.1v.1h-.2l-.1.1h-.2l-.1.1h-.2l-.1.1h-.6l-.2.1h-.9l-.4-.1h-.4l-.4-.1-.3-.1-.2-.1-.2-.1-.2-.1-.2-.1-.1-.2-.1-.2V45l-.1-.2v-.3l.1-.2V44l2.1-12.2z"/><path class="st3" d="M50.7 31.8h3.1l-.4 2.7h1.8l-.4 2.6-1.9-.1-1.1 6.2v.4l.2.2.1.1.2.1h.2l.3.1h.7l.2-.1h.2l.1-.1h.2l-.4 2.1h-.1v.1h-.2l-.1.1h-.2l-.1.1h-.2l-.1.1h-.6l-.2.1h-.9l-.4-.1h-.4l-.4-.1-.3-.1-.2-.1-.2-.1-.2-.1-.2-.1-.1-.2-.1-.2V45l-.1-.2v-.3l.1-.2V44l2.1-12.2"/><path class="st2" d="M57.7 41.3v.1l-.1.2.1.3v.2l.1.2.1.2.1.2.1.2.2.2.2.1.1.2.2.1.2.2.3.1h.2l.2.1h.3l.3.1H62l.3-.1h.3l.3-.1.3-.1.4-.1.3-.1.3-.2.3-.2-.4 2.7-.2.1-.2.1-.2.1-.1.1h-.2l-.2.1h-.3l-.2.1h-.8l-.2.1h-1.6l-.6-.1-.5-.1-.6-.1-.5-.2-.6-.2-.5-.3-.4-.3-.5-.4-.3-.4-.4-.5-.2-.6-.2-.7-.1-.7-.1-.9.1-.9v-.3l.1-.4.1-.5.1-.4.2-.5.2-.5.2-.5.3-.5.4-.4.4-.4.5-.4.6-.3.6-.3.8-.2.8-.1.9-.1h.4l.4.1h.5l.5.2.4.1.4.2.4.3.4.3.3.4.3.4.2.5.2.6.1.7v.7l-.1.9-.1.9-.1.7h-8.1l.5-2.2h4.9v-.8l-.1-.2-.1-.2v-.2l-.1-.2-.2-.1-.1-.2-.1-.1-.2-.1-.2-.1h-.2l-.1-.1H60l-.2.1h-.2l-.2.1-.2.1-.1.1-.2.2-.1.1-.2.2-.1.2-.1.2-.1.2-.1.2v.2l-.1.2-.4 2.4z"/><path class="st3" d="M57.7 41.3v.1l-.1.2.1.3v.2l.1.2.1.2.1.2.1.2.2.2.2.1.1.2.2.1.2.2.3.1h.2l.2.1h.3l.3.1H62l.3-.1h.3l.3-.1.3-.1.4-.1.3-.1.3-.2.3-.2-.4 2.7-.2.1-.2.1-.2.1-.1.1h-.2l-.2.1h-.3l-.2.1h-.8l-.2.1h-1.6l-.6-.1-.5-.1-.6-.1-.5-.2-.6-.2-.5-.3-.4-.3-.5-.4-.3-.4-.4-.5-.2-.6-.2-.7-.1-.7-.1-.9.1-.9v-.3l.1-.4.1-.5.1-.4.2-.5.2-.5.2-.5.3-.5.4-.4.4-.4.5-.4.6-.3.6-.3.8-.2.8-.1.9-.1h.4l.4.1h.5l.5.2.4.1.4.2.4.3.4.3.3.4.3.4.2.5.2.6.1.7v.7l-.1.9-.1.9-.1.7h-8.1l.5-2.2h4.9v-.8l-.1-.2-.1-.2v-.2l-.1-.2-.2-.1-.1-.2-.1-.1-.2-.1-.2-.1h-.2l-.1-.1H60l-.2.1h-.2l-.2.1-.2.1-.1.1-.2.2-.1.1-.2.2-.1.2-.1.2-.1.2-.1.2v.2l-.1.2-.4 2.4"/><path class="st2" d="M84.2 35.2l-.1-.1H84l-.2-.1-.2-.1-.1-.1h-.2l-.2-.1-.2-.1h-.2l-.2-.1H82l-.3-.1h-1.3l-.3.1h-.3l-.4.1-.3.1-.3.2-.3.2-.3.2-.3.3-.3.4-.2.4-.3.5-.2.5-.2.7-.2.7-.1.4v1.5l.1.4.1.3.1.3.2.3.2.3.2.3.3.2.3.2.3.2.4.1.4.1.2.1h.6l.2.1h.5l.3-.1h.6l.3-.1.3-.1.2-.1.3-.2.2-.2.3-.2-.6 3v.1h-.1l-.1.1-.1.1-.1.1-.2.1h-.1l-.2.1-.3.1h-.3l-.3.1h-.8l-.5.1-.6-.1h-1.1l-.6-.2-.5-.1-.5-.2-.5-.3-.4-.3-.5-.4-.4-.5-.4-.5-.3-.5-.2-.7-.2-.6-.2-.8v-1.6l.1-1 .1-.4.1-.5.1-.4.1-.4.2-.4.1-.4.2-.4.1-.3.2-.4.1-.3.2-.3.2-.3.2-.3.3-.2.2-.3.2-.2.3-.2.2-.2.3-.2.3-.2.3-.2.3-.1.3-.2.3-.1.3-.1.4-.1.4-.1h.3l.4-.1h.8l.4-.1.4.1h.7l.3.1h.3l.3.1h.3l.3.1.2.1h.3l.2.1.1.1h.2l.1.1h.2l-.6 3.1z"/><path class="st3" d="M84.2 35.2l-.1-.1H84l-.2-.1-.2-.1-.1-.1h-.2l-.2-.1-.2-.1h-.2l-.2-.1H82l-.3-.1h-1.3l-.3.1h-.3l-.4.1-.3.1-.3.2-.3.2-.3.2-.3.3-.3.4-.2.4-.3.5-.2.5-.2.7-.2.7-.1.4v1.5l.1.4.1.3.1.3.2.3.2.3.2.3.3.2.3.2.3.2.4.1.4.1.2.1h.6l.2.1h.5l.3-.1h.6l.3-.1.3-.1.2-.1.3-.2.2-.2.3-.2-.6 3v.1h-.1l-.1.1-.1.1-.1.1-.2.1h-.1l-.2.1-.3.1h-.3l-.3.1h-.8l-.5.1-.6-.1h-1.1l-.6-.2-.5-.1-.5-.2-.5-.3-.4-.3-.5-.4-.4-.5-.4-.5-.3-.5-.2-.7-.2-.6-.2-.8v-1.6l.1-1 .1-.4.1-.5.1-.4.1-.4.2-.4.1-.4.2-.4.1-.3.2-.4.1-.3.2-.3.2-.3.2-.3.3-.2.2-.3.2-.2.3-.2.2-.2.3-.2.3-.2.3-.2.3-.1.3-.2.3-.1.3-.1.4-.1.4-.1h.3l.4-.1h.8l.4-.1.4.1h.7l.3.1h.3l.3.1h.3l.3.1.2.1h.3l.2.1.1.1h.2l.1.1h.2l-.6 3.1"/><path class="st2" d="M111.7 46.5h-3.1l.2-1.3v-.1l-.2.2-.2.2-.2.2-.2.2-.2.1-.2.1-.2.1-.2.1-.2.1-.2.1h-.2l-.2.1h-1.5l-.5-.1-.5-.2-.5-.3-.4-.3-.3-.4-.3-.4-.3-.5-.2-.5-.2-.5-.1-.5-.1-.6v-1.7l.1-.6.2-.6.2-.7.2-.5.3-.6.3-.5.3-.4.4-.4.3-.4.4-.3.4-.3.5-.2.4-.2.4-.2.5-.1h.4l.5-.1.3.1h.6l.3.1.2.1.3.1.2.1.2.2.2.1.1.1.2.2.1.1.1.2.1.1.1.1.1.2.7-4.4h3.1l-2.5 14.6z"/><path class="st3" d="M111.7 46.5h-3.1l.2-1.3v-.1l-.2.2-.2.2-.2.2-.2.2-.2.1-.2.1-.2.1-.2.1-.2.1-.2.1h-.2l-.2.1h-1.5l-.5-.1-.5-.2-.5-.3-.4-.3-.3-.4-.3-.4-.3-.5-.2-.5-.2-.5-.1-.5-.1-.6v-1.7l.1-.6.2-.6.2-.7.2-.5.3-.6.3-.5.3-.4.4-.4.3-.4.4-.3.4-.3.5-.2.4-.2.4-.2.5-.1h.4l.5-.1.3.1h.6l.3.1.2.1.3.1.2.1.2.2.2.1.1.1.2.2.1.1.1.2.1.1.1.1.1.2.7-4.4h3.1l-2.5 14.6"/><path class="st0" d="M106.6 43.8h.3l.3-.1.3-.1.2-.1.3-.2.2-.1.2-.2.2-.2.2-.2.1-.3.2-.2.1-.3.1-.3.1-.3.1-.3v-.3l.1-.3v-1.2l-.1-.3-.1-.3v-.2l-.2-.2-.1-.2-.1-.2-.2-.2-.2-.1-.2-.1-.2-.1h-.5l-.3.1-.3.1-.2.1-.3.1-.2.2-.2.2-.2.2-.1.3-.2.2-.1.3-.1.3-.2.3v.3l-.1.3-.1.3-.1.5.1.5v.6l.2.5.2.5.3.3.4.3.4.1z"/><path class="st2" d="M38.2 44l-.4 2.5H35l.1-.5v-.4l.1-.3v-.2l-.2.2-.1.2-.2.1-.3.2-.2.2-.3.1-.3.1-.3.1-.3.1-.4.1-.3.1h-.6l-.4.1-.3-.1h-.3l-.4-.1-.3-.1-.3-.2-.3-.1-.3-.2-.2-.2-.2-.2-.1-.3-.1-.2-.2-.2v-.3l-.1-.2-.1-.3v-1.2l.1-.4.1-.4.1-.3.2-.4.2-.3.3-.3.2-.3.3-.3.3-.2.3-.2.4-.2.3-.1.4-.2.4-.1h.4l.1-.1h.6l.2-.1h.9l.2-.1h.8l.2.1h.8v-.1l.1-.2v-.7l-.1-.2-.1-.2-.2-.2-.2-.1-.3-.1-.2-.1h-2.4l-.3.1h-.4l-.3.1h-.3l-.3.1h-.3l-.2.1-.2.1H30l-.1.1.8-2.7.2-.1.3-.1h.2l.3-.1h.3l.3-.1h.2l.3-.1H36l.3.1.4.1.3.1.4.1.3.2.3.2.3.2.3.2.3.3.2.3.1.3.2.4v1.2L38.2 44z"/><path class="st3" d="M38.2 44l-.4 2.5H35l.1-.5v-.4l.1-.3v-.2l-.2.2-.1.2-.2.1-.3.2-.2.2-.3.1-.3.1-.3.1-.3.1-.4.1-.3.1h-.6l-.4.1-.3-.1h-.3l-.4-.1-.3-.1-.3-.2-.3-.1-.3-.2-.2-.2-.2-.2-.1-.3-.1-.2-.2-.2v-.3l-.1-.2-.1-.3v-1.2l.1-.4.1-.4.1-.3.2-.4.2-.3.3-.3.2-.3.3-.3.3-.2.3-.2.4-.2.3-.1.4-.2.4-.1h.4l.1-.1h.6l.2-.1h.9l.2-.1h.8l.2.1h.8v-.1l.1-.2v-.7l-.1-.2-.1-.2-.2-.2-.2-.1-.3-.1-.2-.1h-2.4l-.3.1h-.4l-.3.1h-.3l-.3.1h-.3l-.2.1-.2.1H30l-.1.1.8-2.7.2-.1.3-.1h.2l.3-.1h.3l.3-.1h.2l.3-.1H36l.3.1.4.1.3.1.4.1.3.2.3.2.3.2.3.2.3.3.2.3.1.3.2.4v1.2L38.2 44"/><path class="st1" d="M35.5 41.1V41l-.1-.1h-1.2l-.2.1h-.3l-.2.1h-.3l-.1.1H33l-.1.1-.2.1-.1.1-.2.1-.1.1-.2.1-.1.1-.1.1-.2.2v.1l-.1.2v.9l.1.2.2.2.1.1h.2l.2.1h.5l.3-.1h.3l.3-.1h.2l.2-.1.2-.1.1-.2.2-.1.1-.1.1-.1.1-.2.1-.1.1-.1v-.2l.1-.1v-.3l.1-.4.1-.3v-.3z"/><path class="st2" d="M14.8 46.5h-3l2.5-14.7h5.3l.5 8.7 3.6-8.7h5.5l-2.6 14.7h-3l1.9-11h-.1l-4.5 11h-3.5V46l-.1-1.2-.1-1.7-.1-2-.1-2-.1-1.8-.1-1.2v-.6h-.1l-1.9 11z"/><path class="st3" d="M14.8 46.5h-3l2.5-14.7h5.3l.5 8.7 3.6-8.7h5.5l-2.6 14.7h-3l1.9-11h-.1l-4.5 11h-3.5V46l-.1-1.2-.1-1.7-.1-2-.1-2-.1-1.8-.1-1.2v-.6h-.1l-1.9 11"/><path class="st2" d="M93.5 44l-.5 2.5h-2.8l.1-.5v-.8l-.1.1-.2.2-.2.2-.2.1-.3.2-.2.1-.3.1-.3.1-.3.1-.3.1-.3.1h-.7l-.3.1-.3-.1H86l-.4-.1-.3-.1-.3-.2-.3-.1-.3-.2-.2-.2-.2-.2-.1-.3-.1-.2-.1-.2-.1-.3-.1-.2V44l-.1-.2v-1l.1-.4.1-.4.1-.3.2-.4.2-.3.3-.3.2-.3.3-.3.3-.2.3-.2.4-.2.3-.1.4-.2.3-.1h.5l.1-.1h.6l.1-.1h1l.1-.1h.9l.2.1h.8v-.3l.1-.2v-.5l-.1-.2-.2-.2-.1-.2-.2-.1-.3-.1-.2-.1h-2.4l-.3.1h-.4l-.3.1h-.3l-.3.1h-.3l-.2.1-.2.1h-.2l-.1.1.8-2.7.2-.1.3-.1h.2l.3-.1h.3l.3-.1h.2l.4-.1h3l.4.1.3.1.4.1.3.1.3.2.4.2.3.2.3.2.2.3.3.3.1.3.1.4.1.3v.9L93.5 44z"/><path class="st2" d="M93 46.5h.1l.5-2.5h-.2l-.4 2.5v-.1.1h.1-.1z"/><path class="st2" d="M90.2 46.5H93v-.1h-2.8l.1.1h-.1z"/><path class="st2" d="M90.4 45.2l-.1-.1-.1.2v1.2h.1V46l.1-.4-.1-.3v-.1l-.1-.1.2.1z"/><path class="st2" d="M86 46.6l.3.1h1l.3-.1h.3l.3-.1.3-.1.3-.1.3-.1.3-.2.2-.1.2-.2.2-.1.2-.2.2-.2-.2-.1-.1.2-.2.2-.2.1-.2.2-.2.1-.3.1-.2.2-.3.1-.3.1-.3.1h-.3l-.3.1h-1l-.3-.1v.1zm-2.7-3.3v.2l.1.3v.5l.1.2.1.3.1.2.1.3.2.2.2.2.2.2.2.2.3.2.4.1.3.1.4.1v-.1l-.4-.1-.3-.1-.3-.1-.3-.2-.2-.2-.2-.2-.2-.2-.2-.2-.1-.2-.1-.3-.1-.2v-.2l-.1-.3v-.7h-.2zm4-4.3l-.4.1-.3.1-.4.1-.4.1-.3.2-.3.2-.3.3-.3.2-.3.3-.2.3-.3.4-.1.3-.2.4-.1.4v.4l-.1.5h.2v-.5l.1-.4.1-.3.1-.4.2-.4.2-.3.2-.3.3-.3.2-.2.3-.2.4-.2.3-.2.3-.2.4-.1.4-.1.3-.1V39z"/><path class="st2" d="M89.6 38.8h-1l-.2.1h-.7l-.1.1h-.3v.1h.6l.2-.1h.7l.2-.1h.6v-.1zm1.5.1l.1-.1h-1.6v.1H91l.1.1h.1l.1-.1-.1.1.1-.1h-.2z"/><path class="st2" d="M91.2 38.2v.4l-.1.2v.1h.2v-.5l.1-.2h-.2z"/><path class="st2" d="M89.9 37.1h.3l.2.1.2.1.2.1.2.1.1.2.1.2v.3h.2l-.1-.3-.1-.2-.1-.2-.2-.2-.2-.2-.3-.1h-.2l-.3-.1v.2zm-4.8.5l.1.1.2-.1.1-.1h.2l.2-.1.3-.1h.3l.3-.1h.3l.4-.1h2.4v-.2h-1.7l-.4.1h-.3l-.4.1h-.3l-.3.1h-.3l-.3.1h-.2l-.2.1-.2.1-.1.1h.1-.2z"/><path class="st2" d="M86 34.9h-.1l-.8 2.7h.2l.7-2.7v.1-.1h-.1.1z"/><path class="st2" d="M90.9 34.4l-.4-.1h-1.7l-.3.1h-.9l-.3.1H87l-.3.1-.2.1-.3.1-.2.1v.1l.2-.1.3-.1.2-.1h.3l.3-.1h.3l.2-.1h3.1v-.1zm3.8 3.7l.1-.4v-.5l-.1-.3-.1-.4-.2-.4-.2-.3-.3-.2-.3-.3-.3-.2-.3-.2-.4-.2-.3-.1-.4-.1-.3-.1h-.7v.1h.3l.3.1h.4l.3.1.4.2.3.1.4.2.3.2.2.3.3.2.2.3.2.3.1.4.1.3v.5l-.1.4h.1zM93.6 44l1.1-5.9h-.1L93.4 44h.2z"/><path class="st0" d="M90.8 41.1V41h-.1v-.1h-1.1l-.2.1h-.5l-.1.1h-.3l-.1.1h-.1l-.2.1H88l-.2.1-.1.1-.1.1-.2.1-.1.2-.1.1-.1.2-.1.1-.1.2v.9l.1.2.1.2.2.1h.2l.2.1h.5l.3-.1h.3l.3-.1.2-.1.2-.1.2-.1.2-.1.2-.1.1-.2.1-.1.1-.2.1-.1.1-.1v-.3l.1-.3v-.3l.1-.3v-.3z"/><path class="st2" d="M113.7 44.9l.1-.2.1-.3.1-.3.2-.2.2-.2.3-.1.3-.1.3-.1.3.1.3.1.3.1.2.2.2.2.1.3.1.3.1.2h-.4v-.2l-.1-.2-.1-.2-.1-.2-.2-.2-.2-.1-.2-.1h-.6l-.2.1-.2.1-.2.2-.1.2-.2.2v.4h-.4z"/><path class="st2" d="M114.7 44.9v-.6h1l.1.1v.1h.1v.4h-.5.2v-.1h.1v-.2h-.1v-.1h-.6v.4h-.3zm-1 0v.1l.1.3.1.3.1.3.2.2.2.2.3.2h.3l.3.1.3-.1h.3l.3-.2.2-.2.2-.2.1-.3.1-.3.1-.3v-.1h-.4v.4l-.1.2-.1.2-.1.2-.2.2-.2.1-.2.1h-.6l-.2-.1-.2-.1-.2-.2-.1-.2-.2-.2v-.6h-.4z"/><path class="st2" d="M114.7 44.9v.7h.3v-.5h.3l.3.5h.3l-.4-.5h.1l.1-.1h.1v-.1h-.4l-.1.1h-.3v-.1h-.3z"/><path class="st3" d="M113.7 45v-.3l.1-.3.2-.3.2-.2.2-.2.3-.1.3-.1h.6l.3.1.3.1.2.2.2.2.2.3.1.3v.6l-.1.3-.2.3-.2.2-.2.2-.3.1-.3.1h-.6l-.3-.1-.3-.1-.2-.2-.2-.2-.2-.3-.1-.3V45m1.3.6h-.3v-1.3h1l.1.1v.7h-.4l.3.6h-.2l-.3-.6h-.2v.5m.3-.6h.4v-.3h-.7v.4l.3-.1m0 1.3h.3l.2-.1.2-.1.2-.2.1-.2.1-.2.1-.2v-.6l-.1-.2-.1-.2-.1-.2-.2-.2-.2-.1-.2-.1h-.6l-.2.1-.2.1-.2.2-.1.2-.1.2-.1.2v.6l.1.2.1.2.1.2.2.2.2.1.2.1h.3"/><path class="st2" d="M94.3 46.5h3.2l1.1-6.4v-.2l.1-.3.1-.2.1-.3.1-.2.1-.2.2-.3.1-.2.2-.2.3-.1.2-.2.3-.1.3-.1.4-.1.4-.1h.7l.5-2.9h-.3l-.3.1h-.3l-.3.1-.2.1-.3.1-.2.1-.2.2-.2.1-.2.2-.2.2-.1.1-.2.2-.2.2-.1.2-.2.3.3-2.1h-3.1l-2.1 12z"/><path class="st3" d="M94.3 46.5h3.2l1.1-6.4v-.2l.1-.3.1-.2.1-.3.1-.2.1-.2.2-.3.1-.2.2-.2.3-.1.2-.2.3-.1.3-.1.4-.1.4-.1h.7l.5-2.9h-.3l-.3.1h-.3l-.3.1-.2.1-.3.1-.2.1-.2.2-.2.1-.2.2-.2.2-.1.1-.2.2-.2.2-.1.2-.2.3.3-2.1h-3.1l-2.1 12"/><path class="st2" d="M64.8 46.5H68l1.1-6.4.1-.2v-.2l.1-.3v-.2l.1-.2.1-.2.2-.2.1-.2.2-.2.2-.2.3-.1.2-.1.3-.1.4-.1.4-.1h.7v.1-.1l.1-.1v-.2l.1-.3.1-.3v-.3l.1-.3.1-.3.1-.2.1-.2.1-.2.2-.2.1-.2v-.1l.1-.1h-.1l-.1-.1h-.6l-.4.1h-.2l-.3.1-.3.1-.2.1-.2.1-.2.1-.2.2-.2.2-.2.1-.1.2-.2.2-.1.2-.2.2-.2.3.4-2.1h-3.2l-2.1 12z"/><path class="st3" d="M64.8 46.5H68l1.1-6.4.1-.2v-.2l.1-.3v-.2l.1-.2.1-.2.2-.2.1-.2.2-.2.2-.2.3-.1.2-.1.3-.1.4-.1.4-.1h.7v.1-.1l.1-.1v-.2l.1-.3.1-.3v-.3l.1-.3.1-.3.1-.2.1-.2.1-.2.2-.2.1-.2v-.1l.1-.1h-.1l-.1-.1h-.6l-.4.1h-.2l-.3.1-.3.1-.2.1-.2.1-.2.1-.2.2-.2.2-.2.1-.1.2-.2.2-.1.2-.2.2-.2.3.4-2.1h-3.2l-2.1 12"/><path class="st0" d="M113.8 58.2v-.1l.1-.3.1-.2.2-.2.2-.2.3-.1.3-.1.3-.1.3.1.3.1.3.1.2.2.2.2.1.2.1.3v.1h-.3l-.1-.3-.1-.2-.1-.2-.2-.1-.2-.1-.2-.1h-.6l-.2.1-.2.1-.2.1-.1.2-.2.2v.3h-.3z"/><path class="st0" d="M114.7 58.2v-.4h1l.1.1.1.1v.2h-.2V58h-.7v.2h-.3zm-1 .2l.1-.2h.3v.2h-.4z"/><path class="st0" d="M114.7 58.4v-.2h.3v.2h.5v-.1h.2v-.1h.2v.1l-.1.1h-1.1zm1.8 0v-.2h.3l.1.2h-.4zm-2.8 0v.1l.1.3.1.3.1.2.2.3.2.2.3.1.3.1h.6l.3-.1.3-.1.2-.2.2-.3.1-.2.1-.3.1-.3v-.1h-.4v.3l-.1.3-.1.2-.1.2-.2.1-.2.2h-.2l-.3.1-.3-.1h-.2l-.2-.2-.2-.1-.1-.2-.2-.2v-.6h-.4z"/><path class="st0" d="M114.7 58.4v.7h.3v-.6h.3l.3.6h.3l-.4-.6h.2l.1-.1h-1.1z"/><path class="st2" d="M56.9 39.1h1.8v2.2h-1.8z"/></svg>