<svg id="Layer_1" xmlns="http://www.w3.org/2000/svg" viewBox="0 0 128 128"><style>.st0{fill:#293379}.st1{fill:#fff}</style><circle class="st0" cx="64" cy="64" r="64"/><path class="st1" d="M82.3 104H45.7c-12 0-21.7-9.7-21.7-21.7V45.7c0-12 9.7-21.7 21.7-21.7h36.7c11.9 0 21.7 9.7 21.7 21.7v36.7C104 94.3 94.3 104 82.3 104zM45.7 30.7c-8.3 0-15 6.7-15 15v36.7c0 8.3 6.7 15 15 15h36.7c8.3 0 15-6.7 15-15V45.7c0-8.3-6.7-15-15-15H45.7z"/><path class="st1" d="M64 84c-11 0-20-9-20-20s9-20 20-20 20 9 20 20-9 20-20 20zm0-33.3c-7.4 0-13.3 6-13.3 13.3 0 7.4 6 13.3 13.3 13.3s13.3-6 13.3-13.3c0-7.4-5.9-13.3-13.3-13.3z"/><circle class="st1" cx="85.2" cy="42.8" r="4.6"/></svg>