<svg id="svg2" xmlns="http://www.w3.org/2000/svg" viewBox="0 0 500 500"><style>.st0{fill:#293379}.st1{enable-background:new}.st2{fill:#fff}</style><g id="layer1" transform="translate(0 -552.362)"><path id="rect2990-1" class="st0" d="M250 552.4c138.1 0 250 111.9 250 250s-111.9 250-250 250S0 940.5 0 802.4s111.9-250 250-250z"/><path id="rect2989-7" class="st2" d="M164.1 642.4c3.8 11.1 7.8 22.3 11.6 33.5 5.8 16.8 9.4 29.4 11 38v48.7h18v-48.7l21.6-71.5h-18.2l-12.3 47.2-12.8-47.2h-18.9zm86.3 29.5c-8.1 0-14.4 3.1-18.9 9.2-3.5 4.5-5.1 11.5-5.1 21.1v31.3c0 9.5 1.6 16.6 5.1 21.1 4.5 6.1 10.8 9.2 18.9 9.2 8.1 0 14.5-3.1 18.9-9.2 3.4-4.5 5-11.5 5-21.1v-31.3c0-9.6-1.6-16.6-5-21.1-4.4-6.2-10.7-9.2-18.9-9.2zm37.3 1.1v70.8c0 6.3.6 10.6 1.5 13.3 1.6 4.5 5.2 6.7 10.4 6.7 5.9 0 12.1-3.6 18.6-11v9.8h16.2V673h-16.2v68.4c-3.6 5.1-7 7.6-10.3 7.6-2.2 0-3.4-1.3-3.8-3.8-.2-.5-.2-2.5-.2-6.3V673h-16.2zm-37.3 13.5c5.2 0 7.7 4.1 7.7 12.4v37.7c0 8.3-2.5 12.4-7.7 12.4s-7.7-4.1-7.7-12.4v-37.7c0-8.3 2.5-12.4 7.7-12.4zm-6.5 90.7c-31.2 0-62.5.2-93.4 3.7-13.9 1.6-25.5 12-28.7 26.1-4.6 20.1-4.7 42.1-4.7 62.8v1.5c0 20.3.1 41.6 4.6 61.3 3.2 14.1 14.8 24.6 28.7 26.1 31 3.5 62.2 3.7 93.4 3.7h12c31.2 0 62.5-.2 93.4-3.7 13.9-1.6 25.5-12 28.7-26.1 4.6-19.8 4.6-41.5 4.6-61.9v-.9c0-20.7 0-42.7-4.6-62.8-3.2-14.1-14.8-24.6-28.7-26.1-30.9-3.5-62.2-3.7-93.4-3.7h-11.9zm-106.9 33h56V827h-19.2v102.2h-17.9V827H137v-16.8zm118.4 0h16.1V849c5.2-6.4 10.7-9.6 16.6-9.6 6.4 0 10.7 3.4 12.8 10 1.1 3.6 1.6 9.4 1.6 17.8v35.3c0 8.2-.6 14.1-1.6 17.9-2.2 6.6-6.4 9.9-12.8 9.9-5.7 0-11.2-3.2-16.6-9.8v8.6h-16.1V810.2zm83.7 29.3c8.1 0 14.5 3 19 9.1 3.4 4.5 4.9 11.4 4.9 20.9v18.3h-32.1v15.7c0 8.2 2.7 12.3 8.2 12.3 4 0 6.3-2.2 7.2-6.4.1-.9.3-4.5.3-10.9H363v2.4c0 5.2-.2 8.7-.3 10.3-.5 3.6-1.8 6.8-3.7 9.6-4.4 6.4-11 9.6-19.4 9.6-8.4 0-14.8-3-19.4-9.1-3.4-4.4-5.1-11.4-5.1-20.8v-31.1c0-9.5 1.5-16.4 4.9-20.9 4.6-6 10.9-9 19.1-9zm-143.8 1h16v65.2c0 3.8 0 5.7.2 6.2.4 2.5 1.6 3.7 3.8 3.7 3.2 0 6.6-2.4 10.2-7.5v-67.7h16.1V929h-16.1v-9.7c-6.4 7.3-12.4 10.9-18.3 10.9-5.2 0-8.8-2.1-10.4-6.6-.9-2.7-1.4-6.9-1.4-13.2l-.1-69.9zm84.1 13.4c-2.6 0-5.3 1.2-8 3.9v54c2.7 2.7 5.4 3.9 8 3.9 4.6 0 7-3.9 7-11.9V866c0-8-2.3-12.1-7-12.1zm59.6 0c-5.4 0-8.1 4.1-8.1 12.3v8.2H347v-8.2c0-8.2-2.7-12.3-8-12.3z"/></g></svg>